<svg width="500" height="500" viewBox="0 0 500 500" fill="none" xmlns="http://www.w3.org/2000/svg">
<path d="M409.25 271.27C404.89 248.27 390.8 231.47 372.46 217.96C359.37 208.31 348.74 195.69 339.62 182.25C326.88 163.46 316.31 139.95 295.71 128.33C266.41 111.81 238.24 134.28 214.49 150.13C202.03 158.45 188.74 167.13 173.66 169.53C152.16 172.97 130.33 163.53 109.01 169.21C104.87 169.397 100.799 170.343 97 172C97 172 70 181 62 227C54 273 61 342 99 382C137 422 167 427 187 428C187.55 428 188.09 428 188.63 428C201.9 430 217.63 429 235.63 424C293.51 407.92 290.29 370.94 341.74 362.9C393.19 354.86 418.09 317.89 409.25 271.27Z" fill="#ADD9C8"/>
<path opacity="0.7" d="M409.25 271.27C404.89 248.27 390.8 231.47 372.46 217.96C359.37 208.31 348.74 195.69 339.62 182.25C326.88 163.46 316.31 139.95 295.71 128.33C266.41 111.81 238.24 134.28 214.49 150.13C202.03 158.45 188.74 167.13 173.66 169.53C152.16 172.97 130.33 163.53 109.01 169.21C104.87 169.397 100.799 170.343 97 172C97 172 70 181 62 227C54 273 61 342 99 382C137 422 167 427 187 428C187.55 428 188.09 428 188.63 428C201.9 430 217.63 429 235.63 424C293.51 407.92 290.29 370.94 341.74 362.9C393.19 354.86 418.09 317.89 409.25 271.27Z" fill="white"/>
<path d="M222.12 91.64C222.12 91.64 226.7 88.02 227.88 85.7C228.88 83.7 229.6 80.92 228.57 78.82C228.348 78.3135 228.021 77.8597 227.611 77.4882C227.201 77.1167 226.718 76.8359 226.192 76.6641C225.666 76.4923 225.11 76.4334 224.56 76.4913C224.01 76.5492 223.479 76.7225 223 77C220.17 78.76 219.87 84.74 220.59 87.62C220.65 87.9 222.07 91.68 222.12 91.64Z" fill="#ADD9C8"/>
<path d="M179.75 121.79C179.94 121.97 183.21 124.34 183.22 124.28C183.23 124.22 185.05 118.73 184.75 116.15C184.49 113.95 183.55 111.21 181.53 110.03C181.065 109.733 180.542 109.538 179.996 109.457C179.45 109.375 178.893 109.411 178.361 109.56C177.83 109.709 177.336 109.969 176.912 110.322C176.488 110.675 176.143 111.114 175.9 111.61C174.51 114.63 177.56 119.79 179.75 121.79Z" fill="#ADD9C8"/>
<path d="M275.78 97.1196C275.78 97.1196 259 114.44 259.09 135.71C259.18 156.98 276.09 174.16 276.09 174.16C276.09 174.16 292.87 156.84 292.78 135.57C292.69 114.3 275.78 97.1196 275.78 97.1196Z" fill="#ADD9C8"/>
<path d="M251.86 148.46C252.077 148.217 252.277 147.959 252.46 147.69C253.68 145.84 254.72 143.15 253.94 140.94C253.774 140.413 253.5 139.927 253.134 139.513C252.768 139.1 252.318 138.768 251.816 138.539C251.313 138.311 250.767 138.191 250.215 138.188C249.663 138.185 249.116 138.298 248.61 138.52C246.33 139.6 245.22 143.25 244.98 146.24C244.07 146.03 243.25 145.87 242.54 145.75C242.24 145.08 241.94 144.39 241.63 143.75C241.32 143.11 241.07 142.33 240.78 141.61C240.38 140.55 240.02 139.43 239.65 138.32C240.98 137.72 244.85 135.92 246.29 134.32C247.73 132.72 249.21 130.17 248.77 127.87C248.686 127.324 248.488 126.802 248.189 126.338C247.89 125.874 247.497 125.478 247.034 125.176C246.572 124.874 246.051 124.673 245.506 124.586C244.961 124.498 244.403 124.527 243.87 124.67C240.68 125.67 238.81 131.31 238.74 134.28C238.74 134.38 238.74 135.01 238.86 135.75C238.54 134.65 238.21 133.56 237.93 132.44C237.11 129.25 236.37 125.98 235.62 122.71C235.47 122.02 235.3 121.35 235.14 120.71C236.26 120.22 240.46 118.3 241.97 116.63C243.48 114.96 244.9 112.48 244.46 110.18C244.375 109.634 244.176 109.112 243.876 108.647C243.576 108.183 243.181 107.787 242.718 107.485C242.255 107.184 241.734 106.983 241.188 106.896C240.642 106.808 240.084 106.837 239.55 106.98C236.37 107.98 234.5 113.62 234.43 116.59C234.43 116.69 234.49 117.44 234.57 118.28C234.13 116.51 233.68 114.75 233.18 113.01C232.331 110.029 231.282 107.109 230.04 104.27C230.44 104.1 235.41 101.95 237.09 100.09C238.58 98.4498 240.01 95.9398 239.57 93.6398C239.486 93.0941 239.288 92.5721 238.989 92.1079C238.69 91.6437 238.297 91.2478 237.834 90.9459C237.372 90.644 236.851 90.4429 236.306 90.3557C235.761 90.2685 235.203 90.2972 234.67 90.4398C231.49 91.4398 229.61 97.0798 229.55 100.05C229.55 100.26 229.79 102.97 229.91 103.94V103.84C228.628 101.077 227.098 98.4366 225.34 95.9498C223.8 93.7175 222.13 91.5772 220.34 89.5398C218.69 87.6398 217.06 85.9898 215.61 84.5398C214.81 83.7698 214.07 83.0698 213.38 82.4298H213.45C213.51 82.4298 211.89 78.7198 211.76 78.4998C210.28 75.9298 205.89 71.8498 202.64 72.4998C202.104 72.6333 201.603 72.8779 201.167 73.2178C200.732 73.5577 200.373 73.9852 200.114 74.4727C199.855 74.9601 199.701 75.4966 199.662 76.0474C199.624 76.5982 199.701 77.151 199.89 77.6698C200.62 79.8998 203.08 81.3998 205.18 82.1198C207.28 82.8398 212.01 82.5098 213.18 82.3998C213.89 83.0798 214.64 83.8198 215.45 84.6398C216.87 86.1098 218.45 87.7898 220.07 89.7198C220.49 90.2298 220.93 90.8098 221.37 91.3498C220.44 90.5798 219.16 89.5498 219.02 89.4598C216.52 87.8698 210.74 86.2698 208.19 88.3898C207.773 88.7526 207.438 89.1993 207.206 89.7007C206.975 90.2021 206.851 90.7468 206.845 91.2991C206.838 91.8515 206.948 92.399 207.168 92.9058C207.388 93.4126 207.712 93.8672 208.12 94.2398C209.79 95.8898 212.68 96.0798 214.87 95.7598C217.06 95.4398 221.24 92.8698 222.13 92.2998C223.08 93.5198 224.03 94.7998 224.94 96.1898C226.613 98.6874 228.062 101.328 229.27 104.08C229.34 104.24 229.39 104.41 229.46 104.57C229.07 104.11 226.73 101.76 226.55 101.57C224.24 99.7098 218.68 97.4798 215.9 99.3098C215.447 99.6258 215.066 100.034 214.781 100.507C214.496 100.98 214.315 101.508 214.248 102.056C214.181 102.604 214.23 103.161 214.392 103.688C214.555 104.216 214.827 104.704 215.19 105.12C216.68 106.94 219.52 107.45 221.73 107.37C224.29 107.28 229.31 104.74 229.5 104.65C230.633 107.424 231.582 110.27 232.34 113.17C232.91 115.31 233.41 117.51 233.88 119.71C233.36 119.13 231.19 116.94 231.01 116.8C228.7 114.94 223.14 112.71 220.36 114.54C219.907 114.856 219.526 115.264 219.241 115.737C218.956 116.21 218.775 116.738 218.708 117.286C218.641 117.834 218.69 118.391 218.852 118.919C219.015 119.446 219.287 119.934 219.65 120.35C221.14 122.17 223.98 122.68 226.19 122.6C228.69 122.51 233.51 120.1 233.92 119.9C234.14 120.9 234.35 121.9 234.56 122.9C235.24 126.18 235.91 129.48 236.66 132.71C236.92 133.83 237.22 134.92 237.52 136.02C236.7 135.17 235.19 133.65 235.05 133.53C232.74 131.68 227.17 129.45 224.4 131.27C223.947 131.586 223.566 131.994 223.281 132.467C222.996 132.94 222.815 133.468 222.748 134.016C222.681 134.564 222.73 135.121 222.892 135.648C223.055 136.176 223.327 136.664 223.69 137.08C225.17 138.9 228.02 139.42 230.23 139.33C232.44 139.24 236.56 137.33 237.71 136.75C238.21 138.57 238.71 140.37 239.37 142.11C239.65 142.86 239.89 143.64 240.2 144.34L240.67 145.45L240.03 145.39C240.03 145.39 240.03 146.39 240.08 148.12C237.64 146.38 234.08 144.88 231.83 145.94C231.335 146.184 230.898 146.529 230.545 146.953C230.193 147.378 229.934 147.871 229.785 148.403C229.636 148.934 229.6 149.49 229.68 150.036C229.76 150.581 229.955 151.104 230.25 151.57C230.399 151.821 230.57 152.058 230.76 152.28C231.203 154.843 232.291 157.252 233.92 159.28C234.04 159.43 235.7 160.96 236.57 161.72C235.73 161.27 234.9 160.82 234.04 160.34C232.79 159.64 231.5 158.87 230.24 158.13L228.3 156.9C227.64 156.49 227.05 156.03 226.41 155.59C225.49 154.92 224.57 154.19 223.66 153.46C224.44 152.24 226.66 148.6 226.99 146.46C227.32 144.32 227.13 141.38 225.5 139.7C225.131 139.289 224.679 138.96 224.174 138.735C223.669 138.51 223.123 138.394 222.57 138.394C222.017 138.394 221.471 138.51 220.966 138.735C220.461 138.96 220.01 139.289 219.64 139.7C217.51 142.25 219.09 148.03 220.64 150.54C220.64 150.62 221.08 151.12 221.55 151.7C220.68 150.96 219.8 150.23 218.94 149.45C216.5 147.25 214.08 144.92 211.65 142.61L210.12 141.17C210.78 140.17 213.23 136.17 213.57 134C213.91 131.83 213.72 128.92 212.08 127.24C211.711 126.83 211.259 126.503 210.756 126.279C210.252 126.055 209.706 125.94 209.155 125.94C208.604 125.94 208.058 126.055 207.555 126.279C207.051 126.503 206.599 126.83 206.23 127.24C204.1 129.79 205.67 135.57 207.23 138.08C207.29 138.17 207.76 138.76 208.28 139.42C206.95 138.18 205.59 136.96 204.22 135.79C201.866 133.773 199.381 131.916 196.78 130.23C197.02 129.87 199.98 125.33 200.35 122.86C200.69 120.66 200.5 117.78 198.87 116.1C198.496 115.697 198.042 115.376 197.538 115.156C197.034 114.936 196.49 114.823 195.94 114.823C195.39 114.823 194.846 114.936 194.342 115.156C193.838 115.376 193.384 115.697 193.01 116.1C190.88 118.65 192.46 124.43 194.01 126.94C194.12 127.12 195.82 129.24 196.46 129.94L196.37 129.88C193.775 128.289 191.044 126.93 188.21 125.82C185.682 124.817 183.098 123.962 180.47 123.26C178.04 122.58 175.77 122.11 173.76 121.71C172.68 121.5 171.68 121.33 170.76 121.18H170.82C170.82 121.18 167.48 118.94 167.25 118.83C164.59 117.51 158.68 116.52 156.36 118.9C155.986 119.306 155.702 119.787 155.526 120.31C155.35 120.833 155.285 121.388 155.337 121.937C155.389 122.487 155.556 123.02 155.827 123.501C156.098 123.982 156.467 124.401 156.91 124.73C158.75 126.19 161.63 126.08 163.78 125.53C165.93 124.98 169.69 122.07 170.61 121.35C171.61 121.52 172.61 121.72 173.74 121.96C175.74 122.4 177.98 122.96 180.39 123.65C181.03 123.84 181.71 124.08 182.39 124.29C181.19 124.16 179.55 124.01 179.39 124.01C176.39 124.01 170.72 125.91 169.76 129.09C169.614 129.622 169.582 130.18 169.666 130.726C169.75 131.271 169.947 131.793 170.247 132.258C170.546 132.722 170.939 133.118 171.402 133.42C171.864 133.722 172.385 133.923 172.93 134.01C175.23 134.46 177.75 133.01 179.4 131.55C181.05 130.09 183.12 125.63 183.55 124.66C185.01 125.16 186.55 125.66 188.03 126.36C190.814 127.515 193.492 128.914 196.03 130.54C196.17 130.64 196.31 130.76 196.46 130.85C195.88 130.69 192.63 130.01 192.4 129.99C189.4 129.71 183.57 130.92 182.27 133.99C182.068 134.503 181.976 135.054 182 135.605C182.024 136.156 182.163 136.697 182.409 137.191C182.655 137.685 183.002 138.121 183.428 138.473C183.854 138.824 184.348 139.082 184.88 139.23C187.12 139.93 189.78 138.78 191.58 137.5C193.66 136.01 196.45 131.12 196.58 130.94C199.05 132.632 201.409 134.483 203.64 136.48C205.31 137.95 206.93 139.48 208.54 141.09C207.78 140.89 204.76 140.26 204.54 140.24C201.54 139.97 195.72 141.18 194.41 144.24C194.208 144.753 194.116 145.304 194.14 145.855C194.164 146.406 194.303 146.947 194.549 147.441C194.795 147.935 195.142 148.371 195.568 148.723C195.994 149.074 196.488 149.332 197.02 149.48C199.26 150.18 201.92 149.04 203.72 147.75C205.72 146.3 208.45 141.62 208.72 141.23L210.92 143.38C213.3 145.75 215.67 148.13 218.08 150.38C218.92 151.17 219.77 151.92 220.62 152.67C219.48 152.41 217.38 151.97 217.19 151.96C214.24 151.68 208.37 152.89 207.06 155.96C206.858 156.474 206.766 157.025 206.791 157.577C206.815 158.129 206.956 158.669 207.203 159.163C207.45 159.658 207.798 160.094 208.225 160.445C208.652 160.796 209.147 161.053 209.68 161.2C211.92 161.89 214.57 160.75 216.37 159.47C218.17 158.19 220.54 154.29 221.19 153.19C222.61 154.43 224.05 155.63 225.53 156.74C226.18 157.21 226.81 157.74 227.45 158.14L229.36 159.41C230.69 160.24 231.93 161.01 233.19 161.75L235.05 162.82C233.93 162.38 232.14 161.72 231.97 161.68C229.09 160.96 223.11 161.26 221.35 164.09C221.073 164.567 220.9 165.097 220.841 165.645C220.781 166.193 220.838 166.748 221.007 167.273C221.176 167.798 221.453 168.282 221.82 168.693C222.188 169.104 222.637 169.433 223.14 169.66C225.25 170.66 228.05 169.96 230.02 168.96C232.2 167.86 235.48 163.8 235.88 163.3C237.41 164.17 238.88 165 240.31 165.75C244.08 167.75 247.31 169.38 249.91 170.57C258.2 177.74 269.91 178.57 269.91 178.57C269.91 178.57 270.53 164.57 262.3 155.41C259.376 152.351 255.811 149.977 251.86 148.46ZM237.06 162.08C237.32 161.5 239.3 157.08 239.44 154.56C239.9 154.48 240.37 154.38 240.82 154.28C241.659 158.693 243.41 162.882 245.96 166.58C244.45 165.86 242.82 165.07 241.09 164.19C239.8 163.53 238.45 162.82 237.06 162.08Z" fill="#ADD9C8"/>
<path d="M313 145.78C313 145.78 299 146.21 290.47 155.1C281.94 163.99 282 178 282 178C282 178 296 177.57 304.53 168.68C313.06 159.79 313 145.78 313 145.78Z" fill="#ADD9C8"/>
<g opacity="0.5">
<path d="M222.12 91.64C222.12 91.64 226.7 88.02 227.88 85.7C228.88 83.7 229.6 80.92 228.57 78.82C228.348 78.3135 228.021 77.8597 227.611 77.4882C227.201 77.1167 226.718 76.8359 226.192 76.6641C225.666 76.4923 225.11 76.4334 224.56 76.4913C224.01 76.5492 223.479 76.7225 223 77C220.17 78.76 219.87 84.74 220.59 87.62C220.65 87.9 222.07 91.68 222.12 91.64Z" fill="white"/>
<path d="M179.75 121.79C179.94 121.97 183.21 124.34 183.22 124.28C183.23 124.22 185.05 118.73 184.75 116.15C184.49 113.95 183.55 111.21 181.53 110.03C181.065 109.733 180.542 109.538 179.996 109.457C179.45 109.375 178.893 109.411 178.361 109.56C177.83 109.709 177.336 109.969 176.912 110.322C176.488 110.675 176.143 111.114 175.9 111.61C174.51 114.63 177.56 119.79 179.75 121.79Z" fill="white"/>
<path d="M275.78 97.1196C275.78 97.1196 259 114.44 259.09 135.71C259.18 156.98 276.09 174.16 276.09 174.16C276.09 174.16 292.87 156.84 292.78 135.57C292.69 114.3 275.78 97.1196 275.78 97.1196Z" fill="white"/>
<path d="M251.86 148.46C252.077 148.217 252.277 147.959 252.46 147.69C253.68 145.84 254.72 143.15 253.94 140.94C253.774 140.413 253.5 139.927 253.134 139.513C252.768 139.1 252.318 138.768 251.816 138.539C251.313 138.311 250.767 138.191 250.215 138.188C249.663 138.185 249.116 138.298 248.61 138.52C246.33 139.6 245.22 143.25 244.98 146.24C244.07 146.03 243.25 145.87 242.54 145.75C242.24 145.08 241.94 144.39 241.63 143.75C241.32 143.11 241.07 142.33 240.78 141.61C240.38 140.55 240.02 139.43 239.65 138.32C240.98 137.72 244.85 135.92 246.29 134.32C247.73 132.72 249.21 130.17 248.77 127.87C248.686 127.324 248.488 126.802 248.189 126.338C247.89 125.874 247.497 125.478 247.034 125.176C246.572 124.874 246.051 124.673 245.506 124.586C244.961 124.498 244.403 124.527 243.87 124.67C240.68 125.67 238.81 131.31 238.74 134.28C238.74 134.38 238.74 135.01 238.86 135.75C238.54 134.65 238.21 133.56 237.93 132.44C237.11 129.25 236.37 125.98 235.62 122.71C235.47 122.02 235.3 121.35 235.14 120.71C236.26 120.22 240.46 118.3 241.97 116.63C243.48 114.96 244.9 112.48 244.46 110.18C244.375 109.634 244.176 109.112 243.876 108.647C243.576 108.183 243.181 107.787 242.718 107.485C242.255 107.184 241.734 106.983 241.188 106.896C240.642 106.808 240.084 106.837 239.55 106.98C236.37 107.98 234.5 113.62 234.43 116.59C234.43 116.69 234.49 117.44 234.57 118.28C234.13 116.51 233.68 114.75 233.18 113.01C232.331 110.029 231.282 107.109 230.04 104.27C230.44 104.1 235.41 101.95 237.09 100.09C238.58 98.4498 240.01 95.9398 239.57 93.6398C239.486 93.0941 239.288 92.5721 238.989 92.1079C238.69 91.6437 238.297 91.2478 237.834 90.9459C237.372 90.644 236.851 90.4429 236.306 90.3557C235.761 90.2685 235.203 90.2972 234.67 90.4398C231.49 91.4398 229.61 97.0798 229.55 100.05C229.55 100.26 229.79 102.97 229.91 103.94V103.84C228.628 101.077 227.098 98.4366 225.34 95.9498C223.8 93.7175 222.13 91.5772 220.34 89.5398C218.69 87.6398 217.06 85.9898 215.61 84.5398C214.81 83.7698 214.07 83.0698 213.38 82.4298H213.45C213.51 82.4298 211.89 78.7198 211.76 78.4998C210.28 75.9298 205.89 71.8498 202.64 72.4998C202.104 72.6333 201.603 72.8779 201.167 73.2178C200.732 73.5577 200.373 73.9852 200.114 74.4727C199.855 74.9601 199.701 75.4966 199.662 76.0474C199.624 76.5982 199.701 77.151 199.89 77.6698C200.62 79.8998 203.08 81.3998 205.18 82.1198C207.28 82.8398 212.01 82.5098 213.18 82.3998C213.89 83.0798 214.64 83.8198 215.45 84.6398C216.87 86.1098 218.45 87.7898 220.07 89.7198C220.49 90.2298 220.93 90.8098 221.37 91.3498C220.44 90.5798 219.16 89.5498 219.02 89.4598C216.52 87.8698 210.74 86.2698 208.19 88.3898C207.773 88.7526 207.438 89.1993 207.206 89.7007C206.975 90.2021 206.851 90.7468 206.845 91.2991C206.838 91.8515 206.948 92.399 207.168 92.9058C207.388 93.4126 207.712 93.8672 208.12 94.2398C209.79 95.8898 212.68 96.0798 214.87 95.7598C217.06 95.4398 221.24 92.8698 222.13 92.2998C223.08 93.5198 224.03 94.7998 224.94 96.1898C226.613 98.6874 228.062 101.328 229.27 104.08C229.34 104.24 229.39 104.41 229.46 104.57C229.07 104.11 226.73 101.76 226.55 101.57C224.24 99.7098 218.68 97.4798 215.9 99.3098C215.447 99.6258 215.066 100.034 214.781 100.507C214.496 100.98 214.315 101.508 214.248 102.056C214.181 102.604 214.23 103.161 214.392 103.688C214.555 104.216 214.827 104.704 215.19 105.12C216.68 106.94 219.52 107.45 221.73 107.37C224.29 107.28 229.31 104.74 229.5 104.65C230.633 107.424 231.582 110.27 232.34 113.17C232.91 115.31 233.41 117.51 233.88 119.71C233.36 119.13 231.19 116.94 231.01 116.8C228.7 114.94 223.14 112.71 220.36 114.54C219.907 114.856 219.526 115.264 219.241 115.737C218.956 116.21 218.775 116.738 218.708 117.286C218.641 117.834 218.69 118.391 218.852 118.919C219.015 119.446 219.287 119.934 219.65 120.35C221.14 122.17 223.98 122.68 226.19 122.6C228.69 122.51 233.51 120.1 233.92 119.9C234.14 120.9 234.35 121.9 234.56 122.9C235.24 126.18 235.91 129.48 236.66 132.71C236.92 133.83 237.22 134.92 237.52 136.02C236.7 135.17 235.19 133.65 235.05 133.53C232.74 131.68 227.17 129.45 224.4 131.27C223.947 131.586 223.566 131.994 223.281 132.467C222.996 132.94 222.815 133.468 222.748 134.016C222.681 134.564 222.73 135.121 222.892 135.648C223.055 136.176 223.327 136.664 223.69 137.08C225.17 138.9 228.02 139.42 230.23 139.33C232.44 139.24 236.56 137.33 237.71 136.75C238.21 138.57 238.71 140.37 239.37 142.11C239.65 142.86 239.89 143.64 240.2 144.34L240.67 145.45L240.03 145.39C240.03 145.39 240.03 146.39 240.08 148.12C237.64 146.38 234.08 144.88 231.83 145.94C231.335 146.184 230.898 146.529 230.545 146.953C230.193 147.378 229.934 147.871 229.785 148.403C229.636 148.934 229.6 149.49 229.68 150.036C229.76 150.581 229.955 151.104 230.25 151.57C230.399 151.821 230.57 152.058 230.76 152.28C231.203 154.843 232.291 157.252 233.92 159.28C234.04 159.43 235.7 160.96 236.57 161.72C235.73 161.27 234.9 160.82 234.04 160.34C232.79 159.64 231.5 158.87 230.24 158.13L228.3 156.9C227.64 156.49 227.05 156.03 226.41 155.59C225.49 154.92 224.57 154.19 223.66 153.46C224.44 152.24 226.66 148.6 226.99 146.46C227.32 144.32 227.13 141.38 225.5 139.7C225.131 139.289 224.679 138.96 224.174 138.735C223.669 138.51 223.123 138.394 222.57 138.394C222.017 138.394 221.471 138.51 220.966 138.735C220.461 138.96 220.01 139.289 219.64 139.7C217.51 142.25 219.09 148.03 220.64 150.54C220.64 150.62 221.08 151.12 221.55 151.7C220.68 150.96 219.8 150.23 218.94 149.45C216.5 147.25 214.08 144.92 211.65 142.61L210.12 141.17C210.78 140.17 213.23 136.17 213.57 134C213.91 131.83 213.72 128.92 212.08 127.24C211.711 126.83 211.259 126.503 210.756 126.279C210.252 126.055 209.706 125.94 209.155 125.94C208.604 125.94 208.058 126.055 207.555 126.279C207.051 126.503 206.599 126.83 206.23 127.24C204.1 129.79 205.67 135.57 207.23 138.08C207.29 138.17 207.76 138.76 208.28 139.42C206.95 138.18 205.59 136.96 204.22 135.79C201.866 133.773 199.381 131.916 196.78 130.23C197.02 129.87 199.98 125.33 200.35 122.86C200.69 120.66 200.5 117.78 198.87 116.1C198.496 115.697 198.042 115.376 197.538 115.156C197.034 114.936 196.49 114.823 195.94 114.823C195.39 114.823 194.846 114.936 194.342 115.156C193.838 115.376 193.384 115.697 193.01 116.1C190.88 118.65 192.46 124.43 194.01 126.94C194.12 127.12 195.82 129.24 196.46 129.94L196.37 129.88C193.775 128.289 191.044 126.93 188.21 125.82C185.682 124.817 183.098 123.962 180.47 123.26C178.04 122.58 175.77 122.11 173.76 121.71C172.68 121.5 171.68 121.33 170.76 121.18H170.82C170.82 121.18 167.48 118.94 167.25 118.83C164.59 117.51 158.68 116.52 156.36 118.9C155.986 119.306 155.702 119.787 155.526 120.31C155.35 120.833 155.285 121.388 155.337 121.937C155.389 122.487 155.556 123.02 155.827 123.501C156.098 123.982 156.467 124.401 156.91 124.73C158.75 126.19 161.63 126.08 163.78 125.53C165.93 124.98 169.69 122.07 170.61 121.35C171.61 121.52 172.61 121.72 173.74 121.96C175.74 122.4 177.98 122.96 180.39 123.65C181.03 123.84 181.71 124.08 182.39 124.29C181.19 124.16 179.55 124.01 179.39 124.01C176.39 124.01 170.72 125.91 169.76 129.09C169.614 129.622 169.582 130.18 169.666 130.726C169.75 131.271 169.947 131.793 170.247 132.258C170.546 132.722 170.939 133.118 171.402 133.42C171.864 133.722 172.385 133.923 172.93 134.01C175.23 134.46 177.75 133.01 179.4 131.55C181.05 130.09 183.12 125.63 183.55 124.66C185.01 125.16 186.55 125.66 188.03 126.36C190.814 127.515 193.492 128.914 196.03 130.54C196.17 130.64 196.31 130.76 196.46 130.85C195.88 130.69 192.63 130.01 192.4 129.99C189.4 129.71 183.57 130.92 182.27 133.99C182.068 134.503 181.976 135.054 182 135.605C182.024 136.156 182.163 136.697 182.409 137.191C182.655 137.685 183.002 138.121 183.428 138.473C183.854 138.824 184.348 139.082 184.88 139.23C187.12 139.93 189.78 138.78 191.58 137.5C193.66 136.01 196.45 131.12 196.58 130.94C199.05 132.632 201.409 134.483 203.64 136.48C205.31 137.95 206.93 139.48 208.54 141.09C207.78 140.89 204.76 140.26 204.54 140.24C201.54 139.97 195.72 141.18 194.41 144.24C194.208 144.753 194.116 145.304 194.14 145.855C194.164 146.406 194.303 146.947 194.549 147.441C194.795 147.935 195.142 148.371 195.568 148.723C195.994 149.074 196.488 149.332 197.02 149.48C199.26 150.18 201.92 149.04 203.72 147.75C205.72 146.3 208.45 141.62 208.72 141.23L210.92 143.38C213.3 145.75 215.67 148.13 218.08 150.38C218.92 151.17 219.77 151.92 220.62 152.67C219.48 152.41 217.38 151.97 217.19 151.96C214.24 151.68 208.37 152.89 207.06 155.96C206.858 156.474 206.766 157.025 206.791 157.577C206.815 158.129 206.956 158.669 207.203 159.163C207.45 159.658 207.798 160.094 208.225 160.445C208.652 160.796 209.147 161.053 209.68 161.2C211.92 161.89 214.57 160.75 216.37 159.47C218.17 158.19 220.54 154.29 221.19 153.19C222.61 154.43 224.05 155.63 225.53 156.74C226.18 157.21 226.81 157.74 227.45 158.14L229.36 159.41C230.69 160.24 231.93 161.01 233.19 161.75L235.05 162.82C233.93 162.38 232.14 161.72 231.97 161.68C229.09 160.96 223.11 161.26 221.35 164.09C221.073 164.567 220.9 165.097 220.841 165.645C220.781 166.193 220.838 166.748 221.007 167.273C221.176 167.798 221.453 168.282 221.82 168.693C222.188 169.104 222.637 169.433 223.14 169.66C225.25 170.66 228.05 169.96 230.02 168.96C232.2 167.86 235.48 163.8 235.88 163.3C237.41 164.17 238.88 165 240.31 165.75C244.08 167.75 247.31 169.38 249.91 170.57C258.2 177.74 269.91 178.57 269.91 178.57C269.91 178.57 270.53 164.57 262.3 155.41C259.376 152.351 255.811 149.977 251.86 148.46ZM237.06 162.08C237.32 161.5 239.3 157.08 239.44 154.56C239.9 154.48 240.37 154.38 240.82 154.28C241.659 158.693 243.41 162.882 245.96 166.58C244.45 165.86 242.82 165.07 241.09 164.19C239.8 163.53 238.45 162.82 237.06 162.08Z" fill="white"/>
<path d="M313 145.78C313 145.78 299 146.21 290.47 155.1C281.94 163.99 282 178 282 178C282 178 296 177.57 304.53 168.68C313.06 159.79 313 145.78 313 145.78Z" fill="white"/>
</g>
<path d="M276.47 154.79L290.19 142.45L289.61 141.79L276.46 153.61L276.39 137.44L276.46 137.49L288.07 120.51L287.35 120.01L276.38 136.04L276.22 97.1196L275.34 97.1296L275.45 123.54L266.71 115.98L266.14 116.64L275.46 124.71L275.54 143.59L262.29 131.88L261.71 132.53L275.54 144.77L275.62 161.97L265.66 154.16L265.12 154.85L275.62 163.09L275.67 174.16H276.55L276.46 154.78L276.47 154.79Z" fill="white"/>
<path d="M263.82 159.55L262.95 159.45L261.84 169.22L255.95 162.64H255.96L254.46 150.81L253.59 150.92L254.93 161.5L240.28 145.12L239.62 145.71L249.56 156.82L243.27 156.9L243.28 157.78L250.34 157.69L257.31 165.48L247.47 165.49V166.37L258.1 166.36L264.43 173.44L257.49 173.86L257.55 174.74L265.18 174.28L269.4 179L270.06 178.41L262.63 170.1L263.82 159.55Z" fill="white"/>
<path d="M296.99 163.03L308.67 160.66L308.5 159.8L298.05 161.92L313.29 146.09L312.65 145.48L302.31 156.22L301.77 149.95L300.89 150.03L301.5 157.06L294.25 164.59L293.51 154.78L292.63 154.85L293.43 165.44L286.84 172.29L285.91 165.4L285.04 165.52L286.06 173.1L281.67 177.66L282.31 178.27L290.04 170.24L300.65 170.65L300.69 169.77L290.86 169.39L296.99 163.02V163.03Z" fill="white"/>
<path d="M162.58 298.69C163.37 302.62 172.81 304.2 172.81 304.2L179.81 300.2C182.74 324.8 185.34 344.88 186.21 346.63C188.57 351.35 205.88 345.06 207.45 337.19C208.09 334.01 204.99 312.56 201.08 288.14L225.54 274.26C225.54 274.26 226.61 270.75 219 272.11C216.34 272.59 208.58 275.48 199.64 279.22C194.14 245.52 187.78 209.76 187.78 209.76C187.78 209.76 271.16 300.22 275.1 300.22C279.04 300.22 284.54 299.44 282.18 292.36C279.82 285.28 187.78 197.18 187.78 197.18C187.78 197.18 172.05 196.39 168.91 203.47C168.91 203.47 173.82 248.99 178.46 288.71C169.25 293.2 162.28 297.19 162.58 298.69Z" fill="#263238"/>
<path d="M348.56 275.5C348.457 271.429 348.052 267.371 347.35 263.36C345.959 255.335 343.402 247.556 339.76 240.27C337.981 236.659 335.946 233.18 333.67 229.86C331.443 226.553 329.005 223.393 326.37 220.4C323.781 217.414 321.012 214.589 318.08 211.94C312.288 206.72 306.021 202.053 299.36 198C272.9 181.93 242.36 174.56 212.12 175C204.558 175.21 197.024 176.019 189.59 177.42C182.147 178.788 174.87 180.94 167.88 183.84C160.932 186.755 154.371 190.52 148.35 195.05C142.396 199.507 136.962 204.619 132.15 210.29C132.064 210.382 132.017 210.504 132.017 210.63C132.017 210.756 132.064 210.878 132.15 210.97C132.196 211.017 132.252 211.054 132.313 211.079C132.374 211.105 132.439 211.118 132.505 211.118C132.571 211.118 132.636 211.105 132.697 211.079C132.758 211.054 132.814 211.017 132.86 210.97C137.9 205.689 143.519 200.993 149.61 196.97C155.652 192.876 162.174 189.541 169.03 187.04C182.76 182.04 197.47 180.15 212.03 180.29C226.653 180.509 241.182 182.682 255.23 186.75C269.295 190.744 282.709 196.745 295.06 204.57C307.29 212.46 318.32 222.44 326.32 234.57C328.332 237.594 330.123 240.759 331.68 244.04C334.838 250.577 337.024 257.541 338.17 264.71C338.744 268.292 339.055 271.912 339.1 275.54C339.137 279.165 338.943 282.789 338.52 286.39C338.25 288.18 338 289.97 337.65 291.75L337.04 294.39L336.74 295.71L336.35 297.01C334.317 303.971 331.253 310.587 327.26 316.64C319.26 328.74 307.89 338.43 295.31 345.64C282.606 352.814 268.814 357.861 254.48 360.58C240.144 363.36 225.5 364.201 210.94 363.08C209.11 363 207.3 362.75 205.49 362.59C204.58 362.49 203.67 362.41 202.77 362.3L200.07 361.89C198.27 361.59 196.46 361.39 194.68 361.01L189.38 360C188.486 359.822 187.601 359.598 186.73 359.33L184.1 358.6C182.34 358.11 180.58 357.65 178.87 357.02L173.7 355.25L168.63 353.2C167.79 352.85 166.94 352.52 166.11 352.15L163.64 351C162 350.2 160.33 349.47 158.72 348.62C155.53 346.85 152.28 345.19 149.24 343.17L146.93 341.72L145.77 340.99L144.66 340.2L140.21 337C138.72 335.94 137.35 334.73 135.92 333.6L133.8 331.88C133.08 331.32 132.44 330.66 131.8 330.06L127.8 326.36L124 322.39C123.38 321.72 122.73 321.09 122.14 320.39L120.39 318.29L118.64 316.19C118.07 315.48 117.45 314.81 116.95 314.05L113.77 309.61L112.97 308.5L112.26 307.33L110.8 305C108.916 301.886 107.191 298.678 105.63 295.39C102.577 288.781 100.454 281.781 99.32 274.59C98.2615 267.386 98.2986 260.063 99.43 252.87C100.571 245.663 102.68 238.643 105.7 232C108.744 225.368 112.496 219.085 116.89 213.26C125.768 201.624 136.518 191.543 148.7 183.43C148.808 183.36 148.884 183.251 148.912 183.126C148.94 183 148.918 182.869 148.85 182.76C148.782 182.648 148.672 182.568 148.545 182.536C148.418 182.504 148.283 182.524 148.17 182.59C141.792 186.378 135.717 190.654 130 195.38C124.257 200.181 118.965 205.496 114.19 211.26C109.329 217.098 105.152 223.473 101.74 230.26C98.2635 237.165 95.7373 244.508 94.23 252.09C92.7599 259.805 92.4766 267.699 93.39 275.5C94.3787 283.32 96.4449 290.966 99.53 298.22C102.647 305.375 106.519 312.177 111.08 318.51C111.61 319.33 112.25 320.06 112.84 320.83L114.66 323.12L116.47 325.4C117.09 326.15 117.77 326.85 118.41 327.57L122.35 331.87L126.54 335.87C127.25 336.53 127.92 337.24 128.66 337.87L130.88 339.75C132.37 340.98 133.8 342.3 135.35 343.46L140 347L141.17 347.87L142.37 348.67L144.8 350.27C147.98 352.5 151.42 354.27 154.8 356.27C156.5 357.19 158.26 358 159.99 358.88L162.6 360.16C163.48 360.57 164.38 360.93 165.27 361.31L170.63 363.57L176.12 365.57C177.94 366.27 179.81 366.79 181.68 367.34L184.48 368.16C185.41 368.44 186.35 368.71 187.31 368.91L193.01 370.22C194.92 370.66 196.87 370.91 198.8 371.22L201.7 371.7C202.7 371.84 203.61 371.93 204.56 372.05C206.47 372.25 208.38 372.54 210.3 372.66C217.976 373.365 225.693 373.505 233.39 373.08C241.11 372.686 248.795 371.767 256.39 370.33C271.802 367.496 286.643 362.148 300.32 354.5C313.97 346.61 326.44 335.88 335.44 322.2C339.936 315.302 343.371 307.768 345.63 299.85L346.06 298.37L346.41 296.86L347.08 293.86C347.47 291.86 347.75 289.78 348.08 287.75C348.531 283.683 348.692 279.59 348.56 275.5Z" fill="#263238"/>
<path d="M210.91 209.76C211.191 210.356 211.635 210.86 212.191 211.214C212.747 211.568 213.391 211.757 214.05 211.76C214.585 211.764 215.112 211.64 215.59 211.4L229.59 204.53L238.76 212.33C239.107 212.648 239.514 212.893 239.958 213.05C240.402 213.208 240.873 213.273 241.343 213.244C241.813 213.215 242.272 213.091 242.693 212.881C243.114 212.67 243.488 212.376 243.793 212.018C244.098 211.659 244.327 211.242 244.467 210.793C244.607 210.343 244.655 209.87 244.608 209.402C244.562 208.934 244.421 208.479 244.194 208.067C243.967 207.654 243.66 207.291 243.29 207L236.43 201.16L244.16 197.35C244.577 197.143 244.949 196.855 245.255 196.504C245.561 196.153 245.794 195.745 245.942 195.303C246.09 194.861 246.15 194.395 246.118 193.93C246.086 193.466 245.962 193.012 245.755 192.595C245.548 192.178 245.26 191.806 244.909 191.5C244.557 191.195 244.149 190.961 243.708 190.813C243.266 190.665 242.8 190.605 242.335 190.637C241.871 190.669 241.417 190.793 241 191L230.55 196.15L223.21 189.9C222.503 189.298 221.586 189.002 220.661 189.076C219.735 189.15 218.877 189.588 218.275 190.295C217.673 191.002 217.376 191.919 217.45 192.845C217.524 193.77 217.963 194.628 218.67 195.23L223.67 199.52L212.43 205.05C211.604 205.473 210.98 206.207 210.695 207.09C210.41 207.974 210.487 208.934 210.91 209.76Z" fill="#263238"/>
<path opacity="0.3" d="M429 419L363.21 390.26C355.21 383.45 345.74 375.59 344.21 375.2C341.43 374.5 342.82 371.03 347.69 362.68C352.56 354.33 318.26 338.34 309.49 339.19C302.49 339.88 294.15 338.47 291.14 337.89C293.65 330.44 296.24 323.05 296.24 323.05L262.15 308.13L235 266.71L226.52 269.41C226.52 269.41 238.4 296.53 252.33 327.58C247.19 325.94 236.74 323.71 235.7 332.07C234.31 343.19 242.65 351.54 250.99 351.54C255.59 351.54 259.99 351.33 262.99 351.14C278.2 384.61 292.99 415.99 295.51 417.59C301.08 421.07 320.51 425.93 321.24 421.07C321.97 416.21 301.77 380.74 301.77 380.74C301.77 380.74 408.85 423.15 420 423.15C431.15 423.15 429 419 429 419ZM327.5 359.18C327.5 359.18 324.4 368.09 324.85 373.48L306.59 365.48L327.5 359.18ZM278.13 322.33L275.69 328.85L270.11 320.33L278.13 322.33Z" fill="black"/>
<path d="M387.4 203.55C387.4 203.55 389.57 198.93 388.21 195.39C386.85 191.85 361.83 186.14 361.83 186.14C361.83 186.14 356.11 186.14 356.38 189.4C356.65 192.66 377.33 205.18 378.96 206.27C380.59 207.36 386.85 209.81 387.4 203.55Z" fill="white" stroke="#263238" stroke-linecap="round" stroke-linejoin="round"/>
<path d="M368.9 200.83C369.674 199.46 370.727 198.267 371.992 197.33C373.256 196.393 374.704 195.732 376.24 195.39C381.41 194.3 388.24 197.84 389.03 203.55C389.82 209.26 385.49 211.98 382.77 211.98C380.05 211.98 377.6 208.17 377.6 208.17C377.6 208.17 368.9 204.91 368.9 200.83Z" fill="white" stroke="#263238" stroke-linecap="round" stroke-linejoin="round"/>
<path d="M362.2 227.68C363.246 230.18 364.837 232.414 366.858 234.219C368.879 236.024 371.278 237.353 373.88 238.11C383.06 241.03 400.16 236.86 410.17 238.11L417.67 246.04L406 253.54C397.379 250.69 388.605 248.323 379.72 246.45C365.86 243.6 357.2 230.6 357.2 230.6L362.2 227.68Z" fill="#263238"/>
<path d="M232.07 265.55L226.53 269.41L229.18 271.33L233.52 269.89L232.07 265.55Z" fill="#263238" stroke="#263238" stroke-linecap="round" stroke-linejoin="round"/>
<path d="M357.93 172.73C357.93 172.73 355.55 171.86 353.39 170.78C351.23 169.7 353.6 174.67 354.47 174.89C355.34 175.11 357.47 175.54 357.47 175.54L357.93 172.73Z" fill="white" stroke="#263238" stroke-linecap="round" stroke-linejoin="round"/>
<path d="M241.86 250.56L231.12 264.83C230.748 265.321 230.521 265.906 230.465 266.519C230.408 267.132 230.524 267.749 230.8 268.3C231.119 268.937 231.634 269.454 232.27 269.775C232.906 270.095 233.628 270.202 234.33 270.08L249.91 267.37L418.44 170.48C420.368 169.357 422.051 167.859 423.389 166.074C424.727 164.289 425.694 162.253 426.231 160.088C426.768 157.923 426.865 155.671 426.516 153.468C426.167 151.264 425.38 149.153 424.2 147.26C423.028 145.383 421.494 143.759 419.688 142.482C417.882 141.205 415.839 140.3 413.68 139.821C411.52 139.341 409.287 139.297 407.11 139.69C404.933 140.083 402.856 140.905 401 142.11L241.86 250.56Z" fill="#ADD9C8" stroke="#263238" stroke-linecap="round" stroke-linejoin="round"/>
<path d="M401 142.11L356.08 173.11C356.5 180.89 359.84 191.19 373.45 195.74L418.45 170.45C420.425 169.361 422.158 167.883 423.545 166.104C424.932 164.326 425.943 162.284 426.517 160.103C427.092 157.922 427.218 155.648 426.887 153.417C426.556 151.186 425.776 149.045 424.593 147.125C423.411 145.205 421.851 143.544 420.008 142.245C418.165 140.945 416.077 140.033 413.871 139.564C411.665 139.095 409.387 139.079 407.174 139.517C404.962 139.954 402.861 140.837 401 142.11Z" fill="#263238" stroke="#263238" stroke-linecap="round" stroke-linejoin="round"/>
<path d="M230.8 268.3C231.119 268.937 231.634 269.454 232.27 269.775C232.906 270.096 233.628 270.203 234.33 270.08L249.91 267.37C237.31 262.47 241.91 250.56 241.91 250.56L231.17 264.83C230.79 265.316 230.554 265.899 230.489 266.512C230.423 267.125 230.531 267.745 230.8 268.3Z" fill="#ADD9C8" stroke="#263238" stroke-linecap="round" stroke-linejoin="round"/>
<path d="M344.11 177.7C344.11 177.7 341.69 177.7 341.69 178.8C341.69 179.9 341.06 183.8 342.46 183.69C343.86 183.58 343.73 181.12 343.85 180.26C343.97 179.4 344.11 177.7 344.11 177.7Z" fill="white" stroke="#263238" stroke-linecap="round" stroke-linejoin="round"/>
<path d="M346.76 173.71C346.76 173.71 344.59 173.05 344.1 174.38C343.61 175.71 343.1 182.02 344.59 181.86C346.08 181.7 346.42 176 346.76 173.71Z" fill="white" stroke="#263238" stroke-linecap="round" stroke-linejoin="round"/>
<path d="M350.08 174.05C350.08 174.05 347.59 171.89 346.76 173.71C345.93 175.53 345.76 180.71 346.76 180.71C347.76 180.71 349.25 178.55 349.58 177.39C349.829 176.291 349.996 175.174 350.08 174.05Z" fill="white" stroke="#263238" stroke-linecap="round" stroke-linejoin="round"/>
<path d="M353.57 175C353.57 175 350.41 172.34 349.91 172.84C349.41 173.34 347.42 178.46 348.91 179.49C350.4 180.52 352.3 175.93 352.3 175.93L353.57 175Z" fill="white" stroke="#263238" stroke-linecap="round" stroke-linejoin="round"/>
<path d="M313.91 199.66C313.91 199.66 314.26 205 315.68 206.24C316.537 206.988 317.315 207.822 318 208.73C318.191 210.086 318.308 211.451 318.35 212.82C318.35 214.42 319.42 214.25 320.35 214.25C321.28 214.25 322.84 217.25 323.73 218.69C324.7 220.005 326.001 221.04 327.5 221.69C329.1 222.57 331.76 219.2 331.76 219.2L335.28 225.05L347.91 216.87L341.69 204.78C341.323 200.586 340.046 196.521 337.95 192.87C334.4 186.47 329.59 182.87 321.59 185.22C313.59 187.57 313.91 199.66 313.91 199.66Z" fill="white" stroke="#263238" stroke-linecap="round" stroke-linejoin="round"/>
<path d="M334 221.54L328.59 216.1" stroke="#263238" stroke-linecap="round" stroke-linejoin="round"/>
<path d="M324.66 205.9C324.136 206.245 323.522 206.429 322.895 206.429C322.268 206.429 321.654 206.245 321.13 205.9C320.112 205.214 319.289 204.276 318.74 203.177C318.192 202.078 317.937 200.857 318 199.63C318 196.88 314.47 198.06 314.47 198.06C314.47 198.06 310.54 202.37 307.8 200.8C305.06 199.23 303.48 196.1 311.33 186.29C319.18 176.48 326.63 176.88 332.9 180.8C339.17 184.72 341.65 204.8 341.65 204.8C341.65 204.8 341.53 208.63 336.43 209.8C331.33 210.97 324.66 209.82 324.66 205.9Z" fill="#263238" stroke="#263238" stroke-linecap="round" stroke-linejoin="round"/>
<path d="M323.69 209.27C323.69 209.27 321.91 202.51 324.75 203.4C327.59 204.29 329.2 210.33 329.02 211.04C328.84 211.75 327.42 212.11 326.71 211.93" fill="white"/>
<path d="M323.69 209.27C323.69 209.27 321.91 202.51 324.75 203.4C327.59 204.29 329.2 210.33 329.02 211.04C328.84 211.75 327.42 212.11 326.71 211.93" stroke="#263238" stroke-linecap="round" stroke-linejoin="round"/>
<path d="M344.24 211.72C340.922 213.579 337.753 215.692 334.76 218.04C331.76 220.71 329.07 228.71 329.07 228.71C329.07 228.71 347.39 216.26 350.59 214.48C353.79 212.7 354.5 211.82 354.5 211.82C354.5 211.82 347.8 210.83 344.24 211.72Z" fill="white" stroke="#263238" stroke-linecap="round" stroke-linejoin="round"/>
<path d="M299.11 259.52C299.11 259.52 293.93 257.12 287.95 253.93C281.97 250.74 275.59 247.16 275.59 247.16C273.87 246.949 272.13 246.949 270.41 247.16C267.396 247.911 264.331 248.443 261.24 248.75C259.24 248.75 258.05 250.75 259.24 251.54C260.43 252.33 266.82 251.54 266.82 251.54L256.82 256.33C256.82 256.33 255.63 258.72 258.42 258.72C261.21 258.72 262.42 258.32 265.59 258.72C268.76 259.12 275.16 255.13 275.16 255.13C275.16 255.13 292.04 274.58 295.96 274.82C299.88 275.06 307.89 265.9 299.11 259.52Z" fill="white" stroke="#263238" stroke-linecap="round" stroke-linejoin="round"/>
<path d="M304.43 255.78C304.43 255.78 295.72 258.23 294.09 262.04C292.46 265.85 292.73 271.56 295.99 274.82C299.25 278.08 300.62 278.9 304.15 277.54C307.68 276.18 308.51 274.01 308.78 271.83C309.05 269.65 311 262.31 304.43 255.78Z" fill="white" stroke="#263238" stroke-linecap="round" stroke-linejoin="round"/>
<path d="M420.91 408.88C420.209 410.023 419.575 411.204 419.01 412.42C418.74 413.24 412.75 414.05 413.57 416.77C414.39 419.49 420.64 421.67 423.64 421.94C426.64 422.21 432.64 418.13 433.7 417.04C434.34 416.4 435.3 412.18 434.79 408.88C434.455 407.344 433.7 405.932 432.61 404.8C432.61 404.8 427.44 396.91 420.91 408.88Z" fill="white" stroke="#263238" stroke-linecap="round" stroke-linejoin="round"/>
<path d="M434.79 408.88C434.51 407.502 433.872 406.223 432.94 405.17C431.814 405.177 430.7 405.413 429.669 405.865C428.637 406.318 427.708 406.976 426.94 407.8C424.22 411.06 425.58 418.4 422.31 419.49C419.88 420.3 415.63 417.33 413.63 415.77C413.519 416.094 413.519 416.446 413.63 416.77C414.45 419.49 420.7 421.67 423.7 421.94C426.7 422.21 432.7 418.13 433.76 417.04C434.34 416.4 435.3 412.18 434.79 408.88Z" fill="white" stroke="#263238" stroke-linecap="round" stroke-linejoin="round"/>
<path d="M427.72 410.79C426.63 415.68 427.99 418.95 423.64 421.94C426.64 422.21 432.64 418.13 433.7 417.04C434.34 416.4 435.3 412.18 434.79 408.88C434.673 408.202 434.447 407.546 434.12 406.94H433.7C433.7 406.94 428.8 405.89 427.72 410.79Z" fill="#263238" stroke="#263238" stroke-linecap="round" stroke-linejoin="round"/>
<path d="M411.25 372.7C407.17 364.54 390.66 342.56 390.66 342.56C390.66 342.56 383.05 294.97 382.77 291.69C382.25 285.41 378.22 275.93 378.22 275.93C378.22 275.93 365.09 273.19 340.06 287.88L340.33 296.04L357.78 317.56C358.62 316.87 359.11 316.45 359.11 316.45C359.11 316.45 370.26 344.45 372.71 349.91C375.16 355.37 387.25 374.7 393.25 378.7C396.59 380.93 420.91 408.88 420.91 408.88C420.91 408.88 425.54 404.8 428.53 404.8H432.61C432.61 404.8 415.33 380.86 411.25 372.7Z" fill="#263238" stroke="#263238" stroke-linecap="round" stroke-linejoin="round"/>
<g opacity="0.35">
<path d="M415.76 397.39C419.08 401.58 421.27 404.71 421.27 404.71" stroke="white" stroke-linecap="round" stroke-linejoin="round"/>
<path d="M366.08 319.35C366.08 319.35 370.39 330.56 376 343.49C381.61 356.42 388.5 371.95 398.85 379.71C403.22 382.98 407.85 387.95 411.85 392.59" stroke="white" stroke-linecap="round" stroke-linejoin="round"/>
<path d="M377.88 308.01L359.11 316.44L379.02 315.47" stroke="white" stroke-linecap="round" stroke-linejoin="round"/>
</g>
<path d="M374.61 198.93C369.99 199.47 358.02 207.63 357.2 208.45C356.38 209.27 353.12 211.17 351.76 212.26C351.76 212.26 323.76 229.67 321.29 231.26C318.82 232.85 313.95 236.15 314.22 237.26C314.49 238.37 299.8 262.26 299.8 262.26C299.8 262.26 295.45 267.97 299.53 273.14C303.61 278.31 307.42 274.77 309.32 273.69C311.22 272.61 326.19 258.45 326.19 258.45L340 291.45C340 291.45 359.12 278.63 379.52 279.45L365.92 226.13C365.92 226.13 384.69 211.98 385.23 207.13C385.77 202.28 379.24 198.38 374.61 198.93Z" fill="white"/>
<mask id="mask0_4_1109" style="mask-type:luminance" maskUnits="userSpaceOnUse" x="297" y="198" width="89" height="94">
<path d="M374.61 198.93C369.99 199.47 358.02 207.63 357.2 208.45C356.38 209.27 353.12 211.17 351.76 212.26C351.76 212.26 323.76 229.67 321.29 231.26C318.82 232.85 313.95 236.15 314.22 237.26C314.49 238.37 299.8 262.26 299.8 262.26C299.8 262.26 295.45 267.97 299.53 273.14C303.61 278.31 307.42 274.77 309.32 273.69C311.22 272.61 326.19 258.45 326.19 258.45L340 291.45C340 291.45 359.12 278.63 379.52 279.45L365.92 226.13C365.92 226.13 384.69 211.98 385.23 207.13C385.77 202.28 379.24 198.38 374.61 198.93Z" fill="white"/>
</mask>
<g mask="url(#mask0_4_1109)">
<path d="M374.61 198.93C372.76 199.14 369.73 200.58 366.71 202.29C367.399 202.157 368.112 202.231 368.759 202.501C369.406 202.772 369.96 203.227 370.35 203.81C372.6 206.7 367.78 216 367.78 216C367.78 216 365.78 203.14 365.86 207C365.94 210.86 364.86 222.72 364.86 222.72C364.86 222.72 358.44 215.02 358.76 216.95C359.08 218.88 363.25 236.84 365.82 243.58C368.39 250.32 363.89 269.25 361.33 274.71C358.77 280.17 360.33 251.61 357.48 258.66C354.63 265.71 345 285.32 342.75 287.25C340.5 289.18 343.47 261.08 344.27 257.42C343.27 260.48 336.66 279.86 336.66 279.86L327.66 256.76C327.66 256.76 312.26 244.24 313.86 246.49C315.46 248.74 319.32 255.8 319.32 255.8C319.32 255.8 310.01 253.87 311.62 254.51C313.23 255.15 320.28 258.68 320.28 258.68C320.28 258.68 305.85 269 301.68 270.24C300.559 270.57 299.406 270.781 298.24 270.87C298.541 271.708 298.977 272.492 299.53 273.19C303.61 278.36 307.42 274.82 309.32 273.74C311.22 272.66 326.19 258.5 326.19 258.5L340 291.45C340 291.45 359.12 278.63 379.52 279.45L365.92 226.13C365.92 226.13 384.69 211.98 385.23 207.13C385.77 202.28 379.24 198.38 374.61 198.93Z" fill="#ADD9C8"/>
<path opacity="0.5" d="M374.61 198.93C372.76 199.14 369.73 200.58 366.71 202.29C367.399 202.157 368.112 202.231 368.759 202.501C369.406 202.772 369.96 203.227 370.35 203.81C372.6 206.7 367.78 216 367.78 216C367.78 216 365.78 203.14 365.86 207C365.94 210.86 364.86 222.72 364.86 222.72C364.86 222.72 358.44 215.02 358.76 216.95C359.08 218.88 363.25 236.84 365.82 243.58C368.39 250.32 363.89 269.25 361.33 274.71C358.77 280.17 360.33 251.61 357.48 258.66C354.63 265.71 345 285.32 342.75 287.25C340.5 289.18 343.47 261.08 344.27 257.42C343.27 260.48 336.66 279.86 336.66 279.86L327.66 256.76C327.66 256.76 312.26 244.24 313.86 246.49C315.46 248.74 319.32 255.8 319.32 255.8C319.32 255.8 310.01 253.87 311.62 254.51C313.23 255.15 320.28 258.68 320.28 258.68C320.28 258.68 305.85 269 301.68 270.24C300.559 270.57 299.406 270.781 298.24 270.87C298.541 271.708 298.977 272.492 299.53 273.19C303.61 278.36 307.42 274.82 309.32 273.74C311.22 272.66 326.19 258.5 326.19 258.5L340 291.45C340 291.45 359.12 278.63 379.52 279.45L365.92 226.13C365.92 226.13 384.69 211.98 385.23 207.13C385.77 202.28 379.24 198.38 374.61 198.93Z" fill="white"/>
</g>
<path d="M374.61 198.93C369.99 199.47 358.02 207.63 357.2 208.45C356.38 209.27 353.12 211.17 351.76 212.26C351.76 212.26 323.76 229.67 321.29 231.26C318.82 232.85 313.95 236.15 314.22 237.26C314.49 238.37 299.8 262.26 299.8 262.26C299.8 262.26 295.45 267.97 299.53 273.14C303.61 278.31 307.42 274.77 309.32 273.69C311.22 272.61 326.19 258.45 326.19 258.45L340 291.45C340 291.45 359.12 278.63 379.52 279.45L365.92 226.13C365.92 226.13 384.69 211.98 385.23 207.13C385.77 202.28 379.24 198.38 374.61 198.93Z" stroke="#263238" stroke-linecap="round" stroke-linejoin="round"/>
<path d="M340 291.45C339.196 283.953 339.581 276.377 341.14 269L340 291.45Z" fill="white"/>
<path d="M340 291.45C339.196 283.953 339.581 276.377 341.14 269" stroke="#263238" stroke-linecap="round" stroke-linejoin="round"/>
<path d="M337.41 274.78C337.41 274.78 337.41 270.18 342.58 255.78L337.41 274.78Z" fill="white"/>
<path d="M337.41 274.78C337.41 274.78 337.41 270.18 342.58 255.78" stroke="#263238" stroke-linecap="round" stroke-linejoin="round"/>
<path d="M315.58 246.53L326.19 258.5L315.31 250.61" fill="white"/>
<path d="M315.58 246.53L326.19 258.5L315.31 250.61" stroke="#263238" stroke-linecap="round" stroke-linejoin="round"/>
<path d="M365.91 210.9V226.13L369.44 206.54" fill="white"/>
<path d="M365.91 210.9V226.13L369.44 206.54" stroke="#263238" stroke-linecap="round" stroke-linejoin="round"/>
<path d="M344.36 257.08C344.319 257.19 344.288 257.304 344.27 257.42C344.39 257.05 344.43 256.91 344.36 257.08Z" fill="#263238"/>
<path d="M350.58 191.87C349.83 191.875 349.098 191.64 348.492 191.198C347.886 190.756 347.438 190.131 347.214 189.415C346.99 188.7 347.002 187.931 347.248 187.222C347.494 186.514 347.961 185.903 348.58 185.48L388.91 157.82C389.289 157.557 389.716 157.372 390.166 157.274C390.617 157.176 391.082 157.168 391.536 157.251C391.989 157.333 392.422 157.503 392.81 157.753C393.198 158.003 393.532 158.326 393.795 158.705C394.058 159.084 394.243 159.511 394.341 159.961C394.438 160.412 394.446 160.877 394.364 161.331C394.282 161.784 394.111 162.217 393.862 162.605C393.612 162.992 393.289 163.327 392.91 163.59L352.58 191.26C351.991 191.662 351.293 191.875 350.58 191.87Z" fill="#263238"/>
<path d="M361.05 186.03L392.41 164.45" stroke="white" stroke-linecap="round" stroke-linejoin="round"/>
<path d="M357.51 179.45L388.87 157.88" stroke="white" stroke-linecap="round" stroke-linejoin="round"/>
<path d="M340.33 296C340.33 296 310.12 331.13 309.46 339.13C308.8 347.13 314.79 355.13 322.12 357.13C329.45 359.13 400.91 360.72 400.91 360.72L400.24 347.39L336.79 337.8L357.79 317.52" fill="#263238"/>
<path d="M340.33 296C340.33 296 310.12 331.13 309.46 339.13C308.8 347.13 314.79 355.13 322.12 357.13C329.45 359.13 400.91 360.72 400.91 360.72L400.24 347.39L336.79 337.8L357.79 317.52" stroke="#263238" stroke-linecap="round" stroke-linejoin="round"/>
<g opacity="0.35">
<path d="M387.55 353.29L392.38 353.84" stroke="white" stroke-linecap="round" stroke-linejoin="round"/>
<path d="M319.61 336.57L318.23 338.32C318.23 338.32 326.85 337.89 325.13 339.61C323.987 340.961 323.24 342.601 322.97 344.35L328.14 343.06C328.14 343.06 325.14 349.06 327.28 348.67C328.918 348.267 330.507 347.686 332.02 346.94L382.02 352.65" stroke="white" stroke-linecap="round" stroke-linejoin="round"/>
<path d="M348.41 290C348.41 290 340.21 295.61 344.1 296.47C347.99 297.33 352.72 296.04 351.42 297.76C349.534 299.87 347.53 301.874 345.42 303.76L326.17 328.2" stroke="white" stroke-linecap="round" stroke-linejoin="round"/>
<path d="M344.1 296.5C344.1 296.5 348.84 289.6 359.62 289.17" stroke="white" stroke-linecap="round" stroke-linejoin="round"/>
</g>
<path d="M398.86 347.27C398.86 347.27 406.37 345.56 407.74 347.95C409.11 350.34 409.79 356.14 409.79 358.87C409.79 361.6 411.79 366.04 411.49 370.14C411.19 374.24 405.01 378.67 402.96 378.67C400.91 378.67 400.96 366.38 398.86 361.6C396.76 356.82 396.48 350 398.86 347.27Z" fill="white" stroke="#263238" stroke-linecap="round" stroke-linejoin="round"/>
<path d="M403.6 378.56C406.06 377.88 411.18 373.87 411.49 370.14C411.84 366.04 409.79 361.6 409.79 358.87C409.79 356.14 409.1 350.34 407.74 347.95C407.13 346.88 405.29 346.63 403.44 346.68C402.944 347.187 402.573 347.802 402.354 348.477C402.135 349.152 402.076 349.868 402.18 350.57C402.66 354.48 406.57 370.36 405.11 374.76C404.681 376.055 404.176 377.323 403.6 378.56Z" fill="white" stroke="#263238" stroke-linecap="round" stroke-linejoin="round"/>
<path d="M407.74 348C407.37 347.476 406.81 347.117 406.18 347C404.889 348.764 404.265 350.929 404.42 353.11C404.85 359.62 406.16 364.84 406.59 370.48C406.903 372.959 406.518 375.477 405.48 377.75C408.04 376.22 411.25 373.13 411.48 370.2C411.83 366.1 409.78 361.66 409.78 358.93C409.78 356.2 409.1 350.34 407.74 348Z" fill="#263238" stroke="#263238" stroke-linecap="round" stroke-linejoin="round"/>
</svg>
