<svg width="431" height="471" viewBox="0 0 431 471" fill="none" xmlns="http://www.w3.org/2000/svg">
<path d="M213.828 456.465C322.119 456.465 409.907 401.077 409.907 332.752C409.907 264.427 322.119 209.039 213.828 209.039C105.536 209.039 17.7486 264.427 17.7486 332.752C17.7486 401.077 105.536 456.465 213.828 456.465Z" fill="#F5F5F5"/>
<path d="M99.2162 402.705C132.798 402.705 160.022 385.527 160.022 364.337C160.022 343.147 132.798 325.97 99.2162 325.97C65.6342 325.97 38.4107 343.147 38.4107 364.337C38.4107 385.527 65.6342 402.705 99.2162 402.705Z" fill="#E0E0E0"/>
<path d="M207.63 392.447L200.622 388.029V321.75L326.681 242.217L333.68 246.635V312.914L207.63 392.447Z" fill="#ADD9C8"/>
<path opacity="0.2" d="M207.63 392.447L200.622 388.029V321.75L326.681 242.217L333.68 246.635V312.914L207.63 392.447Z" fill="black"/>
<path d="M207.63 326.168L333.68 246.635V312.914L207.63 392.447V326.168Z" fill="#ADD9C8"/>
<path d="M277.659 281.988L270.651 277.56C266.469 277.342 262.362 276.271 258.54 274.405C256.572 272.815 254.763 271.002 253.144 268.998C242.481 255.81 253.144 231.176 253.144 231.176L247.48 227.597C225.603 249.14 218.129 276.336 232.137 301.864L239.145 306.282L277.659 281.988Z" fill="#ADD9C8"/>
<path opacity="0.2" d="M277.659 281.988L270.651 277.56C266.469 277.342 262.362 276.271 258.54 274.405C256.572 272.815 254.763 271.002 253.144 268.998C242.481 255.81 253.144 231.176 253.144 231.176L247.48 227.597C225.603 249.14 218.129 276.336 232.137 301.864L239.145 306.282L277.659 281.988Z" fill="black"/>
<path d="M239.145 306.282C225.137 280.754 231.266 252.71 253.144 231.176C253.144 231.176 242.481 255.819 253.144 268.998C256.245 272.821 260.008 275.937 264.215 278.167C268.422 280.396 272.991 281.695 277.659 281.988L239.145 306.282Z" fill="#ADD9C8"/>
<path d="M249.816 338.894C250.344 338.54 250.929 338.3 251.54 338.187C251.986 338.093 252.447 338.195 252.825 338.47C253.238 338.789 253.541 339.25 253.687 339.779C253.904 340.541 254.003 341.337 253.98 342.134C253.987 343.058 253.889 343.979 253.687 344.876C253.494 345.692 253.204 346.478 252.825 347.212C252.129 348.606 251.097 349.765 249.842 350.565L247.946 351.752V356.83C247.947 357.02 247.905 357.207 247.825 357.376C247.768 357.528 247.673 357.659 247.549 357.753L245.61 358.977C245.572 359.014 245.523 359.035 245.472 359.035C245.421 359.035 245.372 359.014 245.334 358.977C245.288 358.925 245.253 358.863 245.232 358.795C245.211 358.726 245.205 358.653 245.213 358.582V342.483C245.213 342.293 245.254 342.106 245.334 341.937C245.394 341.787 245.489 341.657 245.61 341.56L249.816 338.894ZM247.92 347.881L249.739 346.731C250.161 346.461 250.514 346.079 250.764 345.62C251.053 345.088 251.197 344.477 251.178 343.858C251.178 343.161 251.04 342.747 250.764 342.605C250.592 342.547 250.409 342.534 250.231 342.566C250.053 342.599 249.884 342.677 249.739 342.794L247.92 343.943V347.881Z" fill="#455A64"/>
<path d="M262.574 344.273C262.614 344.237 262.664 344.217 262.716 344.217C262.768 344.217 262.818 344.237 262.858 344.273C262.9 344.327 262.931 344.391 262.951 344.458C262.97 344.526 262.977 344.598 262.97 344.669V347.306C262.97 347.495 262.932 347.682 262.858 347.853C262.795 348.003 262.697 348.133 262.574 348.229L255.73 352.553C255.69 352.591 255.64 352.612 255.587 352.612C255.535 352.612 255.484 352.591 255.445 352.553C255.403 352.499 255.372 352.435 255.353 352.368C255.333 352.3 255.327 352.228 255.333 352.157V336.087C255.333 335.898 255.371 335.711 255.445 335.541C255.502 335.386 255.601 335.254 255.73 335.164L257.669 333.939C257.707 333.902 257.756 333.882 257.807 333.882C257.858 333.882 257.907 333.902 257.945 333.939C257.988 333.993 258.021 334.056 258.042 334.124C258.063 334.192 258.071 334.263 258.066 334.335V347.127L262.574 344.273Z" fill="#455A64"/>
<path d="M271.651 338.546C271.69 338.508 271.741 338.487 271.793 338.487C271.845 338.487 271.896 338.508 271.935 338.546C271.977 338.6 272.008 338.663 272.027 338.731C272.047 338.799 272.053 338.87 272.047 338.941V341.579C272.047 341.768 272.009 341.954 271.935 342.125C271.879 342.28 271.779 342.412 271.651 342.502L264.634 346.948C264.595 346.986 264.544 347.007 264.492 347.007C264.439 347.007 264.389 346.986 264.35 346.948C264.308 346.894 264.276 346.831 264.257 346.763C264.238 346.695 264.231 346.623 264.237 346.553V330.463C264.238 330.274 264.276 330.088 264.35 329.917C264.412 329.766 264.511 329.636 264.634 329.54L271.53 325.197C271.568 325.158 271.619 325.135 271.672 325.135C271.725 325.135 271.776 325.158 271.814 325.197C271.858 325.251 271.891 325.314 271.911 325.382C271.932 325.45 271.94 325.522 271.935 325.593V328.231C271.932 328.42 271.891 328.607 271.814 328.777C271.758 328.932 271.658 329.064 271.53 329.154L266.979 332.027V334.712L271.211 332.046C271.25 332.01 271.299 331.991 271.349 331.991C271.399 331.991 271.448 332.01 271.487 332.046C271.531 332.101 271.564 332.165 271.585 332.235C271.606 332.304 271.613 332.378 271.608 332.451V335.079C271.604 335.272 271.563 335.461 271.487 335.635C271.431 335.785 271.335 335.913 271.211 336.002L266.979 338.677V341.456L271.651 338.546Z" fill="#455A64"/>
<path d="M279.219 320.346C279.417 320.214 279.572 320.214 279.676 320.346C279.776 320.463 279.847 320.605 279.883 320.76L283.107 334.41C283.142 334.516 283.162 334.627 283.167 334.74C283.164 334.896 283.132 335.05 283.072 335.192C283.028 335.318 282.946 335.425 282.839 335.493L281.012 336.643C280.814 336.765 280.676 336.784 280.59 336.699C280.513 336.614 280.462 336.506 280.443 336.388L280.021 334.58L276.09 337.066L275.676 339.393C275.648 339.57 275.596 339.742 275.521 339.902C275.427 340.102 275.28 340.266 275.099 340.373L273.237 341.55C273.206 341.58 273.166 341.596 273.125 341.596C273.084 341.596 273.044 341.58 273.013 341.55C272.975 341.508 272.947 341.458 272.929 341.403C272.911 341.347 272.904 341.288 272.909 341.23C272.919 341.09 272.94 340.952 272.97 340.816L276.159 323.106C276.21 322.87 276.282 322.639 276.374 322.418C276.465 322.185 276.622 321.99 276.823 321.863L279.219 320.346ZM276.823 332.724L279.219 331.207L278.021 325.998L276.823 332.724Z" fill="#455A64"/>
<path d="M288.02 314.543C288.541 314.186 289.132 313.966 289.744 313.903C290.219 313.87 290.693 313.98 291.115 314.223C291.482 314.473 291.78 314.828 291.977 315.25C292.194 315.697 292.309 316.194 292.313 316.7C292.311 316.854 292.279 317.005 292.218 317.143C292.174 317.264 292.099 317.368 292.002 317.445L290.063 318.669C289.968 318.743 289.852 318.78 289.735 318.773C289.639 318.757 289.55 318.711 289.477 318.641C289.477 318.641 289.399 318.556 289.33 318.481C289.256 318.396 289.165 318.331 289.063 318.292C288.919 318.241 288.766 318.225 288.615 318.245C288.385 318.293 288.165 318.389 287.968 318.528C287.777 318.642 287.595 318.775 287.425 318.924C287.256 319.067 287.103 319.232 286.968 319.413C286.834 319.594 286.724 319.793 286.641 320.007C286.561 320.229 286.52 320.465 286.52 320.704C286.503 320.896 286.552 321.087 286.658 321.241C286.724 321.3 286.799 321.345 286.881 321.373C286.962 321.4 287.047 321.41 287.132 321.401C287.423 321.389 287.712 321.341 287.994 321.26L289.356 320.874C289.815 320.726 290.292 320.656 290.77 320.666C291.142 320.684 291.499 320.833 291.787 321.09C292.083 321.389 292.293 321.775 292.39 322.202C292.539 322.816 292.605 323.451 292.589 324.086C292.589 324.925 292.475 325.76 292.252 326.563C292.025 327.374 291.703 328.149 291.296 328.871C290.892 329.598 290.405 330.266 289.847 330.859C289.303 331.454 288.689 331.968 288.02 332.385C287.465 332.765 286.842 333.009 286.193 333.101C285.701 333.158 285.204 333.06 284.762 332.818C284.361 332.57 284.034 332.2 283.822 331.754C283.588 331.245 283.467 330.684 283.469 330.115C283.487 329.968 283.531 329.828 283.598 329.7C283.644 329.583 283.719 329.482 283.813 329.408L285.753 328.183C285.851 328.113 285.964 328.071 286.081 328.061C286.166 328.074 286.247 328.113 286.313 328.174L286.494 328.391C286.581 328.497 286.687 328.584 286.805 328.645C286.964 328.724 287.139 328.756 287.313 328.739C287.578 328.706 287.831 328.606 288.055 328.447C288.54 328.15 288.981 327.776 289.365 327.336C289.698 326.974 289.887 326.483 289.891 325.97C289.902 325.876 289.891 325.78 289.857 325.692C289.824 325.604 289.77 325.528 289.701 325.47C289.522 325.373 289.32 325.34 289.123 325.376C288.79 325.409 288.461 325.478 288.141 325.584C287.736 325.697 287.279 325.838 286.727 325.979C286.357 326.141 285.953 326.187 285.56 326.113C285.167 326.038 284.801 325.845 284.503 325.555C283.952 324.686 283.702 323.631 283.796 322.579C283.803 321.827 283.902 321.079 284.089 320.355C284.493 318.771 285.231 317.313 286.244 316.098C286.756 315.479 287.356 314.954 288.02 314.543Z" fill="#455A64"/>
<path d="M301.545 319.687C301.586 319.652 301.636 319.634 301.687 319.634C301.739 319.634 301.789 319.652 301.829 319.687C301.913 319.801 301.953 319.946 301.941 320.092V322.729C301.941 322.918 301.902 323.105 301.829 323.276C301.77 323.429 301.671 323.56 301.545 323.652L294.537 328.07C294.499 328.108 294.45 328.128 294.399 328.128C294.348 328.128 294.299 328.108 294.261 328.07C294.215 328.016 294.181 327.952 294.16 327.882C294.139 327.812 294.132 327.738 294.14 327.665V311.651C294.138 311.461 294.18 311.273 294.261 311.105C294.315 310.951 294.411 310.819 294.537 310.728L301.433 306.376C301.472 306.338 301.523 306.318 301.575 306.318C301.627 306.318 301.678 306.338 301.717 306.376C301.762 306.429 301.796 306.492 301.816 306.56C301.837 306.628 301.845 306.7 301.838 306.772V309.409C301.834 309.599 301.793 309.785 301.717 309.956C301.658 310.109 301.559 310.24 301.433 310.333L296.881 313.206V315.89L301.114 313.225C301.151 313.185 301.2 313.164 301.252 313.164C301.303 313.164 301.353 313.185 301.39 313.225C301.433 313.278 301.466 313.341 301.487 313.409C301.507 313.477 301.515 313.549 301.51 313.62V316.258C301.508 316.448 301.467 316.634 301.39 316.804C301.336 316.958 301.239 317.09 301.114 317.181L296.881 319.847V322.673L301.545 319.687Z" fill="#455A64"/>
<path d="M306.174 314.732C306.17 314.921 306.129 315.107 306.053 315.278C305.993 315.428 305.898 315.557 305.777 315.655L303.915 316.823C303.877 316.863 303.826 316.885 303.773 316.885C303.72 316.885 303.669 316.863 303.631 316.823C303.588 316.769 303.555 316.706 303.534 316.638C303.513 316.57 303.505 316.499 303.51 316.427V305.688C303.512 305.499 303.554 305.312 303.631 305.142C303.685 304.985 303.785 304.853 303.915 304.765L305.777 303.588C305.816 303.552 305.865 303.533 305.915 303.533C305.966 303.533 306.014 303.552 306.053 303.588C306.097 303.643 306.13 303.707 306.151 303.777C306.172 303.846 306.18 303.92 306.174 303.993V314.732ZM306.174 320.082C306.17 320.272 306.129 320.458 306.053 320.629C305.997 320.778 305.901 320.906 305.777 320.996L303.915 322.164C303.877 322.204 303.826 322.226 303.773 322.226C303.72 322.226 303.669 322.204 303.631 322.164C303.588 322.11 303.555 322.047 303.534 321.979C303.513 321.912 303.505 321.84 303.51 321.768V319.244C303.513 319.054 303.554 318.868 303.631 318.697C303.688 318.543 303.787 318.411 303.915 318.321L305.777 317.143C305.815 317.106 305.864 317.086 305.915 317.086C305.966 317.086 306.015 317.106 306.053 317.143C306.098 317.196 306.131 317.259 306.152 317.327C306.173 317.395 306.18 317.467 306.174 317.539V320.082Z" fill="#455A64"/>
<path d="M310.639 311.915C310.635 312.104 310.594 312.291 310.518 312.461C310.458 312.611 310.363 312.741 310.242 312.838L308.381 314.006C308.342 314.046 308.291 314.068 308.238 314.068C308.185 314.068 308.135 314.046 308.096 314.006C308.053 313.952 308.02 313.89 307.999 313.822C307.978 313.754 307.97 313.682 307.975 313.611V302.872C307.978 302.682 308.019 302.495 308.096 302.325C308.15 302.169 308.25 302.036 308.381 301.949L310.242 300.771C310.28 300.734 310.329 300.714 310.38 300.714C310.431 300.714 310.48 300.734 310.518 300.771C310.562 300.826 310.596 300.891 310.616 300.96C310.637 301.03 310.645 301.103 310.639 301.176V311.915ZM310.639 317.266C310.635 317.455 310.594 317.641 310.518 317.812C310.462 317.962 310.366 318.09 310.242 318.179L308.381 319.338C308.341 319.376 308.291 319.397 308.238 319.397C308.186 319.397 308.135 319.376 308.096 319.338C308.053 319.284 308.02 319.221 307.999 319.154C307.978 319.086 307.97 319.014 307.975 318.942V316.427C307.978 316.238 308.02 316.051 308.096 315.881C308.153 315.726 308.252 315.594 308.381 315.504L310.242 314.327C310.28 314.289 310.329 314.269 310.38 314.269C310.431 314.269 310.48 314.289 310.518 314.327C310.563 314.379 310.597 314.442 310.617 314.51C310.638 314.578 310.646 314.651 310.639 314.722V317.266Z" fill="#455A64"/>
<path d="M315.104 309.098C315.1 309.288 315.059 309.474 314.983 309.645C314.923 309.794 314.828 309.924 314.708 310.022L312.846 311.19C312.807 311.229 312.756 311.252 312.703 311.252C312.651 311.252 312.6 311.229 312.561 311.19C312.518 311.136 312.485 311.073 312.464 311.005C312.444 310.937 312.435 310.865 312.441 310.794V300.055C312.443 299.865 312.484 299.679 312.561 299.509C312.615 299.352 312.715 299.22 312.846 299.132L314.708 297.955C314.746 297.917 314.795 297.897 314.846 297.897C314.896 297.897 314.946 297.917 314.983 297.955C315.027 298.01 315.061 298.074 315.081 298.144C315.102 298.213 315.11 298.287 315.104 298.36V309.098ZM315.104 314.44C315.101 314.632 315.06 314.822 314.983 314.995C314.927 315.145 314.831 315.273 314.708 315.363L312.846 316.512C312.806 316.55 312.756 316.571 312.703 316.571C312.651 316.571 312.601 316.55 312.561 316.512C312.518 316.458 312.485 316.395 312.464 316.327C312.444 316.259 312.435 316.188 312.441 316.116V313.601C312.444 313.412 312.485 313.225 312.561 313.055C312.615 312.898 312.715 312.766 312.846 312.678L314.708 311.5C314.746 311.463 314.795 311.443 314.846 311.443C314.896 311.443 314.946 311.463 314.983 311.5C315.028 311.553 315.062 311.616 315.083 311.684C315.103 311.752 315.111 311.825 315.104 311.896V314.44Z" fill="#455A64"/>
<path d="M238.929 319.489C239.145 319.347 239.308 319.347 239.429 319.489C239.539 319.617 239.619 319.772 239.662 319.941L243.239 335.069C243.278 335.188 243.301 335.311 243.308 335.437C243.304 335.61 243.266 335.78 243.196 335.936C243.143 336.072 243.057 336.19 242.946 336.275L240.877 337.575C240.665 337.713 240.51 337.732 240.412 337.632C240.319 337.545 240.258 337.425 240.239 337.293L239.783 335.286L235.421 338.037L234.964 340.618C234.927 340.814 234.866 341.004 234.783 341.183C234.687 341.412 234.523 341.598 234.317 341.711L232.257 343.02C232.221 343.052 232.175 343.07 232.128 343.07C232.081 343.07 232.035 343.052 231.999 343.02C231.922 342.917 231.884 342.785 231.895 342.653C231.902 342.5 231.922 342.349 231.956 342.2L235.533 322.569C235.585 322.308 235.666 322.055 235.774 321.816C235.872 321.553 236.048 321.334 236.274 321.194L238.929 319.489ZM236.274 333.214L238.929 331.546L237.602 325.763L236.274 333.214Z" fill="#455A64"/>
<path d="M251.911 311.293C251.954 311.252 252.009 311.229 252.066 311.229C252.123 311.229 252.179 311.252 252.221 311.293C252.269 311.354 252.305 311.424 252.327 311.5C252.349 311.576 252.357 311.657 252.351 311.736V314.656C252.349 314.868 252.305 315.077 252.221 315.269C252.157 315.437 252.049 315.581 251.911 315.683L249.023 317.501V331.631C249.022 331.843 248.977 332.052 248.894 332.243C248.829 332.411 248.722 332.555 248.584 332.658L246.437 334.014C246.395 334.056 246.339 334.079 246.282 334.079C246.225 334.079 246.17 334.056 246.127 334.014C246.078 333.955 246.04 333.885 246.016 333.808C245.993 333.732 245.983 333.652 245.989 333.572V319.442L243.084 321.269C243.041 321.311 242.986 321.334 242.929 321.334C242.872 321.334 242.816 321.311 242.774 321.269C242.723 321.211 242.684 321.141 242.66 321.064C242.636 320.988 242.628 320.907 242.636 320.826V317.906C242.636 317.693 242.684 317.483 242.774 317.294C242.838 317.126 242.946 316.982 243.084 316.879L251.911 311.293Z" fill="#455A64"/>
<path d="M262.255 304.775C262.297 304.731 262.352 304.707 262.41 304.707C262.468 304.707 262.523 304.731 262.565 304.775C262.613 304.835 262.649 304.906 262.671 304.982C262.693 305.058 262.701 305.138 262.695 305.217V308.138C262.693 308.35 262.649 308.559 262.565 308.75C262.501 308.918 262.393 309.062 262.255 309.164L259.367 310.983V325.113C259.366 325.324 259.321 325.533 259.238 325.725C259.173 325.893 259.066 326.037 258.928 326.139L256.781 327.496C256.739 327.537 256.683 327.561 256.626 327.561C256.569 327.561 256.514 327.537 256.471 327.496C256.423 327.437 256.387 327.368 256.365 327.294C256.343 327.219 256.335 327.141 256.342 327.062V312.932L253.428 314.741C253.385 314.783 253.33 314.806 253.273 314.806C253.216 314.806 253.16 314.783 253.118 314.741C253.067 314.683 253.028 314.613 253.004 314.536C252.98 314.46 252.972 314.379 252.98 314.298V311.378C252.98 311.165 253.028 310.955 253.118 310.766C253.182 310.598 253.29 310.454 253.428 310.351L262.255 304.775Z" fill="#455A64"/>
<path d="M272.392 313.272C272.435 313.23 272.49 313.207 272.547 313.207C272.604 313.207 272.66 313.23 272.702 313.272C272.75 313.33 272.786 313.399 272.808 313.474C272.83 313.548 272.838 313.627 272.832 313.705V316.635C272.83 316.844 272.786 317.049 272.702 317.238C272.639 317.409 272.531 317.556 272.392 317.661L264.634 322.56C264.591 322.6 264.536 322.622 264.479 322.622C264.422 322.622 264.367 322.6 264.324 322.56C264.229 322.437 264.183 322.278 264.194 322.117V304.266C264.196 304.057 264.24 303.851 264.324 303.663C264.397 303.521 264.504 303.404 264.634 303.324L272.271 298.511C272.314 298.469 272.369 298.446 272.426 298.446C272.484 298.446 272.539 298.469 272.582 298.511C272.632 298.57 272.67 298.64 272.694 298.716C272.717 298.792 272.726 298.873 272.72 298.953V301.873C272.719 302.087 272.672 302.297 272.582 302.486C272.517 302.654 272.409 302.798 272.271 302.9L267.22 306.056V309.042L271.909 306.084C271.954 306.044 272.011 306.021 272.069 306.021C272.127 306.021 272.183 306.044 272.228 306.084C272.323 306.208 272.369 306.367 272.358 306.527V309.447C272.356 309.659 272.312 309.868 272.228 310.059C272.161 310.229 272.05 310.373 271.909 310.474L267.22 313.451V316.512L272.392 313.272Z" fill="#455A64"/>
<path d="M282.176 311.51C281.986 311.623 281.84 311.642 281.727 311.51C281.638 311.446 281.562 311.363 281.503 311.265L277.745 304.2V313.517C277.743 313.728 277.699 313.937 277.616 314.129C277.551 314.297 277.443 314.441 277.305 314.543L275.159 315.9C275.116 315.941 275.061 315.965 275.004 315.965C274.947 315.965 274.891 315.941 274.849 315.9C274.801 315.841 274.765 315.772 274.743 315.698C274.721 315.623 274.713 315.545 274.719 315.466V297.672C274.721 297.463 274.765 297.257 274.849 297.069C274.909 296.896 275.018 296.748 275.159 296.645L276.883 295.571C277.064 295.458 277.219 295.44 277.331 295.571C277.419 295.637 277.495 295.72 277.555 295.816L281.305 302.881V293.565C281.307 293.353 281.351 293.144 281.434 292.953C281.501 292.783 281.612 292.639 281.753 292.538L283.9 291.182C283.942 291.14 283.998 291.117 284.055 291.117C284.112 291.117 284.167 291.14 284.21 291.182C284.258 291.242 284.294 291.313 284.316 291.389C284.338 291.465 284.346 291.545 284.339 291.624V309.438C284.338 309.65 284.294 309.859 284.21 310.05C284.145 310.218 284.038 310.362 283.9 310.464L282.176 311.51Z" fill="#455A64"/>
<path d="M295.045 284.079C295.088 284.037 295.143 284.014 295.201 284.014C295.258 284.014 295.313 284.037 295.356 284.079C295.403 284.139 295.439 284.21 295.462 284.286C295.484 284.362 295.492 284.442 295.485 284.522V287.442C295.483 287.654 295.439 287.863 295.356 288.054C295.291 288.222 295.183 288.366 295.045 288.469L292.158 290.287V304.417C292.156 304.629 292.112 304.838 292.028 305.029C291.964 305.197 291.856 305.341 291.718 305.443L289.572 306.8C289.529 306.842 289.474 306.865 289.417 306.865C289.359 306.865 289.304 306.842 289.261 306.8C289.21 306.742 289.171 306.672 289.147 306.596C289.123 306.519 289.115 306.438 289.123 306.357V292.227L286.244 294.055C286.2 294.095 286.143 294.118 286.085 294.118C286.027 294.118 285.97 294.095 285.925 294.055C285.878 293.994 285.842 293.924 285.819 293.848C285.797 293.772 285.789 293.691 285.796 293.612V290.692C285.798 290.48 285.842 290.271 285.925 290.079C285.992 289.91 286.103 289.766 286.244 289.665L295.045 284.079Z" fill="#455A64"/>
<path d="M297.39 301.902C297.347 301.943 297.292 301.966 297.235 301.966C297.178 301.966 297.122 301.943 297.08 301.902C297.031 301.844 296.993 301.775 296.969 301.701C296.946 301.626 296.936 301.547 296.942 301.468V283.617C296.947 283.408 296.994 283.202 297.08 283.014C297.141 282.845 297.25 282.7 297.39 282.6L299.536 281.243C299.579 281.202 299.634 281.179 299.692 281.179C299.749 281.179 299.804 281.202 299.847 281.243C299.894 281.304 299.93 281.374 299.953 281.45C299.975 281.527 299.983 281.607 299.976 281.686V299.556C299.974 299.768 299.93 299.977 299.847 300.168C299.782 300.336 299.674 300.48 299.536 300.583L297.39 301.902Z" fill="#455A64"/>
<path d="M301.916 286.952C301.95 285.885 302.083 284.825 302.312 283.787C302.543 282.748 302.878 281.74 303.312 280.782C303.739 279.851 304.269 278.981 304.889 278.191C305.496 277.415 306.219 276.755 307.027 276.241C307.665 275.793 308.399 275.536 309.156 275.497C309.733 275.478 310.297 275.689 310.742 276.091C311.213 276.563 311.559 277.165 311.742 277.833C311.992 278.694 312.128 279.588 312.147 280.49C312.147 281.272 312.147 282.091 312.147 282.958C312.147 283.825 312.147 284.635 312.147 285.407C312.109 286.471 311.974 287.528 311.742 288.563C311.514 289.609 311.179 290.623 310.742 291.587C310.322 292.524 309.789 293.395 309.156 294.177C308.546 294.929 307.827 295.566 307.027 296.061C306.387 296.513 305.65 296.776 304.889 296.824C304.313 296.846 303.75 296.631 303.312 296.221C302.842 295.745 302.497 295.14 302.312 294.469C302.066 293.609 301.932 292.714 301.916 291.813C301.916 291.069 301.916 290.268 301.916 289.401C301.916 288.535 301.89 287.753 301.916 286.952ZM309.113 287.178C309.113 286.839 309.113 286.462 309.113 286.057C309.113 285.652 309.113 285.228 309.113 284.804C309.113 284.38 309.113 283.975 309.113 283.589C309.113 283.203 309.113 282.854 309.113 282.543C309.098 282.151 309.04 281.762 308.941 281.385C308.87 281.098 308.734 280.835 308.544 280.622C308.372 280.45 308.148 280.353 307.915 280.349C307.607 280.366 307.31 280.474 307.053 280.659C306.727 280.876 306.435 281.149 306.191 281.47C305.939 281.796 305.728 282.157 305.562 282.543C305.39 282.944 305.26 283.364 305.174 283.796C305.077 284.248 305.019 284.708 305.001 285.172C305.001 285.501 305.001 285.859 305.001 286.264C305.001 286.669 305.001 287.065 305.001 287.489C305.001 287.913 305.001 288.327 305.001 288.732C305.001 289.137 305.001 289.486 305.001 289.806C304.984 290.501 305.181 291.181 305.562 291.737C305.898 292.133 306.424 292.124 307.079 291.69C307.759 291.262 308.289 290.599 308.587 289.806C308.898 288.969 309.076 288.08 309.113 287.178Z" fill="#455A64"/>
<path d="M321.526 286.688C321.459 286.735 321.381 286.76 321.302 286.76C321.222 286.76 321.145 286.735 321.078 286.688C320.988 286.621 320.911 286.535 320.854 286.434L317.104 279.378V288.695C317.102 288.907 317.058 289.116 316.975 289.307C316.908 289.476 316.797 289.62 316.656 289.722L314.501 291.078C314.458 291.12 314.403 291.143 314.346 291.143C314.288 291.143 314.233 291.12 314.19 291.078C314.143 291.018 314.107 290.947 314.084 290.871C314.062 290.795 314.054 290.715 314.061 290.635V272.831C314.063 272.62 314.107 272.411 314.19 272.219C314.255 272.051 314.363 271.907 314.501 271.805L316.225 270.731C316.292 270.679 316.371 270.652 316.453 270.652C316.535 270.652 316.615 270.679 316.682 270.731C316.766 270.797 316.839 270.88 316.897 270.976L320.655 278.041V268.715C320.658 268.506 320.702 268.3 320.785 268.112C320.849 267.944 320.957 267.8 321.095 267.698L323.25 266.303C323.293 266.264 323.348 266.242 323.405 266.242C323.462 266.242 323.517 266.264 323.56 266.303C323.658 266.425 323.708 266.584 323.698 266.746V284.569C323.693 284.778 323.646 284.984 323.56 285.172C323.5 285.345 323.392 285.493 323.25 285.596L321.526 286.688Z" fill="#455A64"/>
<path d="M221.534 361.323L218.086 363.33C217.972 363.428 217.833 363.487 217.688 363.498C217.542 363.509 217.398 363.472 217.272 363.391C217.146 363.311 217.046 363.191 216.983 363.047C216.921 362.904 216.9 362.743 216.922 362.585L216.362 334.768C216.374 334.35 216.483 333.942 216.677 333.581C216.871 333.221 217.145 332.92 217.474 332.705L224.025 328.937C224.654 328.57 225.111 328.937 225.051 329.681L222.706 359.298C222.654 359.707 222.523 360.1 222.32 360.449C222.118 360.798 221.85 361.096 221.534 361.323Z" fill="#FAFAFA"/>
<path d="M219.301 376.179C217.103 377.46 215.853 375.651 215.94 373.192C215.997 371.775 216.362 370.394 217.003 369.161C217.645 367.928 218.545 366.878 219.629 366.099C221.844 364.818 223.077 366.627 222.999 369.085C222.942 370.503 222.577 371.886 221.934 373.12C221.291 374.353 220.388 375.401 219.301 376.179Z" fill="#FAFAFA"/>
<path d="M183.778 338.772C183.537 338.77 183.303 338.678 183.116 338.511C182.928 338.344 182.799 338.112 182.749 337.854C182.698 337.596 182.73 337.326 182.839 337.091C182.948 336.855 183.127 336.667 183.347 336.558L194.252 331.32C194.508 331.195 194.799 331.187 195.061 331.296C195.322 331.406 195.534 331.625 195.648 331.904C195.762 332.184 195.77 332.502 195.67 332.788C195.57 333.075 195.37 333.305 195.114 333.43L184.209 338.668C184.074 338.735 183.927 338.77 183.778 338.772Z" fill="#455A64"/>
<path d="M195.976 321.42C195.843 321.419 195.711 321.39 195.588 321.335L183.459 316.098C183.319 316.051 183.189 315.974 183.077 315.87C182.965 315.766 182.874 315.638 182.81 315.494C182.746 315.349 182.71 315.192 182.705 315.032C182.699 314.871 182.724 314.712 182.778 314.562C182.832 314.413 182.913 314.278 183.018 314.165C183.122 314.052 183.246 313.964 183.383 313.906C183.52 313.849 183.667 313.823 183.814 313.83C183.96 313.838 184.104 313.879 184.235 313.95L196.364 319.187C196.591 319.288 196.779 319.471 196.897 319.707C197.014 319.942 197.053 320.214 197.007 320.477C196.962 320.741 196.834 320.978 196.646 321.15C196.458 321.322 196.221 321.417 195.976 321.42Z" fill="#455A64"/>
<path d="M201.415 309.72C201.232 309.721 201.052 309.67 200.892 309.573C200.732 309.476 200.597 309.335 200.501 309.164L194.519 298.247C194.448 298.117 194.4 297.973 194.38 297.823C194.36 297.673 194.366 297.52 194.4 297.373C194.434 297.227 194.493 297.088 194.576 296.967C194.658 296.845 194.762 296.742 194.881 296.664C195 296.586 195.132 296.535 195.269 296.512C195.406 296.49 195.546 296.497 195.68 296.534C195.815 296.571 195.941 296.636 196.052 296.726C196.164 296.817 196.258 296.93 196.329 297.06L202.363 307.978C202.46 308.152 202.512 308.352 202.514 308.556C202.517 308.76 202.469 308.961 202.377 309.138C202.285 309.316 202.151 309.463 201.99 309.565C201.828 309.668 201.645 309.721 201.458 309.72H201.415Z" fill="#455A64"/>
<path d="M341.43 302.665C341.236 302.668 341.046 302.612 340.88 302.504C340.715 302.396 340.579 302.24 340.49 302.052C340.359 301.781 340.332 301.464 340.414 301.171C340.497 300.878 340.682 300.633 340.93 300.489L351.868 294.215C351.992 294.129 352.131 294.071 352.276 294.047C352.421 294.022 352.569 294.031 352.711 294.072C352.853 294.113 352.985 294.186 353.1 294.286C353.215 294.386 353.309 294.511 353.378 294.653C353.446 294.795 353.486 294.951 353.497 295.111C353.507 295.271 353.487 295.431 353.437 295.582C353.388 295.733 353.31 295.871 353.209 295.988C353.108 296.104 352.986 296.197 352.851 296.259L341.912 302.533C341.764 302.621 341.598 302.667 341.43 302.665Z" fill="#455A64"/>
<path d="M353.032 318.481C352.938 318.495 352.842 318.495 352.748 318.481L340.214 314.628C339.966 314.526 339.762 314.326 339.642 314.067C339.522 313.809 339.496 313.511 339.567 313.232C339.638 312.953 339.803 312.713 340.028 312.56C340.253 312.407 340.522 312.352 340.783 312.405L353.317 316.239C353.56 316.317 353.77 316.488 353.908 316.721C354.046 316.954 354.103 317.233 354.068 317.508C354.034 317.783 353.91 318.035 353.72 318.219C353.53 318.402 353.286 318.505 353.032 318.509V318.481Z" fill="#455A64"/>
<path d="M341.8 336.699C341.631 336.7 341.464 336.656 341.314 336.571C341.164 336.485 341.035 336.361 340.938 336.209L334.456 326.168C334.328 325.918 334.289 325.624 334.346 325.345C334.404 325.065 334.555 324.819 334.77 324.654C334.984 324.488 335.247 324.416 335.508 324.45C335.768 324.485 336.008 324.623 336.18 324.839L342.636 334.881C342.717 335.005 342.774 335.145 342.805 335.294C342.836 335.442 342.839 335.596 342.815 335.746C342.791 335.895 342.74 336.039 342.665 336.167C342.59 336.295 342.492 336.405 342.378 336.492C342.208 336.622 342.007 336.694 341.8 336.699Z" fill="#455A64"/>
<path d="M157.427 20.9783C161.194 18.6327 166.366 18.9907 172.133 22.608C183.666 29.8896 193.028 47.5898 193.028 62.172C193.028 69.4442 190.692 74.5593 186.916 76.9425L179.77 81.4359C175.994 83.8097 170.779 83.4706 165.013 79.8345C153.479 72.5528 144.118 54.8432 144.118 40.2705C144.118 33.0077 146.445 27.902 150.212 25.5093C151.79 24.492 155.824 21.9674 157.427 20.9783Z" fill="#ADD9C8"/>
<path opacity="0.15" d="M157.427 20.9783C161.194 18.6327 166.366 18.9907 172.133 22.608C183.666 29.8896 193.028 47.5898 193.028 62.172C193.028 69.4442 190.692 74.5593 186.916 76.9425L179.77 81.4359C175.994 83.8097 170.779 83.4706 165.013 79.8345C153.479 72.5528 144.118 54.8432 144.118 40.2705C144.118 33.0077 146.445 27.902 150.212 25.5093C151.79 24.492 155.824 21.9674 157.427 20.9783Z" fill="black"/>
<path d="M176.624 81.7373C177.932 84.0457 179.722 85.9826 181.848 87.3893C184.223 88.9032 186.943 89.6511 189.692 89.5465C189.82 89.5457 189.947 89.5135 190.062 89.4523L197.165 84.9778C197.275 84.9107 197.366 84.8129 197.429 84.6945C197.493 84.5761 197.526 84.4414 197.526 84.3043C197.526 84.1671 197.493 84.0324 197.429 83.9141C197.366 83.7957 197.275 83.6979 197.165 83.6307C195.362 82.556 193.825 81.0173 192.688 79.1479C191.552 77.2784 190.848 75.1344 190.64 72.9014L176.624 81.7373Z" fill="#ADD9C8"/>
<path opacity="0.25" d="M176.624 81.7373C177.932 84.0457 179.722 85.9826 181.848 87.3893C184.223 88.9032 186.943 89.6511 189.692 89.5465C189.82 89.5457 189.947 89.5135 190.062 89.4523L197.165 84.9778C197.275 84.9107 197.366 84.8129 197.429 84.6945C197.493 84.5761 197.526 84.4414 197.526 84.3043C197.526 84.1671 197.493 84.0324 197.429 83.9141C197.366 83.7957 197.275 83.6979 197.165 83.6307C195.362 82.556 193.825 81.0173 192.688 79.1479C191.552 77.2784 190.848 75.1344 190.64 72.9014L176.624 81.7373Z" fill="black"/>
<path d="M179.781 81.4175C187.941 76.2696 187.94 59.5758 179.78 44.1309C171.62 28.686 158.391 20.3386 150.232 25.4865C142.073 30.6344 142.073 47.3282 150.233 62.7731C158.393 78.218 171.622 86.5654 179.781 81.4175Z" fill="#ADD9C8"/>
<path d="M183.606 73.9563C183.231 76.7504 183.649 79.603 184.803 82.1295C185.958 84.656 187.793 86.735 190.062 88.0863C190.198 88.1715 190.305 88.3031 190.366 88.461C190.427 88.6188 190.438 88.7941 190.399 88.96C190.36 89.1259 190.272 89.2731 190.149 89.379C190.026 89.485 189.874 89.5438 189.718 89.5464C186.966 89.6447 184.244 88.8939 181.865 87.3798C176.313 83.5364 175.615 78.9866 175.615 78.9866L183.606 73.9563Z" fill="#ADD9C8"/>
<path d="M162.832 59.8735L165.504 61.4372C165.592 61.5151 165.7 61.5619 165.813 61.5714C165.926 61.5809 166.039 61.5526 166.138 61.4904C166.236 61.4281 166.314 61.3347 166.363 61.2226C166.411 61.1105 166.427 60.985 166.409 60.8626L166.78 39.1966C166.77 38.871 166.686 38.5531 166.535 38.2719C166.385 37.9906 166.173 37.7548 165.918 37.5858L160.815 34.6185C160.323 34.3359 159.953 34.6185 160.013 35.1931L161.84 58.2815C161.885 58.6113 161.998 58.9258 162.169 59.2015C162.341 59.4772 162.567 59.7069 162.832 59.8735Z" fill="#FAFAFA"/>
<path d="M164.53 71.4602C166.254 72.4587 167.219 71.0457 167.116 69.1335C167.07 68.0277 166.784 66.9499 166.282 65.9885C165.78 65.0272 165.076 64.2099 164.228 63.6039C162.504 62.596 161.539 64.0184 161.642 65.9307C161.686 67.0371 161.971 68.1161 162.473 69.0779C162.975 70.0397 163.68 70.8565 164.53 71.4602Z" fill="#FAFAFA"/>
<path d="M375.289 108.773C391.79 108.773 405.166 94.155 405.166 76.1231C405.166 58.0912 391.79 43.4734 375.289 43.4734C358.788 43.4734 345.412 58.0912 345.412 76.1231C345.412 94.155 358.788 108.773 375.289 108.773Z" fill="#455A64"/>
<path d="M390.236 80.2491L356.523 101.529C362.09 106.443 369.086 109.01 376.238 108.764C383.391 108.518 390.225 105.474 395.498 100.187C400.77 94.8994 404.131 87.7195 404.969 79.9531C405.807 72.1866 404.066 64.3495 400.063 57.8672C402.735 66.1945 401.08 73.4102 390.236 80.2491Z" fill="#37474F"/>
<path d="M369.419 98.6651L348.601 85.4771C354.997 111.74 358.575 151.153 356.928 180.044L365.255 185.301C370.126 167.959 371.22 132.483 369.419 98.6651Z" fill="#37474F"/>
<path d="M394.727 98.4485L385.952 110.694L385.728 146.443C385.681 154.312 383.77 162.033 380.183 168.856C376.595 175.678 371.452 181.37 365.255 185.376C370.238 164.652 370.807 129.487 369.419 98.7122L394.727 98.4485Z" fill="#455A64"/>
<path d="M367.031 139.171L367.643 139.557C368.193 139.864 368.801 140.024 369.419 140.024C370.036 140.024 370.645 139.864 371.194 139.557L375.961 136.552C376.944 135.931 377.737 136.43 377.737 137.673V138.474C377.704 139.147 377.526 139.801 377.218 140.384C376.909 140.967 376.478 141.461 375.961 141.828L371.117 144.899C370.57 145.205 369.964 145.365 369.35 145.365C368.735 145.365 368.129 145.205 367.583 144.899L367.014 144.522C366.507 144.14 366.088 143.635 365.789 143.047C365.49 142.458 365.319 141.803 365.29 141.131V140.358C365.255 139.058 366.048 138.549 367.031 139.171Z" fill="#ADD9C8"/>
<path d="M366.281 150.88L366.893 151.266C367.443 151.573 368.051 151.733 368.669 151.733C369.286 151.733 369.895 151.573 370.445 151.266L375.211 148.261C376.194 147.64 376.987 148.139 376.987 149.382V150.145C376.959 150.813 376.789 151.464 376.49 152.046C376.19 152.628 375.77 153.126 375.263 153.499L370.419 156.57C369.872 156.876 369.266 157.036 368.652 157.036C368.037 157.036 367.431 156.876 366.884 156.57L366.307 156.193C365.802 155.809 365.384 155.304 365.085 154.716C364.786 154.128 364.615 153.473 364.583 152.802V152.029C364.505 150.72 365.298 150.258 366.281 150.88Z" fill="#ADD9C8"/>
<path d="M365.54 162.589L366.152 162.976C366.702 163.282 367.31 163.442 367.927 163.442C368.545 163.442 369.153 163.282 369.703 162.976L374.47 159.971C375.453 159.349 376.246 159.848 376.246 161.092V161.845C376.214 162.519 376.037 163.176 375.728 163.76C375.42 164.345 374.988 164.841 374.47 165.208L369.626 168.279C369.079 168.586 368.473 168.746 367.859 168.746C367.244 168.746 366.638 168.586 366.091 168.279L365.523 167.902C365.016 167.52 364.597 167.015 364.298 166.427C363.999 165.839 363.828 165.183 363.799 164.511V163.739C363.764 162.467 364.557 161.968 365.54 162.589Z" fill="#ADD9C8"/>
<path d="M336.344 56.5201C340.335 54.0144 345.722 54.1086 351.696 57.3019C352.325 57.6316 352.955 57.999 353.601 58.4041C354.248 58.8091 355.101 59.3461 355.842 59.949C357.1 60.8608 358.306 61.8548 359.454 62.9257C361.644 64.9635 363.664 67.2113 365.488 69.6421C370.518 76.3907 374.242 84.1844 376.435 92.5516C377.476 96.4842 378.021 100.553 378.056 104.647C378.056 112.955 375.47 118.852 371.22 121.725L386.271 112.249C389.06 110.274 391.339 107.551 392.892 104.341C394.444 101.13 395.219 97.5385 395.141 93.9081C395.111 90.0041 394.613 86.1213 393.658 82.3591C391.471 73.7666 387.666 65.7678 382.487 58.8751C380.662 56.4442 378.643 54.1965 376.453 52.1586C375.324 51.0771 374.135 50.0735 372.893 49.1536C372.151 48.5979 371.401 48.0798 370.651 47.6088C370.029 47.2106 369.387 46.849 368.729 46.5254C366.056 45.1438 363.127 44.4532 360.171 44.5071C357.214 44.561 354.308 45.358 351.679 46.8363L351.256 47.0907C351.084 47.2037 350.894 47.3167 350.722 47.4392L336.344 56.5201Z" fill="#ADD9C8"/>
<path opacity="0.1" d="M386.271 112.249C389.06 110.274 391.339 107.551 392.892 104.341C394.444 101.13 395.219 97.5385 395.141 93.9081C395.111 90.0041 394.613 86.1213 393.658 82.3591L376.418 92.5893C377.459 96.5219 378.004 100.591 378.039 104.685C378.039 112.993 375.453 118.89 371.203 121.763L386.271 112.249Z" fill="black"/>
<path d="M329.172 73.7965C329.172 90.8372 340.111 111.552 353.61 120.067C360.394 124.354 366.54 124.778 370.979 121.876C371.063 121.833 371.144 121.783 371.22 121.725C375.453 118.899 378.056 112.955 378.056 104.647C378.056 87.6062 367.117 66.8822 353.618 58.4042C346.886 54.1558 340.774 53.7413 336.378 56.5202C331.982 59.2991 329.172 65.2619 329.172 73.7965Z" fill="#ADD9C8"/>
<path opacity="0.2" d="M329.172 73.7965C329.172 90.8372 340.111 111.552 353.61 120.067C360.394 124.354 366.54 124.778 370.979 121.876C371.063 121.833 371.144 121.783 371.22 121.725C375.453 118.899 378.056 112.955 378.056 104.647C378.056 87.6062 367.117 66.8822 353.618 58.4042C346.886 54.1558 340.774 53.7413 336.378 56.5202C331.982 59.2991 329.172 65.2619 329.172 73.7965Z" fill="black"/>
<path d="M254.221 69.3879C254.221 69.3879 278.883 83.2259 299.907 123.082C303.698 130.232 307.039 137.657 309.906 145.304C320.483 173.667 319.604 193.195 319.604 193.195C326.957 173.526 336.094 153.16 351.334 137.56C357.303 131.495 363.561 125.779 370.082 120.435C374.117 117.873 376.47 112.315 376.479 104.656C376.396 99.2893 375.46 93.9788 373.712 88.9626C372.593 85.5579 371.202 82.2671 369.557 79.1282C365.247 71.0175 359.351 63.9431 352.834 59.8266C346.8 56.0021 341.18 55.4463 337.137 57.9426C329.642 61.4424 321.982 64.5051 314.19 67.1177C294.201 73.8059 273.487 72.2704 254.221 69.3879Z" fill="#ADD9C8"/>
<path opacity="0.6" d="M254.221 69.3879C254.221 69.3879 278.883 83.2259 299.907 123.082C303.698 130.232 307.039 137.657 309.906 145.304C320.483 173.667 319.604 193.195 319.604 193.195C326.957 173.526 336.094 153.16 351.334 137.56C357.303 131.495 363.561 125.779 370.082 120.435C374.117 117.873 376.47 112.315 376.479 104.656C376.396 99.2893 375.46 93.9788 373.712 88.9626C372.593 85.5579 371.202 82.2671 369.557 79.1282C365.247 71.0175 359.351 63.9431 352.834 59.8266C346.8 56.0021 341.18 55.4463 337.137 57.9426C329.642 61.4424 321.982 64.5051 314.19 67.1177C294.201 73.8059 273.487 72.2704 254.221 69.3879Z" fill="white"/>
<path opacity="0.1" d="M309.941 145.313C320.517 173.677 319.638 193.204 319.638 193.204C326.991 173.535 336.128 153.169 351.368 137.57C357.338 131.504 363.596 125.788 370.117 120.444C374.151 117.882 376.504 112.324 376.513 104.666C376.431 99.2986 375.495 93.9881 373.746 88.9719C355.041 99.1738 324.81 118.033 309.941 145.313Z" fill="black"/>
<path d="M207.742 107.84C207.742 125.606 212.742 145.059 221.077 163.013C231.757 186.017 247.877 206.552 265.901 217.932C298.028 238.194 324.069 221.766 324.069 181.194C323.975 171.471 322.682 161.807 320.224 152.463C314.087 128.489 301.157 104.477 284.977 87.1821C282.679 84.7455 280.343 82.4501 277.969 80.2961C276.969 79.3541 275.961 78.5251 274.944 77.6867C273.495 76.4904 272.039 75.3412 270.565 74.2673C269.091 73.1934 267.479 72.0818 265.91 71.1022C233.818 50.868 207.742 67.3059 207.742 107.84Z" fill="#ADD9C8"/>
<path opacity="0.1" d="M221.103 163.023C231.783 186.026 247.903 206.562 265.927 217.941C298.054 238.204 324.095 221.775 324.095 181.203C324.001 171.481 322.708 161.817 320.25 152.472C318.078 157.71 310.268 165.199 306.777 159.952C308.928 168.248 310.061 176.82 310.148 185.442C310.148 197.085 307.768 206.486 303.252 212.638C299.416 217.885 294.149 220.551 287.598 220.532C281.236 220.532 273.806 217.979 266.194 213.175C250.851 203.5 236.74 186.102 226.741 166.395C226.766 166.433 224.767 168.279 221.103 163.023Z" fill="black"/>
<path d="M211.75 110.11C211.75 128.008 217.5 148.214 226.766 166.433C236.766 186.139 250.902 203.538 266.22 213.212C273.857 218.017 281.262 220.588 287.624 220.569C294.175 220.569 299.442 217.922 303.277 212.675C307.768 206.524 310.173 197.123 310.173 185.48C310.087 176.858 308.954 168.286 306.803 159.989C305.941 156.702 305.019 153.395 303.915 150.098C301.964 144.267 299.66 138.584 297.019 133.086C296.476 131.937 295.925 130.806 295.356 129.685C294.425 127.801 293.451 125.917 292.434 124.146C289.04 117.961 285.222 112.066 281.012 106.512C280.969 106.456 280.909 106.39 280.865 106.324C278.146 102.757 275.248 99.3575 272.185 96.1406C270.022 93.8704 267.806 91.7603 265.548 89.7821C264.608 88.9532 263.651 88.1619 262.686 87.3895C261.531 86.4475 260.358 85.5808 259.186 84.733C258.014 83.8852 256.876 83.141 255.738 82.4063C248.075 77.5644 240.679 75.0304 234.309 75.021C220.163 75.021 211.75 88.1525 211.75 110.11Z" fill="#ADD9C8"/>
<path opacity="0.4" d="M211.75 110.11C211.75 128.008 217.5 148.214 226.766 166.433C236.766 186.139 250.902 203.538 266.22 213.212C273.857 218.017 281.262 220.588 287.624 220.569C294.175 220.569 299.442 217.922 303.277 212.675C307.768 206.524 310.173 197.123 310.173 185.48C310.087 176.858 308.954 168.286 306.803 159.989C305.941 156.702 305.019 153.395 303.915 150.098C301.964 144.267 299.66 138.584 297.019 133.086C296.476 131.937 295.925 130.806 295.356 129.685C294.425 127.801 293.451 125.917 292.434 124.146C289.04 117.961 285.222 112.066 281.012 106.512C280.969 106.456 280.909 106.39 280.865 106.324C278.146 102.757 275.248 99.3575 272.185 96.1406C270.022 93.8704 267.806 91.7603 265.548 89.7821C264.608 88.9532 263.651 88.1619 262.686 87.3895C261.531 86.4475 260.358 85.5808 259.186 84.733C258.014 83.8852 256.876 83.141 255.738 82.4063C248.075 77.5644 240.679 75.0304 234.309 75.021C220.163 75.021 211.75 88.1525 211.75 110.11Z" fill="black"/>
<path d="M253.816 125.54L273.642 163.889C281.977 159.066 292.115 153.066 304.933 153.386C304.605 152.293 304.26 151.201 303.889 150.108C301.936 144.274 299.632 138.588 296.993 133.086C296.453 131.943 295.902 130.812 295.338 129.695C294.399 127.811 293.425 125.927 292.416 124.146C289.024 117.965 285.212 112.07 281.012 106.512C281.012 106.456 280.909 106.39 280.865 106.324C280.253 105.532 279.641 104.732 279.012 103.959C272.608 116.375 253.816 125.54 253.816 125.54Z" fill="#37474F"/>
<path d="M270.901 164.501C275.211 164.501 277.797 160.733 277.797 154.281V154.083C277.797 144.032 271.306 131.758 263.341 126.765L263.186 126.671C261.371 125.428 259.292 124.721 257.152 124.617C252.842 124.617 250.256 128.442 250.256 134.838V135.036C250.256 145.087 256.747 157.361 264.712 162.354L264.867 162.457C266.684 163.693 268.762 164.397 270.901 164.501Z" fill="#ADD9C8"/>
<path d="M129.55 340.062C129.826 336.087 132.351 295.976 132.351 295.976L114.646 310.238C117.232 333.232 118.275 339.44 118.344 343.208C118.27 343.515 118.238 343.833 118.249 344.15C118.249 348.7 122.956 351.149 126.628 354.182C129.735 356.851 133.049 359.218 136.532 361.257C139.196 362.717 144.6 362.849 145.273 360.974C140.816 357.253 135.653 353.193 132.101 348.945C130.421 346.967 129.214 344.857 129.55 340.062Z" fill="#FFA8A7"/>
<path d="M152.884 365.929C153.108 365.929 153.453 368.68 152.212 369.857C150.781 371.205 146.574 373.418 141.006 372.636C135.437 371.854 132.438 369.97 130.214 367.926C127.99 365.882 124.869 363.019 122.352 362.416C120.016 361.85 117.482 360.692 116.732 359.9C115.982 359.109 116.086 355.605 116.086 355.605L152.884 365.929Z" fill="#263238"/>
<path d="M118.318 342.116C118.108 342.114 117.904 342.196 117.745 342.347C117.586 342.498 117.484 342.707 117.456 342.935C117.284 343.877 117.103 346.703 116.732 348.295C116.159 351.091 115.973 353.964 116.18 356.82C116.491 358.619 120.301 359.872 122.732 360.88C125.595 362.253 128.254 364.089 130.619 366.325C133.205 368.68 138.722 371.129 142.351 371.101C146.661 371.101 151.462 369.547 152.565 367.38C153.936 364.686 152.867 363.132 146.531 359.91C145.333 359.307 141.101 356.566 139.635 355.577C135.739 352.892 131.877 349.162 130.084 344.423C129.941 343.84 129.618 343.328 129.171 342.973C128.782 342.79 128.35 342.748 127.938 342.85C126.876 343.01 125.844 343.35 124.878 343.858C124.016 344.301 122.809 344.8 122.835 346.006C122.852 346.422 122.93 346.833 123.068 347.221C123.145 347.466 123.206 347.796 123.007 347.937C122.809 348.078 122.585 347.937 122.421 347.758C121.791 347.061 121.215 346.308 120.697 345.507C120.401 345.092 120.063 344.716 119.689 344.386C119.311 344.156 118.948 343.898 118.603 343.613C118.241 343.199 118.335 342.671 118.318 342.116Z" fill="#37474F"/>
<path d="M130.636 366.325C129.532 365.319 128.381 364.375 127.188 363.499C127.188 363.499 134.67 368.463 137.687 366.212C139.635 364.761 138.713 363 138.661 362.444C138.61 361.888 143.42 359.458 145.307 359.213C145.833 359.533 146.273 359.788 146.549 359.929C152.91 363.15 153.979 364.705 152.583 367.399C151.479 369.565 147.98 371.261 142.446 371.261C138.782 371.242 133.248 368.68 130.636 366.325Z" fill="#455A64"/>
<path d="M138.118 360.786C142.066 362.519 140.377 363.32 139.273 363.499C138.17 363.678 131.515 359.42 127.455 355.916C123.223 352.252 120.559 348.248 118.982 346.91C118.396 346.402 117.766 345.789 117.206 345.215C117.31 344.273 117.396 343.397 117.473 342.945C117.501 342.717 117.604 342.507 117.762 342.356C117.921 342.205 118.125 342.123 118.335 342.125C118.335 342.681 118.258 343.208 118.646 343.623C118.991 343.907 119.354 344.165 119.732 344.395C120.106 344.726 120.444 345.102 120.74 345.516C121.258 346.317 121.834 347.07 122.464 347.768C125.852 352.544 134.162 359.053 138.118 360.786Z" fill="#263238"/>
<path d="M138.989 362.849C138.901 362.851 138.815 362.817 138.748 362.755C138.707 362.72 138.673 362.676 138.648 362.627C138.623 362.578 138.607 362.523 138.601 362.467C138.596 362.411 138.6 362.354 138.615 362.3C138.63 362.246 138.654 362.196 138.687 362.152C139.622 361.099 140.751 360.276 141.999 359.739C143.248 359.201 144.588 358.961 145.928 359.034C146.032 359.046 146.127 359.102 146.193 359.19C146.259 359.278 146.291 359.391 146.281 359.505C146.276 359.561 146.261 359.615 146.236 359.664C146.211 359.713 146.178 359.757 146.138 359.792C146.098 359.827 146.052 359.853 146.002 359.868C145.953 359.884 145.901 359.888 145.85 359.882C144.639 359.829 143.43 360.053 142.302 360.539C141.174 361.026 140.151 361.764 139.299 362.708C139.26 362.755 139.212 362.792 139.158 362.816C139.105 362.84 139.047 362.852 138.989 362.849Z" fill="#F0F0F0"/>
<path d="M135.541 360.532C135.453 360.534 135.367 360.5 135.3 360.438C135.219 360.366 135.168 360.262 135.157 360.15C135.145 360.037 135.175 359.924 135.239 359.835C136.173 358.78 137.302 357.956 138.551 357.419C139.8 356.881 141.139 356.641 142.48 356.717C142.531 356.722 142.58 356.739 142.625 356.765C142.671 356.792 142.711 356.827 142.743 356.871C142.775 356.914 142.8 356.964 142.814 357.017C142.829 357.071 142.834 357.127 142.829 357.183C142.824 357.239 142.809 357.293 142.785 357.342C142.761 357.391 142.728 357.435 142.688 357.47C142.648 357.506 142.603 357.532 142.554 357.548C142.505 357.565 142.453 357.57 142.402 357.564C141.191 357.511 139.982 357.735 138.854 358.222C137.726 358.709 136.703 359.447 135.851 360.39C135.812 360.437 135.764 360.474 135.71 360.499C135.657 360.523 135.599 360.534 135.541 360.532Z" fill="#F0F0F0"/>
<path d="M132.093 358.337C132.005 358.334 131.921 358.301 131.852 358.243C131.811 358.208 131.777 358.164 131.752 358.115C131.727 358.066 131.711 358.011 131.705 357.955C131.7 357.899 131.704 357.842 131.719 357.788C131.734 357.734 131.758 357.683 131.791 357.64C132.723 356.583 133.852 355.758 135.101 355.22C136.351 354.682 137.691 354.444 139.032 354.522C139.083 354.527 139.132 354.544 139.177 354.57C139.223 354.597 139.262 354.632 139.295 354.676C139.327 354.719 139.352 354.769 139.366 354.822C139.381 354.876 139.386 354.932 139.381 354.988C139.376 355.044 139.361 355.098 139.337 355.147C139.313 355.196 139.28 355.24 139.24 355.275C139.2 355.311 139.155 355.337 139.106 355.353C139.057 355.37 139.005 355.375 138.954 355.369C137.741 355.317 136.532 355.541 135.402 356.028C134.273 356.514 133.248 357.252 132.395 358.195C132.357 358.242 132.311 358.279 132.258 358.304C132.206 358.328 132.15 358.339 132.093 358.337Z" fill="#F0F0F0"/>
<path d="M128.903 355.822C128.812 355.825 128.723 355.791 128.653 355.727C128.573 355.656 128.522 355.552 128.511 355.439C128.499 355.327 128.529 355.214 128.593 355.125C129.53 354.073 130.662 353.252 131.911 352.714C133.161 352.177 134.501 351.936 135.843 352.007C135.894 352.012 135.943 352.029 135.988 352.056C136.033 352.083 136.073 352.119 136.105 352.163C136.137 352.207 136.161 352.257 136.175 352.311C136.189 352.365 136.193 352.422 136.187 352.478C136.182 352.533 136.167 352.587 136.142 352.637C136.117 352.686 136.084 352.729 136.044 352.764C136.004 352.799 135.958 352.825 135.908 352.841C135.859 352.856 135.807 352.861 135.756 352.854C134.545 352.801 133.336 353.025 132.208 353.512C131.08 353.998 130.057 354.737 129.205 355.68C129.168 355.727 129.121 355.764 129.069 355.788C129.017 355.813 128.96 355.824 128.903 355.822Z" fill="#F0F0F0"/>
<path d="M125.766 353.316C125.678 353.315 125.593 353.282 125.524 353.222C125.445 353.152 125.394 353.05 125.382 352.939C125.371 352.828 125.401 352.716 125.464 352.628C126.998 350.509 130.464 349.115 133.369 349.463C133.42 349.469 133.469 349.485 133.514 349.512C133.559 349.538 133.599 349.574 133.632 349.617C133.664 349.661 133.688 349.711 133.703 349.764C133.718 349.818 133.723 349.874 133.718 349.93C133.713 349.985 133.698 350.039 133.673 350.089C133.649 350.138 133.616 350.181 133.577 350.217C133.537 350.252 133.491 350.279 133.442 350.295C133.393 350.311 133.342 350.317 133.291 350.311C130.705 350 127.438 351.253 126.076 353.137C126.04 353.191 125.994 353.235 125.94 353.266C125.886 353.297 125.827 353.314 125.766 353.316Z" fill="#F0F0F0"/>
<path d="M87.4758 308.157L71.7184 300.865C68.6497 313.29 66.5464 330.312 63.7363 341.993C63.2018 344.197 59.7021 358.949 59.2453 363.659C58.5643 370.771 66.1413 372.213 67.6067 368.303C69.0721 364.394 73.3648 347.363 73.8648 345.592C75.8043 338.178 87.2258 308.769 87.4758 308.157Z" fill="#FFA8A7"/>
<path d="M69.6151 372.005C68.7014 376.009 67.6584 378.599 65.9344 380.691C64.2104 382.782 61.6244 383.036 59.1935 381.821C56.7627 380.606 53.8922 378.053 53.7802 374.436C53.6681 370.818 54.2198 368.416 55.4352 364.771L69.6151 372.005Z" fill="#263238"/>
<path d="M64.0725 340.571C63.0208 340.439 61.7795 345.827 60.2452 351.159C58.5901 356.867 57.1678 358.959 55.7628 363.631C54.1681 368.981 54.0388 371.478 55.1939 375.152C56.3489 378.825 62.064 383.394 65.9171 379.24C69.0807 375.886 69.9254 371.619 70.6323 366.099C71.3149 361.359 72.2358 356.664 73.3907 352.035C74.2527 347.975 75.1147 344.65 74.3303 344.009C74.1579 344.593 73.9596 345.347 73.7786 345.893C73.5976 346.439 73.1579 348.531 72.5804 348.436C72.621 347.914 72.7047 347.397 72.8304 346.892C72.9748 346.44 72.9563 345.944 72.7787 345.507C72.5054 345.145 72.1341 344.888 71.7184 344.772C70.7357 344.348 69.2445 343.444 68.2704 343.133C67.7626 342.972 67.2476 342.84 66.7274 342.737C66.0878 342.64 65.4405 342.618 64.7965 342.671C64.6651 342.691 64.5388 342.741 64.426 342.817C64.3131 342.893 64.2162 342.994 64.1414 343.114C64.0532 343.306 63.9977 343.513 63.9776 343.726C63.8967 344.09 63.7752 344.441 63.6156 344.772C63.5466 344.923 63.4087 345.102 63.2708 345.026C63.2198 344.987 63.1814 344.932 63.1612 344.867C63.1411 344.803 63.1402 344.733 63.1587 344.668C63.2708 344 63.426 343.538 63.5897 342.784C63.6587 342.436 63.7966 341.955 63.8656 341.607C63.9345 341.258 63.9949 340.91 64.0725 340.571Z" fill="#37474F"/>
<path d="M56.2713 362.124C56.03 362.896 54.5473 368.002 55.6593 369.207C56.7713 370.413 58.3746 366.57 58.3746 366.57C58.3746 366.57 61.8743 366.136 66.2964 369.396C65.8999 370.196 66.1671 373.164 67.5894 372.825C69.0117 372.486 70.5547 366.617 70.5719 366.541C69.8737 371.826 68.9858 375.961 65.9171 379.202C62.064 383.394 56.3834 378.825 55.168 375.151C53.9526 371.478 54.1422 368.981 55.7369 363.631C55.9265 363.103 56.0989 362.604 56.2713 362.124Z" fill="#455A64"/>
<path d="M58.6936 366.994C58.3315 368.972 56.6592 367.936 57.0644 365.11C57.4695 362.284 59.4263 355.953 60.2452 351.14C61.7795 345.808 63.0208 340.42 64.0724 340.552C64.0683 340.618 64.0683 340.684 64.0724 340.75L63.4518 343.491C63.357 343.886 63.2622 344.235 63.1932 344.668C62.4691 348.7 61.1934 356.396 60.2365 360.013C59.6064 362.308 59.0913 364.638 58.6936 366.994Z" fill="#263238"/>
<path d="M65.7447 369.264C66.5875 367.061 67.3184 364.81 67.9342 362.519C68.9169 358.94 71.6408 351.95 73.0286 348.107C73.3531 347.411 73.6047 346.678 73.7786 345.921C73.9424 345.384 74.132 344.697 74.2958 344.131V344.018C74.8906 344.489 74.5544 346.684 73.9768 349.407C73.5717 350.961 72.7011 352.619 71.9684 354.927C70.2444 359.448 69.0634 366.099 68.0118 368.699C66.9602 371.299 65.0724 371.148 65.7447 369.264Z" fill="#263238"/>
<path d="M66.374 369.613C66.3229 369.601 66.2753 369.575 66.2361 369.537C63.9634 367.751 61.2057 366.855 58.4092 366.994C58.3053 367.002 58.2028 366.964 58.1238 366.89C58.0448 366.816 57.9956 366.711 57.9868 366.598C57.982 366.542 57.9878 366.486 58.0037 366.432C58.0195 366.379 58.0451 366.329 58.079 366.287C58.1129 366.245 58.1543 366.211 58.2006 366.186C58.247 366.162 58.2974 366.148 58.3488 366.146C61.3444 365.979 64.3018 366.94 66.7275 368.868C66.8077 368.94 66.8589 369.044 66.8702 369.156C66.8815 369.269 66.8519 369.382 66.7878 369.471C66.7395 369.537 66.6744 369.586 66.6007 369.611C66.5269 369.636 66.448 369.637 66.374 369.613Z" fill="#F0F0F0"/>
<path d="M67.9773 365.496C67.9332 365.484 67.8921 365.461 67.8566 365.43C65.2641 363.539 62.2068 362.553 59.0901 362.604C58.9855 362.607 58.884 362.565 58.8069 362.488C58.7297 362.411 58.683 362.304 58.6763 362.19C58.674 362.076 58.7124 361.966 58.7833 361.884C58.8542 361.801 58.9519 361.752 59.0556 361.747C62.3549 361.684 65.5914 362.737 68.3221 364.761C68.3902 364.824 68.437 364.91 68.455 365.005C68.473 365.1 68.4611 365.199 68.4213 365.286C68.3815 365.373 68.3161 365.443 68.2355 365.485C68.155 365.526 68.064 365.537 67.9773 365.515V365.496Z" fill="#F0F0F0"/>
<path d="M60.0383 358.554C59.9675 358.529 59.9043 358.483 59.8556 358.422C59.807 358.36 59.7747 358.285 59.7625 358.205C59.7552 358.149 59.7582 358.092 59.7712 358.038C59.7843 357.984 59.8071 357.932 59.8384 357.888C59.8697 357.843 59.9088 357.806 59.9535 357.778C59.9982 357.749 60.0475 357.732 60.0987 357.725C65.0379 356.952 69.1928 360.485 69.3652 360.635C69.4059 360.67 69.4398 360.714 69.4649 360.763C69.49 360.812 69.5059 360.867 69.5115 360.923C69.5171 360.979 69.5124 361.036 69.4976 361.09C69.4829 361.144 69.4583 361.195 69.4255 361.238C69.36 361.323 69.2671 361.377 69.166 361.39C69.065 361.402 68.9634 361.371 68.8824 361.304C68.8824 361.304 64.8052 357.847 60.2107 358.572C60.1527 358.581 60.0937 358.574 60.0383 358.554Z" fill="#F0F0F0"/>
<path d="M60.3831 354.757C60.312 354.736 60.248 354.693 60.199 354.632C60.15 354.572 60.1181 354.498 60.1073 354.418C60.0987 354.362 60.1004 354.305 60.1123 354.25C60.1243 354.195 60.1461 354.143 60.1766 354.098C60.2072 354.052 60.2457 354.014 60.2901 353.984C60.3344 353.955 60.3836 353.936 60.4348 353.928C65.8913 352.986 70.322 356.688 70.4858 356.848C70.5498 356.928 70.5849 357.031 70.5844 357.137C70.5839 357.243 70.5478 357.345 70.483 357.424C70.4182 357.503 70.3292 357.553 70.2328 357.565C70.1364 357.577 70.0393 357.55 69.96 357.489C69.96 357.489 65.6499 353.89 60.5555 354.776C60.4975 354.784 60.4386 354.777 60.3831 354.757Z" fill="#F0F0F0"/>
<path d="M61.4433 350.499C61.3733 350.479 61.3102 350.437 61.2613 350.378C61.2124 350.32 61.1799 350.248 61.1675 350.17C61.1499 350.057 61.1735 349.942 61.2332 349.848C61.2929 349.755 61.3839 349.691 61.4864 349.67C66.6584 348.728 71.4081 352.553 71.5805 352.722C71.618 352.761 71.648 352.808 71.6684 352.86C71.6889 352.911 71.6994 352.967 71.6994 353.024C71.6994 353.08 71.6889 353.136 71.6684 353.188C71.648 353.24 71.618 353.286 71.5805 353.325C71.5473 353.368 71.5067 353.404 71.4609 353.43C71.415 353.455 71.365 353.471 71.3137 353.475C71.2623 353.48 71.2107 353.473 71.1617 353.455C71.1128 353.437 71.0676 353.409 71.0288 353.372C71.0288 353.372 66.3395 349.604 61.5468 350.546C61.5101 350.537 61.4751 350.521 61.4433 350.499Z" fill="#EBEBEB"/>
<path d="M89.9324 180.205C86.4844 188.607 83.3209 192.837 81.64 211.215C78.6402 243.978 76.718 268.31 76.718 268.31C76.0284 271.72 74.132 279.746 71.1064 293.433C68.2876 306.037 65.1672 331.367 65.1672 331.367C65.1672 331.367 72.9252 333.939 80.278 330.783C84.6656 318.726 95.4665 288.958 99.1214 274.376C102.716 260.039 108.819 238.213 108.819 238.213L113.129 271.362C113.129 271.362 112.129 284.606 112.457 292.425C112.836 301.515 116.465 332.479 116.465 332.479C116.465 332.479 124.421 336.812 130.74 331.81C130.74 331.81 134.369 280.32 134.541 269.374C134.886 247.916 136.343 202.709 133.153 180.205H89.9324Z" fill="#37474F"/>
<path d="M65.9344 325.48C68.5204 328.098 76.0284 331.565 80.2867 330.783L78.623 335.974C78.623 335.974 77.2525 337.132 71.8391 335.634C66.4257 334.137 65.1758 331.367 65.1758 331.367L65.9344 325.48Z" fill="#455A64"/>
<path d="M116.025 328.824C119.197 330.463 127.093 330.991 130.938 328.824L130.843 334.118C130.843 334.118 129.524 336.096 123.947 336.143C118.37 336.19 116.353 334.259 116.353 334.259L116.025 328.824Z" fill="#455A64"/>
<path d="M108.828 238.213L112.439 214.38C112.439 214.38 125.49 212.845 130.283 207.928C130.283 207.928 124.249 217.075 115.353 218.469L111.439 238.251L113.077 271.117L108.828 238.213Z" fill="#263238"/>
<path d="M126.714 119.427C132.636 119.295 133.61 120.519 136.196 122.328C138.325 123.816 164.642 148.582 164.642 148.582L157.987 158.944C151.764 157.06 147.35 154.13 141.566 149.524C135.782 144.917 129.498 140.17 129.498 140.17L126.714 119.427Z" fill="#F28F8F"/>
<path d="M110.689 113.69C110.444 113.225 110.155 112.79 109.827 112.39C107.44 109.564 103.311 109.903 100.164 110.704C97.3198 111.429 94.5873 112.673 91.6737 113.04C88.9454 113.356 86.2132 112.483 84.0709 110.61C83.3296 109.978 82.4934 109.197 81.5883 109.46C81.2377 109.608 80.9251 109.846 80.6774 110.154C80.4296 110.463 80.2541 110.832 80.166 111.231C79.6495 112.891 79.6164 114.684 80.0712 116.365C78.1185 115.648 76.4766 114.169 75.4595 112.211C75.239 111.617 74.8607 111.108 74.3734 110.751C74.0683 110.621 73.7341 110.595 73.4153 110.677C73.0965 110.76 72.8083 110.946 72.589 111.212C72.1537 111.746 71.8561 112.396 71.727 113.096C71.0925 115.7 71.2344 118.456 72.132 120.965C73.0296 123.474 74.6361 125.605 76.718 127.047C75.5517 127.168 74.3752 127.011 73.27 126.586C72.9633 126.506 72.6428 126.516 72.3404 126.613C72.0381 126.711 71.7642 126.893 71.546 127.142C71.3098 127.507 71.1602 127.93 71.1106 128.374C71.0609 128.818 71.1128 129.268 71.2616 129.685C71.9734 132.219 73.5056 134.382 75.5716 135.77C84.476 142.072 99.13 140.283 106.888 132.502C110.62 128.734 112.827 123.082 111.957 117.58C111.759 116.209 111.33 114.889 110.689 113.69Z" fill="#37474F"/>
<path d="M133.386 156.202C132.92 161.854 133.136 180.204 133.136 180.204C116.87 191.066 89.9325 180.204 89.9325 180.204C91.4755 176.041 93.8977 171.858 93.7512 167.892L90.3032 146.226C94.6157 138.233 96.6588 129.02 96.1734 119.756L107.776 118.438L118.861 118.777L126.723 119.389C130.713 123.476 134.065 128.249 136.644 133.519C140.67 141.931 139.308 149.429 133.386 156.202Z" fill="#ADD9C8"/>
<path d="M120.482 110.28C121.878 107.303 123.585 105.57 126.99 101.51C132.265 95.2173 131.903 82.0104 127.05 78.346C123.852 73.7208 118.68 70.7158 113.603 69.3594C109.103 68.1536 104.207 70.3014 100.371 72.8542C97.1488 75.0505 94.2752 77.8058 91.8634 81.0119C90.5508 82.5503 89.5493 84.3733 88.9239 86.3625C88.6565 87.1365 88.6565 87.9905 88.9239 88.7646C89.1373 89.1705 89.4397 89.5121 89.8038 89.7587C90.1679 90.0054 90.5824 90.1493 91.01 90.1776C91.8661 90.2197 92.7227 90.105 93.5442 89.8384C92.9753 89.9892 94.6735 93.013 95.0614 93.2485C96.211 93.8196 97.4745 94.0627 98.7335 93.955C99.5955 93.955 100.406 93.7666 101.242 93.7006C101.888 93.7006 102.906 93.4651 103.449 93.9079C103.971 94.4066 104.461 94.9449 104.914 95.5187L106.638 97.3368L113.319 104.373C115.724 106.832 118.094 107.784 120.482 110.28Z" fill="#37474F"/>
<path d="M128.688 92.9378C125.576 90.5168 123.18 92.4668 121.87 94.7558C121.622 95.3373 121.253 95.8471 120.792 96.2442C120.608 96.3651 120.401 96.4374 120.187 96.4554C119.973 96.4734 119.758 96.4365 119.559 96.3478C118.439 95.858 118.129 94.1718 117.904 93.0508C117.581 91.4271 117.505 89.756 117.68 88.1053C117.065 88.7308 116.262 89.0893 115.422 89.1133C115.007 89.1177 114.597 89.016 114.224 88.8165C113.851 88.617 113.527 88.3251 113.275 87.964C112.772 86.9267 112.556 85.7515 112.655 84.5822C112.612 83.2258 112.569 81.257 111.957 80.0418C111.491 79.0998 110.164 78.4592 109.371 78.0071C107.759 77.1216 105.923 76.01 104.104 76.1231C103.061 76.1231 102.009 76.01 100.957 76.0571C100.095 76.1042 98.5956 76.0006 97.8026 76.4434C95.2166 77.894 92.5702 80.7577 93.1219 95.1609C93.5615 106.465 96.363 111.825 98.1301 112.814C99.8972 113.803 102.061 114.029 105.5 113.643V120.049C105.44 120.435 111.31 129.817 119.74 132.04C122.326 128.903 123.326 124.664 120.421 119.163L120.611 102.895C121.555 103.737 122.738 104.192 123.956 104.182C125.175 104.172 126.351 103.696 127.283 102.838C130.162 100.314 131.231 94.916 128.688 92.9378Z" fill="#FFA8A7"/>
<path d="M127.274 94.6237C127.039 94.401 126.765 94.2313 126.469 94.1246C126.173 94.0179 125.861 93.9763 125.55 94.002C124.978 94.014 124.425 94.2332 123.979 94.6253C123.533 95.0174 123.219 95.5602 123.085 96.1686C123.067 96.3006 123.097 96.435 123.167 96.5438C123.238 96.6526 123.344 96.7274 123.464 96.7527C123.757 96.828 124.05 96.828 124.326 96.894C124.602 96.9599 124.654 97.1483 124.688 97.4403C124.707 97.6163 124.685 97.7946 124.625 97.9591C124.565 98.1236 124.468 98.2691 124.344 98.3823C124.219 98.4956 124.074 98.5779 123.918 98.6234C123.761 98.669 123.598 98.6767 123.438 98.6461C123.278 98.5948 123.106 98.6031 122.95 98.6695C122.794 98.736 122.663 98.8569 122.576 99.0135C122.475 99.2411 122.4 99.4815 122.352 99.7294C122.322 99.9005 122.322 100.076 122.352 100.247C122.369 100.612 122.493 100.962 122.705 101.243C122.918 101.525 123.209 101.724 123.533 101.811C123.881 101.932 124.25 101.964 124.611 101.905C124.793 101.892 124.97 101.837 125.132 101.745C125.294 101.652 125.436 101.524 125.55 101.368C125.302 101.483 125.035 101.542 124.766 101.542C124.496 101.542 124.23 101.483 123.982 101.368C123.649 101.25 123.361 101.015 123.163 100.7C123.045 100.495 122.999 100.25 123.034 100.011C123.069 99.7715 123.182 99.5544 123.352 99.3997C123.455 99.3823 123.56 99.3823 123.663 99.3997C123.828 99.4278 123.997 99.4278 124.163 99.3997C124.509 99.3121 124.826 99.1195 125.076 98.8439C125.306 98.5581 125.448 98.2007 125.482 97.8222C125.516 97.4437 125.44 97.063 125.266 96.7338C125.124 96.5101 124.935 96.3273 124.714 96.201C124.493 96.0747 124.248 96.0086 123.999 96.0085C124.166 95.6263 124.428 95.3038 124.756 95.0786C125.085 94.8534 125.465 94.7349 125.852 94.7368C126.3 94.7098 126.744 94.8313 127.128 95.0853C127.315 95.218 127.481 95.3835 127.619 95.5752C127.742 95.7464 127.841 95.9369 127.912 96.1404C127.916 95.8516 127.86 95.5657 127.75 95.3033C127.64 95.0409 127.477 94.8087 127.274 94.6237Z" fill="#F28F8F"/>
<path d="M88.7085 77.5925C88.9326 77.0367 89.1826 76.4998 89.4584 75.9628C93.7684 67.7109 103.138 64.6588 111.345 65.4407C121.577 66.3827 128.188 72.3361 127.128 80.0511L121.878 80.3996C120.792 80.475 119.697 80.2772 118.637 80.4656C116.92 80.8373 115.292 81.5908 113.853 82.6793C112.064 84.1144 110.177 85.3962 108.207 86.5132C107.276 86.956 106.017 87.2009 105.38 86.3342C104.742 85.4676 105.207 84.1865 105.698 83.2068C103.95 84.8253 101.847 85.9192 99.5955 86.3813C98.587 86.5792 97.3716 86.5792 96.7423 85.6937C96.1131 84.8082 96.432 83.3952 96.8975 82.3119C95.1527 83.4859 93.097 83.9837 91.0617 83.7249C90.4853 83.7067 89.9215 83.536 89.4185 83.2276C88.9156 82.9192 88.4886 82.4821 88.174 81.9539C87.9886 81.4099 87.9067 80.8301 87.9334 80.2503C87.9601 79.6704 88.0948 79.1026 88.3292 78.5816C88.4412 78.2613 88.5706 77.9316 88.7085 77.5925Z" fill="#37474F"/>
<path d="M107.888 93.418C107.89 93.8608 108.047 94.2859 108.328 94.6051C108.609 94.9243 108.992 95.1131 109.396 95.1325C109.594 95.1439 109.792 95.1116 109.978 95.0376C110.165 94.9635 110.335 94.8492 110.48 94.7015C110.625 94.5538 110.741 94.3757 110.821 94.1778C110.902 93.9799 110.945 93.7664 110.948 93.5499C110.949 93.1126 110.797 92.6915 110.523 92.3728C110.249 92.0541 109.873 91.8619 109.474 91.8355C109.273 91.8187 109.072 91.8471 108.882 91.9187C108.691 91.9904 108.517 92.1038 108.368 92.2521C108.219 92.4003 108.1 92.5803 108.018 92.7808C107.935 92.9813 107.891 93.1982 107.888 93.418Z" fill="#263238"/>
<path d="M94.3459 90.8842L96.9319 88.0582C96.776 87.863 96.5848 87.705 96.3704 87.5941C96.1561 87.4833 95.923 87.4219 95.686 87.414C95.4489 87.406 95.2129 87.4516 94.9927 87.5479C94.7725 87.6441 94.5729 87.789 94.4062 87.9734C94.0501 88.3537 93.8443 88.8713 93.833 89.4154C93.8217 89.9594 94.0058 90.4867 94.3459 90.8842Z" fill="#263238"/>
<path d="M95.682 93.6349C95.6838 94.0777 95.8415 94.5027 96.1224 94.8219C96.4032 95.1411 96.7857 95.3299 97.1905 95.3493C97.3883 95.3607 97.5863 95.3284 97.7724 95.2544C97.9586 95.1803 98.1292 95.066 98.274 94.9183C98.4189 94.7706 98.535 94.5925 98.6154 94.3946C98.6958 94.1968 98.7389 93.9832 98.7421 93.7667C98.7424 93.3232 98.5854 92.8969 98.3041 92.5772C98.0229 92.2575 97.6391 92.0694 97.2336 92.0523C97.0358 92.0409 96.8379 92.0731 96.6517 92.1472C96.4655 92.2212 96.2949 92.3355 96.1501 92.4833C96.0053 92.631 95.8892 92.8091 95.8087 93.007C95.7283 93.2048 95.6852 93.4184 95.682 93.6349Z" fill="#263238"/>
<path d="M109.086 87.7849L112.06 90.0363C112.207 89.8316 112.313 89.596 112.372 89.3442C112.431 89.0925 112.442 88.8301 112.404 88.5735C112.366 88.3169 112.28 88.0717 112.151 87.8533C112.022 87.6349 111.853 87.4481 111.655 87.3045C111.251 87.0129 110.761 86.9003 110.284 86.9896C109.806 87.0788 109.378 87.3632 109.086 87.7849Z" fill="#263238"/>
<path d="M103.75 89.8667L103.543 101.208L98.3801 100.003L103.75 89.8667Z" fill="#F28F8F"/>
<path d="M105.457 113.615C109.086 113.021 116.784 110.902 118.111 107.793C117.56 109.57 116.529 111.124 115.155 112.249C112.827 114.133 105.457 115.875 105.457 115.875V113.615Z" fill="#F28F8F"/>
<path d="M109.284 104.75C109.284 105.164 109.172 105.568 108.962 105.912C108.752 106.256 108.453 106.524 108.103 106.682C107.753 106.841 107.369 106.882 106.997 106.801C106.626 106.721 106.285 106.522 106.018 106.229C105.75 105.937 105.568 105.564 105.494 105.158C105.42 104.753 105.458 104.332 105.603 103.95C105.748 103.568 105.993 103.241 106.308 103.012C106.622 102.782 106.992 102.659 107.371 102.659C107.878 102.659 108.365 102.88 108.724 103.272C109.083 103.664 109.284 104.196 109.284 104.75Z" fill="#B16668"/>
<path d="M107.121 106.587C107.117 106.663 107.117 106.738 107.121 106.813C107.195 106.818 107.27 106.818 107.345 106.813C107.852 106.813 108.339 106.593 108.698 106.201C109.057 105.809 109.259 105.277 109.259 104.722C109.263 104.644 109.263 104.565 109.259 104.487H109.034C108.782 104.485 108.532 104.539 108.299 104.644C108.065 104.749 107.854 104.904 107.676 105.1C107.498 105.295 107.357 105.527 107.262 105.783C107.166 106.038 107.118 106.311 107.121 106.587Z" fill="#F28F8F"/>
<path d="M138.049 93.8985C137.282 92.787 136.205 91.3645 135.903 90.8747C135.3 89.9327 134.032 91.308 134.317 92.7587C134.831 94.4681 135.537 96.1009 136.42 97.6194C137.067 98.8158 137.549 103.121 137.213 105.674C137.041 106.983 136.274 108.123 135.368 107.558C134.463 106.992 133.3 104.392 132.17 103.79C131.041 103.187 129.791 103.488 129.533 104.195C129.274 104.901 130.446 106.079 130.946 107.529C131.446 108.98 131.808 112.974 132.67 114.754C133.75 116.434 134.999 117.976 136.394 119.351C138.542 118.082 140.362 116.242 141.687 114.001C143.868 110.214 143.239 99.2491 138.049 93.8985Z" fill="#FFA8A7"/>
<path d="M142.23 107.595C142.368 107.096 142.575 106.437 142.764 105.626C142.359 101.435 140.894 96.8282 138.058 93.8985C137.549 93.1544 136.894 92.2689 136.429 91.6189C136.523 92.7822 136.859 93.9067 137.411 94.9065C138.131 96.2011 138.695 97.5908 139.092 99.0419C139.342 99.9839 139.644 101.868 140.015 103.516C140.324 105.562 140.522 107.625 140.609 109.696C140.609 109.696 141.661 109.752 142.23 107.595Z" fill="#F28F8F"/>
<path d="M140.506 91.374C138.73 88.9531 138.291 88.3785 137.92 88.4444C136.575 88.6611 136.86 92.6175 137.825 94.3978C138.673 95.9062 139.285 97.5585 139.635 99.2868C139.86 100.693 139.975 102.117 139.98 103.545C139.98 103.545 138.773 109.602 138.394 111.439C138.394 111.439 142.264 109.178 142.825 107.021C143.385 104.863 145.48 100.003 140.506 91.374Z" fill="#FFA8A7"/>
<path d="M143.092 105.994C143.799 103.498 144.816 98.8723 140.506 91.3458L139.747 90.3096C139.396 90.9312 139.279 91.6773 139.42 92.3914C139.644 94.1341 140.98 96.7528 141.256 98.0434C141.559 99.492 141.769 100.962 141.885 102.443L143.092 105.994Z" fill="#F28F8F"/>
<path d="M143.239 92.6739C142.127 90.7239 141.937 89.5935 141.515 89.2261C141.092 88.8588 139.791 90.4319 140.023 92.1746C140.462 94.2246 141.038 96.2365 141.747 98.194C142.135 99.9744 142.058 104.543 141.463 106.041C141.463 106.041 143.937 106.559 144.911 104.703C145.885 102.847 145.678 97.8266 143.239 92.6739Z" fill="#FFA8A7"/>
<path d="M143.239 92.6739L142.756 91.7319C142.04 92.5703 141.894 93.2015 142.377 95.2456C142.963 97.6665 143.902 99.9556 143.79 101.915C144.255 101.455 144.801 101.102 145.394 100.879C145.222 98.0066 144.487 95.2084 143.239 92.6739Z" fill="#F28F8F"/>
<path d="M136.429 119.295C134.153 116.328 136.239 113.643 137.291 111.853C138.713 109.328 142.144 105.4 142.825 104.176C143.365 103.403 143.734 102.503 143.902 101.548C144.126 100.248 143.54 98.3354 143.144 96.5927C142.282 92.7681 142.851 92.0616 143.557 91.8827C144.264 91.7037 145.075 94.3507 145.644 95.6507C146.212 96.9506 147.876 101.105 147.824 102.631C147.63 105.768 147.162 108.878 146.428 111.919C145.756 114.538 150.626 121.235 150.626 121.235L140.808 128.649C139.552 125.422 138.088 122.296 136.429 119.295Z" fill="#FFA8A7"/>
<path d="M142.497 104.279C141.434 105.959 140.173 107.479 138.748 108.801C137.317 110.327 136.093 112.974 136.093 114.557C136.66 112.482 137.772 110.635 139.291 109.244C140.779 107.965 141.893 106.24 142.497 104.279Z" fill="#F28F8F"/>
<path d="M138.937 124.278C141.265 130.156 146.393 146.048 148.29 149.985C151.195 156.033 158.634 160.705 161.547 158.943C164.461 157.182 165.676 149.947 163.815 143.476C161.634 135.874 150.445 121.81 147.988 117.1L138.937 124.278Z" fill="#FFA8A7"/>
<path d="M96.1389 119.794C85.4501 119.794 82.571 124.994 79.3385 133.585C76.106 142.176 68.96 165.038 68.96 165.038C66.7821 169.147 64.9362 173.456 63.4432 177.916C61.7192 183.247 56.3231 204.527 54.2198 205.601C52.1165 206.675 42.8587 206.543 39.3503 207.551C35.842 208.559 31.2648 211.988 28.8598 214.145C28.4805 215.445 30.1355 215.793 31.3079 215.614C33.4715 215.275 36.8333 213.344 39.2038 213.25C42.2552 213.131 45.3096 213.368 48.3151 213.957C49.2978 214.258 49.0047 215.125 45.7895 217.018C42.5742 218.911 41.9967 221.012 42.2811 222.086C42.5656 223.16 43.8241 222.086 46.0739 221.012C48.3237 219.938 52.2458 218.714 55.7628 217.018C59.2798 215.322 61.3744 215.181 63.3398 212.723C65.3051 210.264 65.8741 207.72 68.2532 202.653C70.6323 197.585 75.6319 188.975 77.6576 184.632C80.4591 178.65 81.6831 173.78 84.6312 167.252C88.1309 159.518 95.5613 142.553 95.5613 142.553C95.5613 142.553 100.164 127.481 96.1389 119.794Z" fill="#FFA8A7"/>
<path d="M147.635 88.9342C147.525 88.9335 147.42 88.8862 147.342 88.8023C147.303 88.7611 147.273 88.712 147.252 88.6578C147.231 88.6037 147.221 88.5455 147.221 88.4868C147.221 88.428 147.231 88.3699 147.252 88.3157C147.273 88.2615 147.303 88.2124 147.342 88.1712L153.238 82.1141C153.275 82.0723 153.32 82.039 153.37 82.0163C153.42 81.9936 153.473 81.9819 153.527 81.9819C153.58 81.9819 153.633 81.9936 153.683 82.0163C153.733 82.039 153.778 82.0723 153.815 82.1141C153.853 82.1545 153.884 82.2028 153.904 82.2562C153.925 82.3096 153.936 82.367 153.936 82.425C153.936 82.483 153.925 82.5404 153.904 82.5938C153.884 82.6471 153.853 82.6955 153.815 82.7359L147.919 88.8023C147.842 88.8818 147.741 88.9285 147.635 88.9342Z" fill="#E0E0E0"/>
<path d="M149.04 92.2029C148.952 92.2042 148.866 92.1734 148.796 92.1154C148.725 92.0574 148.675 91.9755 148.652 91.8827C148.623 91.7702 148.635 91.6497 148.687 91.5473C148.738 91.445 148.825 91.3691 148.928 91.3363L156.686 88.8871C156.789 88.855 156.899 88.8687 156.993 88.9252C157.086 88.9817 157.156 89.0763 157.186 89.1885C157.215 89.3022 157.203 89.424 157.151 89.5279C157.1 89.6317 157.013 89.7094 156.91 89.7443L149.152 92.1841L149.04 92.2029Z" fill="#E0E0E0"/>
<path d="M157.824 97.1766H157.746L149.738 96.0838C149.685 96.0769 149.633 96.0584 149.586 96.0294C149.54 96.0004 149.499 95.9616 149.466 95.9151C149.433 95.8686 149.409 95.8155 149.395 95.7587C149.381 95.702 149.377 95.6428 149.385 95.5846C149.402 95.4688 149.458 95.3645 149.543 95.2928C149.628 95.2211 149.735 95.1873 149.841 95.1983L157.875 96.3005C157.982 96.3169 158.079 96.3783 158.145 96.4716C158.211 96.5648 158.241 96.6826 158.229 96.7998C158.214 96.9054 158.165 97.0017 158.091 97.071C158.016 97.1403 157.921 97.1777 157.824 97.1766Z" fill="#E0E0E0"/>
</svg>
