<svg width="533" height="355" viewBox="0 0 533 355" fill="none" xmlns="http://www.w3.org/2000/svg">
<path d="M516.512 224.466C516.512 224.466 512.398 222.038 508.02 231.794C503.642 241.549 502.072 247.13 502.072 247.13C502.072 247.13 500.885 249.182 499.449 247.946C498.014 246.711 495.953 243.111 493.657 243.892C491.362 244.673 490.616 247.442 491.27 251.368C491.923 255.295 493.053 263.985 493.153 264.766C493.252 265.547 492.861 266.697 491.731 266.016C490.602 265.334 484.085 258.752 481.15 262.033C478.215 265.313 481.86 275.984 482.216 277.156C482.571 278.327 482.386 278.845 481.832 279.172C481.278 279.499 479.295 277.077 477.362 275.281C475.429 273.485 472.863 271.731 471.328 273.776C469.793 275.821 469.672 283.957 478.058 296.759L482.322 302.439L489.429 301.686C504.538 299.166 510.443 293.549 510.898 291.036C511.353 288.523 508.333 287.827 505.703 287.628C503.074 287.429 499.94 287.628 499.805 286.982C499.67 286.336 499.911 285.853 501.027 285.335C502.143 284.816 512.455 280.244 512.874 275.863C513.293 271.483 504.026 271.142 502.768 270.794C501.51 270.446 502.1 269.374 502.768 268.912C503.436 268.451 510.585 263.396 513.897 261.209C517.209 259.022 518.801 256.679 517.777 254.379C516.754 252.078 512.746 253.101 510.863 252.881C508.979 252.661 509.69 250.403 509.69 250.403C509.69 250.403 512.732 245.468 516.939 235.635C521.146 225.801 516.441 224.417 516.441 224.417" fill="#EBEBEB"/>
<path d="M481.278 303.766C484.39 296.56 490.147 283.837 495.029 272.888C499.911 261.94 504.317 252.036 507.466 244.843L511.19 236.323C511.63 235.329 511.971 234.548 512.206 234.009L512.476 233.405L512.575 233.207L512.497 233.42C512.433 233.562 512.355 233.767 512.248 234.023C512.021 234.57 511.694 235.351 511.268 236.359C510.422 238.382 509.171 241.329 507.608 244.879C504.495 252.093 500.11 262.018 495.228 272.959C490.346 283.901 484.568 296.617 481.42 303.809" fill="#E0E0E0"/>
<path d="M496.337 249.047C496.421 249.198 496.49 249.357 496.543 249.522C496.656 249.828 496.82 250.282 497.005 250.836C497.381 251.958 497.865 253.513 498.369 255.245C498.874 256.977 499.3 258.497 499.634 259.675L500.032 261.017C500.092 261.177 500.133 261.344 500.153 261.514C500.068 261.366 499.999 261.209 499.947 261.046C499.833 260.733 499.67 260.286 499.485 259.725C499.123 258.596 498.661 257.034 498.156 255.309C497.651 253.584 497.204 252.064 496.855 250.886C496.699 250.353 496.564 249.906 496.458 249.551C496.398 249.388 496.357 249.219 496.337 249.047Z" fill="#E0E0E0"/>
<path d="M500.814 261.607C500.814 261.55 503.962 260.414 507.921 259.072C511.879 257.73 515.027 256.686 515.07 256.743C515.112 256.8 511.922 257.936 507.963 259.278C504.005 260.62 500.835 261.663 500.814 261.607Z" fill="#E0E0E0"/>
<path d="M492.556 278.079C492.729 278.041 492.905 278.025 493.082 278.029L494.503 277.965C495.711 277.908 497.346 277.823 499.201 277.66C501.055 277.496 502.683 277.298 503.877 277.141L505.298 276.964C505.471 276.931 505.648 276.916 505.824 276.921C505.658 276.98 505.487 277.023 505.312 277.049C504.985 277.113 504.502 277.205 503.891 277.298C502.704 277.496 501.048 277.717 499.215 277.88C497.381 278.043 495.711 278.1 494.503 278.121C493.899 278.121 493.409 278.121 493.082 278.121C492.905 278.126 492.729 278.112 492.556 278.079Z" fill="#E0E0E0"/>
<path d="M486.004 267.606C486.117 267.723 486.217 267.851 486.302 267.99L487.048 269.083C487.667 270.006 488.512 271.291 489.429 272.718C490.346 274.145 491.17 275.452 491.753 276.396C492.023 276.843 492.25 277.22 492.464 277.525C492.555 277.657 492.629 277.8 492.684 277.951C492.571 277.834 492.471 277.705 492.385 277.568L491.675 276.481C491.056 275.558 490.211 274.266 489.294 272.839C488.377 271.412 487.553 270.112 486.963 269.168C486.7 268.721 486.465 268.345 486.252 268.039C486.155 267.904 486.071 267.759 486.004 267.606Z" fill="#E0E0E0"/>
<path d="M476.857 281.224C476.996 281.379 477.122 281.545 477.234 281.721L478.186 283.141C478.989 284.319 480.084 285.981 481.278 287.777C482.472 289.573 483.545 291.256 484.312 292.456L485.215 293.876C485.332 294.046 485.432 294.226 485.513 294.416C485.378 294.259 485.255 294.093 485.144 293.919C484.888 293.557 484.568 293.088 484.184 292.499C483.381 291.32 482.287 289.659 481.093 287.862C479.899 286.066 478.826 284.383 478.058 283.183L477.163 281.763C477.042 281.595 476.94 281.414 476.857 281.224Z" fill="#E0E0E0"/>
<path d="M485.385 294.025C485.619 293.975 485.857 293.947 486.096 293.94L487.901 293.791C489.422 293.663 491.525 293.486 493.842 293.216C496.159 292.946 498.248 292.655 499.762 292.428L501.553 292.165C501.771 292.125 501.992 292.101 502.214 292.094C502.003 292.164 501.787 292.217 501.567 292.25C501.148 292.335 500.537 292.456 499.783 292.584C498.277 292.847 496.187 293.166 493.864 293.436C491.54 293.706 489.436 293.862 487.908 293.947C487.148 293.99 486.529 294.018 486.096 294.025C485.86 294.055 485.621 294.055 485.385 294.025Z" fill="#E0E0E0"/>
<path d="M102.393 102.481C102.393 102.481 97.937 104.214 102.919 113.678C107.901 123.142 111.319 127.8 111.319 127.8C111.319 127.8 112.207 130.001 110.352 130.37C108.497 130.739 104.383 130.129 103.58 132.415C102.777 134.701 104.468 137.03 108.021 138.933C111.575 140.836 119.058 145.323 119.733 145.72C120.408 146.118 121.076 147.14 119.847 147.595C118.617 148.049 109.379 149.1 110.153 153.459C110.928 157.819 121.567 161.525 122.718 161.979C123.869 162.434 124.139 162.895 124.068 163.527C123.997 164.159 120.849 164.237 118.241 164.642C115.633 165.047 112.683 165.984 113.337 168.455C113.991 170.925 120.33 176.037 135.588 177.351L142.695 177.493L146.49 171.451C153.824 158.018 153.049 149.909 151.358 148.021C149.666 146.132 147.25 148.056 145.466 150.002C143.683 151.947 141.913 154.517 141.316 154.262C140.719 154.006 140.492 153.481 140.776 152.281C141.06 151.081 143.825 140.161 140.627 137.122C137.429 134.084 131.452 141.169 130.393 141.943C129.334 142.717 128.865 141.588 128.894 140.807C128.922 140.026 129.356 131.279 129.697 127.317C130.038 123.355 129.157 120.672 126.719 120.054C124.281 119.436 122.604 123.213 121.268 124.562C119.932 125.911 118.589 123.952 118.589 123.952C118.589 123.952 116.585 118.513 111.433 109.141C106.28 99.7693 102.336 102.524 102.336 102.524" fill="#EBEBEB"/>
<path d="M143.086 179.133C139.333 172.232 132.866 159.856 127.259 149.263C121.652 138.67 116.599 129.085 112.854 122.17L108.441 113.983L107.24 111.754L106.934 111.172C106.863 111.037 106.834 110.966 106.834 110.966L106.955 111.158L107.282 111.733L108.512 113.941C109.585 115.858 111.113 118.641 112.989 122.092C116.741 128.993 121.851 138.571 127.451 149.157C133.051 159.743 139.532 172.139 143.228 179.055" fill="#E0E0E0"/>
<path d="M109.293 133.516C109.464 133.537 109.631 133.58 109.791 133.643L111.12 134.091C112.228 134.488 113.756 135.071 115.426 135.745L119.69 137.477L120.991 137.996C121.153 138.053 121.31 138.124 121.46 138.209C121.29 138.183 121.124 138.14 120.962 138.081C120.643 137.982 120.188 137.825 119.634 137.627C118.525 137.222 117.011 136.618 115.37 135.944L111.106 134.24L109.805 133.729C109.627 133.676 109.456 133.604 109.293 133.516Z" fill="#E0E0E0"/>
<path d="M121.943 137.74C121.886 137.74 122.952 134.531 124.324 130.64C125.696 126.749 126.847 123.54 126.904 123.575C126.961 123.611 125.902 126.792 124.53 130.675C123.158 134.559 122 137.74 121.943 137.74Z" fill="#E0E0E0"/>
<path d="M129.818 154.404C129.901 154.25 129.996 154.103 130.102 153.964L130.933 152.799C131.644 151.819 132.589 150.463 133.591 148.923C134.593 147.382 135.46 145.962 136.071 144.932C136.363 144.443 136.604 144.031 136.782 143.704C136.864 143.55 136.962 143.405 137.073 143.271C137.02 143.437 136.949 143.597 136.86 143.747C136.704 144.052 136.476 144.457 136.15 145.011C135.567 146.061 134.728 147.503 133.719 149.043C132.71 150.584 131.729 151.933 131.004 152.891C130.635 153.374 130.329 153.758 130.116 154.013C130.032 154.155 129.932 154.286 129.818 154.404Z" fill="#E0E0E0"/>
<path d="M117.53 153.09C117.693 153.072 117.857 153.072 118.02 153.09L119.335 153.183C120.444 153.268 121.979 153.396 123.67 153.559C125.362 153.722 126.897 153.871 127.998 153.999L129.313 154.155C129.474 154.167 129.634 154.196 129.789 154.24C129.628 154.259 129.466 154.259 129.306 154.24L127.984 154.148C126.875 154.07 125.34 153.935 123.649 153.779C121.957 153.623 120.43 153.459 119.321 153.339L118.013 153.175C117.849 153.168 117.687 153.14 117.53 153.09Z" fill="#E0E0E0"/>
<path d="M122.611 168.675C122.819 168.658 123.029 168.658 123.237 168.675L124.921 168.781C126.342 168.881 128.311 169.03 130.486 169.214C132.66 169.399 134.622 169.576 136.043 169.718L137.72 169.896C137.929 169.907 138.136 169.938 138.338 169.988C138.13 170.008 137.921 170.008 137.713 169.988L136.029 169.882C134.607 169.782 132.639 169.626 130.464 169.441C128.29 169.257 126.328 169.079 124.914 168.944L123.23 168.767C123.021 168.754 122.814 168.723 122.611 168.675Z" fill="#E0E0E0"/>
<path d="M137.969 169.867C138.068 169.668 138.184 169.478 138.317 169.299L139.312 167.787C140.15 166.509 141.309 164.748 142.524 162.76C143.739 160.772 144.805 158.948 145.559 157.62C145.928 156.988 146.227 156.456 146.461 156.051C146.561 155.854 146.677 155.667 146.809 155.49C146.735 155.699 146.642 155.901 146.532 156.093C146.348 156.477 146.063 157.024 145.701 157.698C144.99 159.047 143.938 160.886 142.716 162.874C141.494 164.862 140.314 166.623 139.44 167.844C138.999 168.476 138.644 168.973 138.388 169.321C138.266 169.516 138.125 169.699 137.969 169.867Z" fill="#E0E0E0"/>
<path d="M60.0086 155.149C61.8549 153.753 63.8791 152.61 66.028 151.748L66.6747 145.358L77.2068 144.066L79.3388 150.094C81.6345 150.411 83.8784 151.029 86.0119 151.933L90.9866 147.879L99.3511 154.404L96.6506 160.204C98.0478 162.051 99.1926 164.076 100.055 166.225L106.451 166.864L107.751 177.386L101.718 179.559C101.402 181.851 100.783 184.09 99.877 186.219L103.928 191.189L97.3613 199.51L91.5551 196.777C89.7118 198.179 87.6869 199.325 85.5358 200.185L84.8962 206.575L74.3641 207.874L72.1895 201.839C69.8957 201.524 67.6541 200.905 65.5234 200L60.5487 204.054L52.1771 197.529L54.9131 191.736C53.5112 189.893 52.3638 187.87 51.5019 185.722L45.1059 185.076L43.8054 174.554L49.8461 172.388C50.1616 170.094 50.7806 167.852 51.6867 165.721L47.6288 160.751L54.1598 152.394L59.9589 155.121L60.0086 155.149ZM67.1153 168.604C65.7357 170.376 64.9128 172.518 64.7506 174.757C64.5884 176.997 65.0941 179.234 66.2038 181.186C67.3136 183.139 68.9776 184.719 70.9858 185.727C72.9939 186.736 75.2561 187.127 77.4865 186.851C79.717 186.576 81.8158 185.646 83.5177 184.18C85.2197 182.713 86.4485 180.776 87.0489 178.612C87.6494 176.448 87.5946 174.155 86.8914 172.023C86.1883 169.89 84.8683 168.014 83.0982 166.63C81.9199 165.709 80.5713 165.029 79.1296 164.63C77.6879 164.231 76.1815 164.119 74.6967 164.303C73.2119 164.486 71.778 164.96 70.477 165.699C69.176 166.437 68.0336 167.424 67.1153 168.604Z" fill="#EBEBEB"/>
<path d="M363.563 35.5356C364.989 34.672 366.523 34.0011 368.125 33.5405L369.078 28.9965L376.753 28.8687L377.89 33.3701C379.516 33.7718 381.081 34.3878 382.545 35.2019L386.432 32.6601L391.954 37.9922L389.552 41.954C390.427 43.3867 391.108 44.929 391.577 46.5406L396.118 47.492L396.253 55.16L391.748 56.2676C391.346 57.8921 390.729 59.456 389.914 60.9181L392.458 64.8018L387.093 70.2901L383.127 67.8903C381.691 68.7552 380.144 69.4239 378.529 69.8783L377.584 74.4223L369.902 74.5572L368.836 70.077C367.207 69.681 365.639 69.0673 364.174 68.2523L360.294 70.7942L354.765 65.462L357.174 61.4932C356.305 60.061 355.633 58.5182 355.177 56.9066L350.636 55.9623L350.465 48.2801L354.971 47.1796C355.373 45.5528 355.989 43.9865 356.804 42.522L354.26 38.6454L359.597 33.1287L363.563 35.5356ZM367.656 45.7596C366.526 46.931 365.769 48.4109 365.48 50.0121C365.192 51.6134 365.385 53.2642 366.035 54.7559C366.685 56.2476 367.764 57.5132 369.134 58.3928C370.504 59.2725 372.104 59.7266 373.732 59.6978C375.361 59.6691 376.944 59.1587 378.282 58.2312C379.62 57.3038 380.653 56.0008 381.25 54.4871C381.847 52.9734 381.981 51.3168 381.636 49.7267C381.291 48.1367 380.482 46.6845 379.311 45.5537C378.533 44.8019 377.614 44.2108 376.606 43.8143C375.599 43.4177 374.523 43.2235 373.441 43.2426C372.358 43.2617 371.29 43.4939 370.298 43.9257C369.305 44.3576 368.408 44.9808 367.656 45.7596Z" fill="#F5F5F5"/>
<path d="M458.437 103.71C459.341 103.164 460.313 102.741 461.329 102.453L461.926 99.613L466.773 99.5278L467.484 102.368C468.508 102.625 469.495 103.014 470.419 103.525L472.871 101.921L476.353 105.286L474.832 107.785C475.379 108.688 475.802 109.66 476.09 110.675L478.932 111.271L479.018 116.113L476.175 116.823C475.919 117.847 475.529 118.833 475.017 119.756L476.623 122.205L473.304 125.67L470.802 124.158C469.896 124.698 468.924 125.12 467.91 125.414L467.313 128.254L462.466 128.34L461.756 125.5C460.73 125.247 459.743 124.858 458.821 124.342L456.369 125.947L452.887 122.582L454.407 120.082C453.86 119.18 453.436 118.208 453.15 117.193L450.307 116.596L450.222 111.761L453.064 111.051C453.322 110.028 453.711 109.042 454.223 108.119L452.617 105.676L455.985 102.19L458.487 103.71H458.437ZM461.017 110.157C460.304 110.896 459.827 111.829 459.645 112.84C459.463 113.85 459.586 114.891 459.996 115.832C460.407 116.773 461.088 117.571 461.952 118.125C462.817 118.679 463.827 118.965 464.854 118.946C465.881 118.927 466.879 118.605 467.723 118.019C468.566 117.433 469.217 116.611 469.593 115.656C469.969 114.7 470.053 113.655 469.834 112.653C469.616 111.65 469.104 110.734 468.365 110.022C467.874 109.548 467.294 109.176 466.659 108.927C466.023 108.677 465.345 108.555 464.663 108.568C463.98 108.58 463.307 108.727 462.681 109C462.056 109.272 461.49 109.665 461.017 110.157Z" fill="#F5F5F5"/>
<path d="M52.7172 81.8418C54.4759 80.7786 56.3688 79.9549 58.3457 79.3923L59.5041 73.8401L68.9346 73.6626L70.292 79.1864C72.2787 79.6779 74.1907 80.4325 75.9773 81.43L80.7388 78.3131L87.5186 84.8522L84.5693 89.7157C85.6364 91.4712 86.4611 93.3627 87.0211 95.3389L92.5927 96.4962L92.7562 105.911L87.2272 107.26C86.7352 109.245 85.9799 111.155 84.9815 112.94L88.1013 117.697L81.5561 124.47L76.6951 121.524C74.9331 122.583 73.038 123.405 71.0595 123.966L69.9011 129.532L60.4848 129.696L59.1274 124.172C57.1402 123.682 55.2279 122.928 53.4421 121.928L48.6806 125.045L41.8867 118.57L44.8359 113.714C43.77 111.955 42.9454 110.061 42.3841 108.083L36.8125 106.926L36.649 97.5186L42.178 96.1625C42.6712 94.1781 43.4264 92.268 44.4237 90.4825L41.3039 85.7255L47.8492 78.9592L52.7172 81.9057V81.8418ZM57.7345 94.3733C56.3453 95.8094 55.4136 97.6248 55.0573 99.59C54.701 101.555 54.9361 103.582 55.7328 105.413C56.5295 107.245 57.8521 108.8 59.5332 109.88C61.2143 110.961 63.1784 111.519 65.1771 111.484C67.1758 111.449 69.1193 110.823 70.7618 109.685C72.4042 108.546 73.6718 106.947 74.4042 105.089C75.1366 103.23 75.3009 101.197 74.8763 99.2452C74.4517 97.2936 73.4573 95.5117 72.0189 94.1248C70.0904 92.2679 67.5033 91.2512 64.8253 91.2978C62.1473 91.3444 59.5972 92.4505 57.7345 94.3733Z" fill="#F5F5F5"/>
<path d="M461.933 146.75C463.369 145.886 464.913 145.215 466.524 144.755L467.469 140.218L475.152 140.083L476.26 144.584C477.886 144.986 479.452 145.602 480.915 146.416L484.795 143.874L490.324 149.207L487.915 153.168C488.786 154.602 489.458 156.147 489.912 157.762L494.461 158.706L494.596 166.374L490.083 167.482C489.686 169.11 489.069 170.677 488.249 172.14L490.793 176.016L485.463 181.533L481.491 179.133C480.055 179.997 478.512 180.668 476.9 181.128L475.955 185.665L468.272 185.8L467.171 181.299C465.543 180.897 463.975 180.281 462.509 179.467L458.629 182.009L453.1 176.676L455.509 172.715C454.641 171.279 453.969 169.734 453.512 168.121L448.964 167.177L448.829 159.509L453.341 158.401C453.745 156.775 454.361 155.209 455.175 153.743L452.631 149.867L457.968 144.35L461.933 146.75ZM466.027 156.974C464.897 158.145 464.139 159.625 463.851 161.227C463.562 162.828 463.755 164.479 464.406 165.97C465.056 167.462 466.134 168.728 467.504 169.607C468.874 170.487 470.474 170.941 472.103 170.912C473.731 170.883 475.314 170.373 476.652 169.446C477.99 168.518 479.023 167.215 479.62 165.701C480.217 164.188 480.352 162.531 480.007 160.941C479.662 159.351 478.853 157.899 477.682 156.768C476.904 156.016 475.985 155.426 474.979 155.029C473.972 154.633 472.897 154.438 471.815 154.458C470.733 154.477 469.666 154.709 468.674 155.141C467.682 155.572 466.785 156.195 466.034 156.974H466.027Z" fill="#EBEBEB"/>
<path d="M294.863 56.0332C297.071 54.6965 299.45 53.6625 301.934 52.9589L303.391 45.9654L315.223 45.7595L316.929 52.6962C319.437 53.3206 321.851 54.2757 324.107 55.5362L330.083 51.6241L338.611 59.8317L334.902 65.9377C336.243 68.1549 337.278 70.5432 337.979 73.0377L344.979 74.4577L345.185 86.2792L338.242 87.9761C337.619 90.4825 336.663 92.8943 335.399 95.1471L339.315 101.125L331.1 109.645L324.981 105.946C322.772 107.28 320.394 108.312 317.91 109.013L316.453 116.014L304.62 116.22L302.922 109.276C300.413 108.654 297.999 107.699 295.744 106.436L289.76 110.348L281.232 102.141L284.935 96.0346C283.599 93.8145 282.564 91.4269 281.858 88.9346L274.857 87.5146L274.651 75.7002L281.595 73.9962C282.218 71.4899 283.174 69.0782 284.437 66.8252L280.514 60.8541L288.737 52.3341L294.849 56.0403L294.863 56.0332ZM301.166 71.7739C299.423 73.5782 298.254 75.8583 297.808 78.3261C297.362 80.7939 297.658 83.3385 298.659 85.6381C299.66 87.9378 301.321 89.8892 303.432 91.2458C305.543 92.6024 308.01 93.3031 310.519 93.2595C313.029 93.2158 315.469 92.4296 317.532 91.0004C319.595 89.5712 321.187 87.5632 322.107 85.2301C323.027 82.897 323.234 80.3436 322.702 77.8929C322.17 75.4421 320.923 73.204 319.118 71.4615C316.695 69.1257 313.444 67.8465 310.077 67.905C306.711 67.9636 303.506 69.3552 301.166 71.7739Z" fill="#EBEBEB"/>
<path d="M518.453 303.88C518.453 303.979 405.599 304.065 266.422 304.065C127.245 304.065 14.3696 303.979 14.3696 303.88C14.3696 303.781 127.195 303.695 266.422 303.695C405.648 303.695 518.453 303.773 518.453 303.88Z" fill="#263238"/>
<path d="M402.55 85.3135H155.124C153.079 85.3116 151.116 86.1212 149.667 87.5643C148.219 89.0075 147.403 90.9661 147.399 93.0099V267.627C147.398 268.641 147.598 269.645 147.986 270.582C148.373 271.519 148.942 272.37 149.66 273.087C150.377 273.803 151.229 274.372 152.167 274.759C153.105 275.147 154.11 275.346 155.124 275.345H250.084C250.084 275.345 256.124 294.011 237.398 303.667H326.196C326.196 303.667 305.054 296.425 310.49 275.345H402.55C404.591 275.345 406.55 274.538 407.997 273.1C409.445 271.661 410.264 269.709 410.275 267.67V93.0099C410.269 90.9667 409.453 89.0092 408.005 87.5664C406.557 86.1237 404.595 85.3135 402.55 85.3135Z" fill="#455A64"/>
<path d="M282.135 257.02C285.496 261.827 280.23 267.088 275.419 263.729C275.257 263.615 275.118 263.474 275.007 263.31C271.652 258.511 276.911 253.25 281.723 256.608C281.882 256.721 282.021 256.86 282.135 257.02Z" fill="#263238"/>
<path d="M158.55 88.5085H399.125C400.03 88.5085 400.926 88.6867 401.763 89.0328C402.599 89.3789 403.359 89.8862 403.999 90.5257C404.639 91.1652 405.147 91.9244 405.493 92.76C405.84 93.5956 406.018 94.4911 406.018 95.3955V243.402H151.656V95.3955C151.656 94.4911 151.835 93.5956 152.181 92.76C152.527 91.9244 153.035 91.1652 153.675 90.5257C154.315 89.8862 155.075 89.3789 155.912 89.0328C156.748 88.6867 157.644 88.5085 158.55 88.5085Z" fill="white"/>
<path d="M158.166 88.5085H400.674C402.091 88.5085 403.451 89.0711 404.453 90.0724C405.455 91.0737 406.018 92.4317 406.018 93.8477V101.381H151.656V94.9908C151.66 93.2691 152.348 91.6193 153.568 90.4038C154.789 89.1883 156.443 88.5067 158.166 88.5085Z" fill="#EBEBEB"/>
<path d="M159.758 97C160.743 97 161.542 96.2021 161.542 95.2179C161.542 94.2337 160.743 93.4358 159.758 93.4358C158.773 93.4358 157.974 94.2337 157.974 95.2179C157.974 96.2021 158.773 97 159.758 97Z" fill="#E0E0E0"/>
<path d="M165.088 97C166.073 97 166.872 96.2021 166.872 95.2179C166.872 94.2337 166.073 93.4358 165.088 93.4358C164.103 93.4358 163.304 94.2337 163.304 95.2179C163.304 96.2021 164.103 97 165.088 97Z" fill="#E0E0E0"/>
<path d="M170.148 97C171.133 97 171.932 96.2021 171.932 95.2179C171.932 94.2337 171.133 93.4358 170.148 93.4358C169.163 93.4358 168.364 94.2337 168.364 95.2179C168.364 96.2021 169.163 97 170.148 97Z" fill="#E0E0E0"/>
<path d="M358.318 275.373C358.318 275.452 323.105 275.523 279.683 275.523C236.261 275.523 201.041 275.452 201.041 275.373C201.041 275.295 236.247 275.224 279.683 275.224C323.119 275.224 358.318 275.288 358.318 275.373Z" fill="#263238"/>
<path d="M405.435 122.212H151.742V178.792H405.435V122.212Z" fill="#F5F5F5"/>
<path d="M194.588 107.309H157.974V116.88H194.588V107.309Z" fill="#F5F5F5"/>
<path d="M399.416 107.309H379.368V116.88H399.416V107.309Z" fill="#F5F5F5"/>
<path d="M373.342 107.309H340.537V116.88H373.342V107.309Z" fill="#F5F5F5"/>
<path d="M333.715 107.309H300.911V116.88H333.715V107.309Z" fill="#F5F5F5"/>
<path d="M387.683 194.731H164.093V204.757H387.683V194.731Z" fill="#F5F5F5"/>
<path d="M387.683 213.39H164.093V223.416H387.683V213.39Z" fill="#F5F5F5"/>
<path d="M252.137 156.235L258.299 150.08L269.044 159.864L287.991 140.963L293.711 147.119L268.163 171.742L252.137 156.235Z" fill="#ADD9C8"/>
<path d="M260.999 141.794C259.443 140.353 258.066 138.73 256.899 136.959C257.714 137.64 258.449 138.411 259.088 139.259C259.816 140.032 260.457 140.882 260.999 141.794Z" fill="#263238"/>
<path d="M269.264 140.899C268.972 138.617 268.803 136.32 268.76 134.02C268.597 131.725 268.554 129.424 268.632 127.125C268.921 129.408 269.087 131.705 269.129 134.005C269.297 136.299 269.342 138.601 269.264 140.899Z" fill="#263238"/>
<path d="M282.035 136.682C280.808 138.625 279.379 140.434 277.771 142.078C278.328 141.061 278.996 140.109 279.761 139.238C280.428 138.309 281.19 137.453 282.035 136.682Z" fill="#263238"/>
<path d="M452.105 137.903H346.734C343.881 137.903 341.568 140.214 341.568 143.065V298.626C341.568 301.477 343.881 303.788 346.734 303.788H452.105C454.958 303.788 457.271 301.477 457.271 298.626V143.065C457.271 140.214 454.958 137.903 452.105 137.903Z" fill="#E0E0E0"/>
<path d="M452.105 303.788H452.467C452.822 303.764 453.172 303.7 453.512 303.596C454.183 303.402 454.808 303.073 455.348 302.63C455.888 302.187 456.332 301.639 456.653 301.019C456.874 300.586 457.034 300.125 457.129 299.649C457.215 299.116 457.246 298.576 457.222 298.037C457.222 296.894 457.222 295.651 457.222 294.302C457.222 291.604 457.222 288.487 457.222 284.987C457.222 270.965 457.186 250.68 457.158 225.61C457.158 213.078 457.158 199.34 457.158 184.614C457.158 177.245 457.158 169.631 457.158 161.774C457.158 157.845 457.158 153.862 457.158 149.824V143.704C457.178 143.201 457.152 142.697 457.079 142.199C456.997 141.704 456.836 141.224 456.603 140.779C456.147 139.878 455.428 139.135 454.542 138.649C454.096 138.413 453.617 138.243 453.121 138.145C452.616 138.061 452.104 138.028 451.593 138.045H346.748C345.585 138.051 344.459 138.455 343.558 139.189C342.667 139.932 342.062 140.961 341.845 142.1C341.756 142.675 341.725 143.258 341.752 143.839V190.749C341.752 208.783 341.752 226.185 341.752 242.756C341.752 259.328 341.752 275.083 341.752 289.822C341.752 291.661 341.752 293.486 341.752 295.296V298.001C341.694 298.875 341.833 299.751 342.158 300.564C342.5 301.354 343.039 302.042 343.723 302.564C344.407 303.086 345.214 303.424 346.066 303.546C346.493 303.598 346.923 303.617 347.353 303.603H351.233H370.925L430.351 303.66L446.505 303.696L430.351 303.731L370.925 303.788H351.233H347.353C346.911 303.804 346.469 303.785 346.031 303.731C345.128 303.605 344.274 303.249 343.548 302.699C342.823 302.148 342.251 301.42 341.887 300.586C341.547 299.734 341.399 298.817 341.454 297.902V289.865C341.454 275.125 341.454 259.37 341.454 242.799C341.454 226.227 341.454 208.825 341.454 190.791C341.454 181.774 341.454 172.603 341.454 163.279V143.882C341.424 143.276 341.457 142.67 341.553 142.071C341.784 140.845 342.437 139.739 343.399 138.944C344.361 138.149 345.571 137.716 346.82 137.719H451.55C452.083 137.703 452.616 137.736 453.142 137.818C453.667 137.931 454.174 138.115 454.649 138.365C455.592 138.882 456.359 139.668 456.852 140.623C457.095 141.096 457.263 141.604 457.35 142.128C457.427 142.645 457.455 143.168 457.435 143.69V161.731C457.435 169.579 457.435 177.192 457.435 184.572C457.435 199.304 457.435 213.036 457.435 225.567C457.435 250.637 457.392 270.922 457.378 284.944C457.378 288.445 457.378 291.562 457.378 294.26C457.378 295.609 457.378 296.851 457.378 297.994C457.397 298.538 457.362 299.083 457.271 299.62C457.086 300.558 456.644 301.425 455.994 302.126C455.344 302.827 454.512 303.333 453.59 303.589C453.244 303.686 452.89 303.745 452.531 303.767L452.105 303.788Z" fill="#263238"/>
<path d="M452.105 303.788H452.467C452.588 303.788 452.73 303.788 452.908 303.731C453.112 303.701 453.314 303.656 453.512 303.596C454.185 303.405 454.812 303.077 455.354 302.634C455.896 302.191 456.34 301.641 456.66 301.019C456.886 300.587 457.048 300.126 457.143 299.648C457.228 299.113 457.261 298.571 457.243 298.03C457.243 296.894 457.243 295.644 457.243 294.295C457.243 291.597 457.243 288.492 457.243 284.98C457.243 270.957 457.243 250.673 457.243 225.603C457.243 213.071 457.243 199.333 457.243 184.607C457.243 177.237 457.243 169.624 457.243 161.766V143.704C457.261 143.198 457.233 142.692 457.158 142.192C457.075 141.696 456.914 141.217 456.681 140.772C456.211 139.873 455.487 139.133 454.599 138.642C454.15 138.409 453.672 138.237 453.178 138.131C452.671 138.047 452.157 138.014 451.643 138.031H346.748C345.57 138.03 344.428 138.44 343.52 139.191C342.611 139.941 341.994 140.985 341.774 142.142C341.689 142.723 341.658 143.31 341.681 143.896V190.805C341.681 208.839 341.681 226.242 341.681 242.813C341.681 259.384 341.681 275.139 341.681 289.879C341.681 291.72 341.681 293.545 341.681 295.353V298.058C341.67 298.502 341.692 298.945 341.745 299.386C341.808 299.818 341.925 300.24 342.094 300.642C342.439 301.44 342.984 302.136 343.676 302.663C344.368 303.19 345.183 303.531 346.045 303.653C346.474 303.704 346.906 303.723 347.338 303.71H370.911L430.337 303.752L370.911 303.795H347.317C346.878 303.808 346.439 303.789 346.002 303.738C345.109 303.612 344.263 303.259 343.546 302.713C342.828 302.168 342.262 301.447 341.902 300.621C341.724 300.203 341.602 299.764 341.539 299.315C341.479 298.865 341.458 298.412 341.475 297.959V289.865C341.475 275.125 341.475 259.377 341.475 242.799C341.475 226.22 341.475 208.825 341.475 190.791V143.882C341.446 143.281 341.477 142.679 341.568 142.085C341.797 140.875 342.442 139.783 343.392 138.999C344.342 138.214 345.537 137.787 346.77 137.79H451.55C452.078 137.773 452.607 137.807 453.128 137.889C453.648 138.001 454.15 138.182 454.621 138.429C455.551 138.94 456.308 139.716 456.795 140.658C457.035 141.125 457.202 141.625 457.293 142.142C457.37 142.656 457.399 143.177 457.378 143.697C457.378 145.742 457.378 147.772 457.378 149.789V161.738C457.378 169.586 457.378 177.199 457.378 184.579C457.378 199.311 457.378 213.043 457.378 225.574C457.378 250.644 457.378 270.929 457.378 284.951C457.378 288.459 457.378 291.564 457.378 294.267C457.378 295.616 457.378 296.865 457.378 298.001C457.397 298.545 457.362 299.09 457.271 299.627C457.011 300.922 456.266 302.07 455.189 302.836C454.705 303.176 454.167 303.431 453.597 303.589C453.397 303.65 453.193 303.695 452.986 303.724C452.841 303.75 452.693 303.764 452.545 303.766L452.105 303.788Z" fill="#263238"/>
<path d="M403.858 295.452C403.858 296.33 403.597 297.188 403.109 297.918C402.621 298.647 401.927 299.216 401.116 299.552C400.304 299.888 399.411 299.976 398.549 299.805C397.688 299.633 396.896 299.211 396.275 298.59C395.654 297.97 395.231 297.179 395.06 296.318C394.888 295.457 394.976 294.565 395.312 293.754C395.649 292.943 396.218 292.25 396.948 291.763C397.679 291.275 398.537 291.015 399.416 291.015C400.594 291.015 401.724 291.482 402.557 292.315C403.39 293.147 403.858 294.275 403.858 295.452Z" fill="white"/>
<path d="M413.871 145.877H390.241C390.025 145.877 389.811 145.834 389.611 145.751C389.412 145.668 389.23 145.547 389.078 145.394C388.925 145.241 388.805 145.059 388.723 144.859C388.64 144.659 388.599 144.445 388.6 144.229C388.599 144.013 388.64 143.799 388.723 143.6C388.805 143.4 388.925 143.218 389.078 143.065C389.23 142.912 389.412 142.791 389.611 142.708C389.811 142.625 390.025 142.582 390.241 142.582H413.871C414.087 142.582 414.302 142.625 414.502 142.708C414.702 142.79 414.884 142.912 415.037 143.065C415.19 143.218 415.311 143.399 415.394 143.599C415.477 143.799 415.52 144.013 415.52 144.229C415.52 144.446 415.477 144.66 415.394 144.86C415.311 145.06 415.19 145.241 415.037 145.394C414.884 145.547 414.702 145.669 414.502 145.751C414.302 145.834 414.087 145.877 413.871 145.877Z" fill="#EBEBEB"/>
<path d="M451.792 149.739H346.841C345.887 149.739 345.114 150.511 345.114 151.464V286.549C345.114 287.502 345.887 288.274 346.841 288.274H451.792C452.746 288.274 453.519 287.502 453.519 286.549V151.464C453.519 150.511 452.746 149.739 451.792 149.739Z" fill="white"/>
<path d="M451.792 288.26C451.792 288.26 451.899 288.26 452.105 288.218C452.414 288.154 452.701 288.01 452.936 287.799C453.126 287.624 453.274 287.409 453.37 287.169C453.466 286.93 453.507 286.672 453.491 286.414C453.491 285.797 453.491 285.072 453.491 284.284C453.491 281.011 453.491 276.19 453.455 269.992C453.455 257.567 453.455 239.604 453.398 217.409C453.398 206.305 453.398 194.15 453.398 181.1C453.398 174.568 453.398 167.825 453.398 160.872V151.642C453.427 151.23 453.3 150.822 453.043 150.499C452.781 150.184 452.406 149.985 451.998 149.945C451.579 149.945 451.11 149.945 450.662 149.945H442.44H346.855C346.618 149.944 346.384 149.997 346.171 150.101C345.958 150.204 345.771 150.355 345.626 150.542C345.482 150.73 345.382 150.948 345.334 151.181C345.3 151.43 345.288 151.682 345.299 151.933V198.218C345.299 214.193 345.299 229.6 345.299 244.276C345.299 258.951 345.299 272.903 345.299 285.96V286.57C345.301 286.849 345.377 287.122 345.518 287.362C345.659 287.603 345.86 287.802 346.102 287.941C346.442 288.113 346.825 288.182 347.203 288.14H379.894L432.526 288.196H446.832H450.556H451.821L450.563 288.26H446.839L432.533 288.296L379.901 288.353H362.461H347.175C346.744 288.391 346.31 288.307 345.924 288.111C345.535 287.894 345.237 287.543 345.085 287.124C345.007 286.918 344.966 286.699 344.965 286.478V285.868C344.965 272.811 344.965 258.888 344.965 244.183C344.965 229.479 344.965 214.101 344.965 198.126V173.83C344.965 169.702 344.965 165.549 344.965 161.369V151.94C344.955 151.665 344.969 151.389 345.007 151.117C345.065 150.829 345.189 150.559 345.37 150.329C345.549 150.096 345.779 149.908 346.043 149.778C346.307 149.649 346.597 149.582 346.891 149.583H442.475H450.655C451.117 149.583 451.543 149.583 452.027 149.583C452.274 149.612 452.513 149.69 452.73 149.812C452.947 149.934 453.138 150.097 453.292 150.293C453.598 150.674 453.753 151.154 453.725 151.642V160.872C453.725 167.825 453.725 174.568 453.725 181.1C453.725 194.15 453.725 206.305 453.725 217.409C453.725 239.604 453.675 257.567 453.661 269.992C453.661 276.19 453.661 281.011 453.661 284.284C453.661 285.101 453.661 285.825 453.661 286.414C453.676 286.68 453.631 286.946 453.529 287.192C453.427 287.438 453.27 287.657 453.071 287.834C452.834 288.049 452.541 288.192 452.226 288.246C452.083 288.277 451.936 288.282 451.792 288.26Z" fill="#263238"/>
<path d="M453.078 169.47H345.768V208.719H453.078V169.47Z" fill="#F5F5F5"/>
<path d="M373.555 156.186H348.156V162.825H373.555V156.186Z" fill="#F5F5F5"/>
<path d="M450.954 156.186H428.198V162.825H450.954V156.186Z" fill="#F5F5F5"/>
<path d="M423.87 156.186H401.114V162.825H423.87V156.186Z" fill="#F5F5F5"/>
<path d="M444.053 228.933H352.434V235.891H444.053V228.933Z" fill="#F5F5F5"/>
<path d="M444.053 215.776H352.434V222.734H444.053V215.776Z" fill="#F5F5F5"/>
<path d="M444.053 255.877H352.434V262.835H444.053V255.877Z" fill="#F5F5F5"/>
<path d="M444.053 242.721H352.434V249.679H444.053V242.721Z" fill="#F5F5F5"/>
<path d="M378.629 204.019L384.798 197.863L395.543 207.647L414.482 188.747L420.203 194.902L394.662 219.525L378.629 204.019Z" fill="#ADD9C8"/>
<path d="M486.999 303.987H442.17C439.585 303.988 437.105 302.965 435.276 301.141C433.446 299.317 432.416 296.842 432.412 294.26V182.314C432.408 181.028 432.658 179.753 433.148 178.564C433.639 177.375 434.36 176.295 435.27 175.385C436.18 174.476 437.262 173.755 438.452 173.265C439.642 172.775 440.918 172.525 442.205 172.53H487.034C488.314 172.528 489.582 172.778 490.765 173.266C491.949 173.754 493.024 174.47 493.93 175.374C494.836 176.277 495.556 177.35 496.047 178.531C496.537 179.712 496.791 180.978 496.792 182.257V294.203C496.796 295.489 496.546 296.763 496.056 297.952C495.565 299.142 494.844 300.222 493.934 301.131C493.023 302.041 491.942 302.761 490.752 303.251C489.562 303.741 488.286 303.991 486.999 303.987Z" fill="#263238"/>
<path d="M487.311 175.924L478.591 175.881C478.305 175.881 478.022 175.939 477.759 176.05C477.495 176.162 477.257 176.325 477.058 176.53C476.859 176.736 476.704 176.979 476.601 177.245C476.498 177.512 476.45 177.797 476.459 178.082V179.666C476.464 179.95 476.413 180.233 476.308 180.497C476.203 180.762 476.048 181.003 475.85 181.207C475.652 181.412 475.415 181.575 475.154 181.688C474.893 181.801 474.612 181.862 474.327 181.867L457.328 181.76C457.042 181.756 456.759 181.694 456.496 181.58C456.234 181.465 455.996 181.3 455.798 181.093C455.6 180.887 455.445 180.643 455.341 180.376C455.238 180.109 455.189 179.824 455.196 179.538V177.955C455.203 177.669 455.153 177.384 455.049 177.118C454.946 176.851 454.79 176.608 454.592 176.401C454.394 176.195 454.157 176.029 453.895 175.915C453.633 175.8 453.35 175.738 453.064 175.732H449.994L442.362 175.697C440.541 175.691 438.793 176.407 437.501 177.688C436.209 178.968 435.478 180.709 435.468 182.527L435.063 292.52C435.059 293.42 435.233 294.312 435.574 295.144C435.915 295.977 436.417 296.734 437.052 297.373C437.686 298.012 438.44 298.52 439.27 298.868C440.101 299.215 440.992 299.396 441.893 299.4L486.807 299.62C488.626 299.628 490.374 298.913 491.667 297.634C492.959 296.355 493.691 294.615 493.7 292.797L494.162 182.832C494.17 181.928 493.998 181.032 493.657 180.195C493.316 179.357 492.813 178.595 492.176 177.953C491.539 177.311 490.782 176.801 489.947 176.453C489.112 176.105 488.216 175.925 487.311 175.924Z" fill="white"/>
<path d="M493.814 195.499H435.397V216.862H493.814V195.499Z" fill="#F5F5F5"/>
<path d="M450.52 188.264H436.698V191.878H450.52V188.264Z" fill="#F5F5F5"/>
<path d="M492.655 188.264H480.269V191.878H492.655V188.264Z" fill="#F5F5F5"/>
<path d="M477.916 188.264H465.529V191.878H477.916V188.264Z" fill="#F5F5F5"/>
<path d="M488.896 227.867H439.021V231.652H488.896V227.867Z" fill="#F5F5F5"/>
<path d="M488.896 220.704H439.021V224.488H488.896V220.704Z" fill="#F5F5F5"/>
<path d="M488.896 242.536H439.021V246.32H488.896V242.536Z" fill="#F5F5F5"/>
<path d="M488.896 249.231H439.021V253.016H488.896V249.231Z" fill="#F5F5F5"/>
<path d="M488.896 256.892H439.021V260.677H488.896V256.892Z" fill="#F5F5F5"/>
<path d="M488.896 264.546H439.021V268.33H488.896V264.546Z" fill="#F5F5F5"/>
<path d="M488.896 272.207H439.021V275.991H488.896V272.207Z" fill="#F5F5F5"/>
<path d="M488.896 235.372H439.021V239.157H488.896V235.372Z" fill="#F5F5F5"/>
<path d="M448.786 242.124L453.604 237.311L462.907 245.568L481.171 228.01L485.648 232.83L462.218 254.862L448.786 242.124Z" fill="#ADD9C8"/>
<path d="M211.494 172.686H38.0774C32.3589 172.686 27.723 177.318 27.723 183.031V290.596C27.723 296.309 32.3589 300.941 38.0774 300.941H211.494C217.213 300.941 221.849 296.309 221.849 290.596V183.031C221.849 177.318 217.213 172.686 211.494 172.686Z" fill="#263238"/>
<path d="M20.1403 292.655H230.455V293.152C230.455 295.995 229.324 298.722 227.312 300.733C225.299 302.744 222.57 303.873 219.724 303.873H30.8713C28.0253 303.873 25.2958 302.744 23.2833 300.733C21.2709 298.722 20.1403 295.995 20.1403 293.152V292.655Z" fill="#263238"/>
<path d="M216.099 177.784H32.9393V286.095H216.099V177.784Z" fill="#263238"/>
<path d="M105.648 291.455L108.263 295.601H144.983L147.406 291.455H105.648Z" fill="#455A64"/>
<path d="M210.372 181.448H39.0298C37.7464 181.448 36.7059 182.487 36.7059 183.769V283.418C36.7059 284.7 37.7464 285.74 39.0298 285.74H210.372C211.655 285.74 212.695 284.7 212.695 283.418V183.769C212.695 182.487 211.655 181.448 210.372 181.448Z" fill="#EBEBEB"/>
<path d="M212.511 285.896H36.5211L36.7059 189.243H212.511V285.896Z" fill="white"/>
<path d="M51.168 185.481C51.168 185.761 51.0846 186.036 50.9284 186.269C50.7723 186.503 50.5503 186.685 50.2906 186.792C50.0309 186.9 49.7451 186.928 49.4694 186.873C49.1936 186.818 48.9404 186.683 48.7416 186.485C48.5428 186.286 48.4075 186.033 48.3526 185.758C48.2978 185.482 48.3259 185.197 48.4335 184.937C48.5411 184.678 48.7233 184.456 48.957 184.3C49.1907 184.144 49.4655 184.061 49.7467 184.061C50.1236 184.061 50.4851 184.21 50.7517 184.476C51.0182 184.743 51.168 185.104 51.168 185.481Z" fill="#263238"/>
<path d="M42.6399 185.481C42.6399 185.761 42.5566 186.036 42.4004 186.269C42.2442 186.503 42.0222 186.685 41.7625 186.792C41.5028 186.9 41.217 186.928 40.9413 186.873C40.6656 186.818 40.4123 186.683 40.2135 186.485C40.0148 186.286 39.8794 186.033 39.8246 185.758C39.7697 185.482 39.7979 185.197 39.9054 184.937C40.013 184.678 40.1952 184.456 40.4289 184.3C40.6627 184.144 40.9375 184.061 41.2186 184.061C41.5955 184.061 41.9571 184.21 42.2236 184.476C42.4902 184.743 42.6399 185.104 42.6399 185.481Z" fill="#263238"/>
<path d="M46.7121 185.481C46.7121 185.761 46.6287 186.036 46.4725 186.269C46.3163 186.503 46.0944 186.685 45.8346 186.792C45.5749 186.9 45.2891 186.928 45.0134 186.873C44.7377 186.818 44.4845 186.683 44.2857 186.485C44.0869 186.286 43.9515 186.033 43.8967 185.758C43.8419 185.482 43.87 185.197 43.9776 184.937C44.0852 184.678 44.2673 184.456 44.5011 184.3C44.7348 184.144 45.0096 184.061 45.2907 184.061C45.6677 184.061 46.0292 184.21 46.2958 184.476C46.5623 184.743 46.7121 185.104 46.7121 185.481Z" fill="#263238"/>
<path d="M220.179 291.455C220.179 291.526 177.098 291.583 123.962 291.583C70.825 291.583 27.7159 291.526 27.7159 291.455C27.7159 291.384 70.7966 291.327 123.954 291.327C177.112 291.327 220.179 291.384 220.179 291.455Z" fill="#455A64"/>
<path d="M212.695 204.828H36.7059V244.077H212.695V204.828Z" fill="#F5F5F5"/>
<path d="M66.426 194.49H41.0267V201.129H66.426V194.49Z" fill="#F5F5F5"/>
<path d="M208.524 194.49H194.616V201.129H208.524V194.49Z" fill="#F5F5F5"/>
<path d="M190.437 194.49H167.682V201.129H190.437V194.49Z" fill="#F5F5F5"/>
<path d="M162.949 194.49H140.193V201.129H162.949V194.49Z" fill="#F5F5F5"/>
<path d="M200.415 267.237H45.3049V274.195H200.415V267.237Z" fill="#F5F5F5"/>
<path d="M200.415 254.073H45.3049V261.031H200.415V254.073Z" fill="#F5F5F5"/>
<path d="M102.393 230.942L108.561 224.786L120.444 235.337L143.775 212.908L149.496 219.063L119.563 247.215L102.393 230.942Z" fill="#ADD9C8"/>
<path d="M174.454 147.922C201.815 147.922 223.995 125.762 223.995 98.4275C223.995 71.0926 201.815 48.9333 174.454 48.9333C147.094 48.9333 124.914 71.0926 124.914 98.4275C124.914 125.762 147.094 147.922 174.454 147.922Z" fill="#ADD9C8"/>
<path opacity="0.3" d="M174.454 147.922C201.815 147.922 223.995 125.762 223.995 98.4275C223.995 71.0926 201.815 48.9333 174.454 48.9333C147.094 48.9333 124.914 71.0926 124.914 98.4275C124.914 125.762 147.094 147.922 174.454 147.922Z" fill="black"/>
<path d="M173.118 144.755C200.479 144.755 222.659 122.596 222.659 95.2607C222.659 67.9259 200.479 45.7666 173.118 45.7666C145.758 45.7666 123.578 67.9259 123.578 95.2607C123.578 122.596 145.758 144.755 173.118 144.755Z" fill="#ADD9C8"/>
<path d="M188.127 130.737C207.731 122.456 216.904 99.8649 208.615 80.279C200.326 60.6931 177.713 51.529 158.109 59.8105C138.505 68.092 129.332 90.6829 137.621 110.269C145.911 129.855 168.523 139.019 188.127 130.737Z" fill="white"/>
<path d="M192.29 114.42C202.881 103.839 202.881 86.6844 192.29 76.1036C181.699 65.5229 164.529 65.5229 153.938 76.1036C143.347 86.6844 143.347 103.839 153.938 114.42C164.529 125 181.699 125 192.29 114.42Z" fill="#ADD9C8"/>
<path d="M178.808 108.378C186.057 105.238 189.385 96.8222 186.243 89.5801C183.1 82.3381 174.676 79.0127 167.427 82.1526C160.178 85.2925 156.849 93.7087 159.992 100.951C163.135 108.193 171.559 111.518 178.808 108.378Z" fill="white"/>
<path d="M211.452 55.1742L210.101 44.6165L220.861 33.1074L221.636 44.51L211.452 55.1742Z" fill="#455A64"/>
<path d="M234.541 46.775L223.625 45.8875L212.688 56.4026L223.632 57.567L234.541 46.775Z" fill="#455A64"/>
<path opacity="0.3" d="M173.118 96.0916L213.79 66.9816C212.233 64.7255 210.508 62.5895 208.63 60.5916L173.808 94.2456L173.118 96.0916Z" fill="black"/>
<path d="M223.249 42.3018L218.175 47.4706L205.887 59.8814L191.127 74.7914C186.863 79.1224 182.587 83.4511 178.299 87.7773C176.224 89.9073 174.035 91.9237 172.052 94.0963L171.96 94.1886C170.759 95.4098 172.671 97.2913 173.85 96.0701L178.953 90.9013L191.212 78.4976L205.972 63.5876C210.236 59.2566 214.512 54.928 218.8 50.6017C220.875 48.4717 223.064 46.4553 225.047 44.2756L225.132 44.1904C226.34 42.9692 224.421 41.0806 223.249 42.3018Z" fill="#263238"/>
<path d="M311.18 171.288C310.335 171.336 309.503 171.071 308.842 170.544C308.181 170.017 307.738 169.265 307.598 168.432C307.458 167.598 307.631 166.743 308.083 166.029C308.536 165.315 309.236 164.794 310.05 164.564C309.541 164.006 309.223 163.301 309.142 162.551C309.061 161.801 309.222 161.045 309.601 160.392C309.979 159.739 310.556 159.224 311.248 158.921C311.939 158.618 312.71 158.542 313.447 158.706C313.511 157.971 313.766 157.264 314.186 156.657C314.606 156.049 315.177 155.561 315.842 155.24C316.508 154.919 317.246 154.777 317.983 154.827C318.721 154.877 319.433 155.118 320.049 155.526C320.909 154.888 321.959 154.558 323.03 154.587C324.101 154.617 325.131 155.005 325.954 155.689C326.679 155.589 327.417 155.724 328.059 156.074C328.701 156.425 329.213 156.973 329.52 157.636C329.826 158.3 329.911 159.044 329.762 159.76C329.613 160.476 329.237 161.124 328.69 161.61" fill="#263238"/>
<path d="M310.661 171.749C311.118 168.119 312.928 164.795 315.73 162.44C318.531 160.084 322.119 158.87 325.777 159.04L326.53 159.076C334.624 159.928 338.427 167.269 337.346 175.335L334.909 202.315L334.269 208.669L315.87 206.496L316.218 199.617C316.218 199.617 308.472 198.04 308.742 190.237C308.87 186.474 309.765 178.735 310.661 171.749Z" fill="#99655C"/>
<path d="M316.154 199.602C319.778 199.774 323.374 198.901 326.516 197.089C326.516 197.089 323.851 202.584 316.097 201.519L316.154 199.602Z" fill="#744A45"/>
<path d="M312.381 178.92C312.365 179.209 312.462 179.493 312.652 179.711C312.841 179.93 313.109 180.066 313.397 180.092C313.539 180.109 313.682 180.099 313.82 180.06C313.957 180.022 314.086 179.957 314.197 179.868C314.309 179.779 314.402 179.669 314.471 179.544C314.54 179.419 314.583 179.282 314.598 179.14C314.614 178.85 314.516 178.566 314.325 178.347C314.133 178.128 313.864 177.992 313.575 177.969C313.433 177.95 313.29 177.96 313.152 177.998C313.015 178.036 312.886 178.101 312.775 178.19C312.663 178.279 312.571 178.39 312.503 178.515C312.435 178.64 312.394 178.778 312.381 178.92Z" fill="#263238"/>
<path d="M312.16 175.64C312.295 175.789 313.162 175.207 314.363 175.264C315.564 175.32 316.417 175.973 316.552 175.824C316.687 175.675 316.488 175.491 316.119 175.2C315.618 174.814 315.009 174.594 314.378 174.568C313.754 174.536 313.136 174.705 312.615 175.051C312.231 175.313 312.096 175.569 312.16 175.64Z" fill="#263238"/>
<path d="M323.296 179.481C323.283 179.771 323.381 180.054 323.572 180.273C323.763 180.491 324.031 180.627 324.32 180.653C324.461 180.67 324.605 180.66 324.743 180.621C324.88 180.583 325.009 180.517 325.12 180.429C325.232 180.34 325.325 180.23 325.394 180.105C325.463 179.98 325.506 179.843 325.521 179.701C325.535 179.412 325.436 179.128 325.245 178.909C325.054 178.691 324.787 178.555 324.497 178.53C324.356 178.512 324.212 178.522 324.075 178.561C323.937 178.599 323.809 178.665 323.697 178.753C323.585 178.842 323.492 178.952 323.423 179.077C323.355 179.202 323.311 179.339 323.296 179.481Z" fill="#263238"/>
<path d="M323.936 176.414C324.071 176.563 324.945 175.981 326.139 176.037C327.333 176.094 328.193 176.747 328.328 176.598C328.463 176.449 328.264 176.265 327.895 175.966C327.391 175.587 326.784 175.369 326.153 175.342C325.529 175.31 324.912 175.479 324.391 175.824C324.007 176.08 323.872 176.343 323.936 176.414Z" fill="#263238"/>
<path d="M319.168 185.09C318.546 184.866 317.899 184.718 317.242 184.65C316.936 184.607 316.645 184.529 316.602 184.323C316.594 184.005 316.681 183.691 316.851 183.421C317.178 182.711 317.512 181.937 317.867 181.135C319.288 177.876 320.319 175.192 320.184 175.136C320.049 175.079 318.762 177.677 317.391 180.936L316.41 183.237C316.203 183.598 316.128 184.019 316.197 184.43C316.236 184.54 316.299 184.64 316.383 184.721C316.467 184.802 316.569 184.863 316.68 184.898C316.848 184.955 317.022 184.989 317.199 184.998C317.848 185.114 318.51 185.145 319.168 185.09Z" fill="#263238"/>
<path d="M323.68 172.622C323.822 172.935 324.867 172.622 326.132 172.672C327.397 172.722 328.456 172.949 328.591 172.672C328.648 172.523 328.435 172.246 327.987 171.962C327.414 171.641 326.768 171.474 326.111 171.479C325.459 171.468 324.815 171.632 324.249 171.955C323.815 172.196 323.616 172.473 323.68 172.622Z" fill="#263238"/>
<path d="M312.331 170.698C312.573 170.982 313.575 170.741 314.769 170.784C315.962 170.826 316.957 171.075 317.199 170.784C317.313 170.649 317.199 170.372 316.737 170.074C316.146 169.722 315.471 169.535 314.783 169.534C314.098 169.508 313.418 169.665 312.814 169.988C312.381 170.287 312.231 170.556 312.331 170.698Z" fill="#263238"/>
<path d="M311.578 168.206C311.578 168.206 313.866 163.421 316.275 162.391C319.196 161.149 320.276 164.329 323.026 163.698C325.777 163.066 328.57 161.873 331.249 164.102C334.177 166.538 332.67 168.085 332.706 171.55C332.812 185.608 335.186 189.698 336.259 183.123C336.373 182.413 338.391 181.923 338.846 178.863C339.422 174.916 339.798 170.109 339.045 167.255C338.405 164.848 337.133 163.151 334.781 161.227C331.085 158.202 325.827 157.89 322.231 158.089C318.635 158.287 311.542 162.079 311.578 168.206Z" fill="#263238"/>
<path d="M335.74 182.889C335.765 182.604 335.847 182.327 335.981 182.074C336.115 181.822 336.298 181.599 336.521 181.419C336.743 181.238 336.999 181.105 337.274 181.025C337.549 180.946 337.837 180.923 338.121 180.958C339.542 181.164 341.148 182.065 340.914 185.061C340.495 190.386 335.229 188.867 335.229 188.711C335.229 188.555 335.541 185.111 335.74 182.889Z" fill="#99655C"/>
<path d="M336.558 186.801C336.558 186.801 336.643 186.872 336.792 186.957C336.9 187.016 337.018 187.053 337.14 187.065C337.262 187.078 337.386 187.065 337.503 187.028C337.863 186.837 338.167 186.553 338.381 186.207C338.596 185.86 338.715 185.462 338.725 185.054C338.773 184.599 338.72 184.138 338.569 183.705C338.532 183.535 338.455 183.377 338.344 183.243C338.232 183.11 338.09 183.005 337.929 182.939C337.824 182.902 337.71 182.904 337.606 182.943C337.503 182.982 337.416 183.056 337.361 183.152C337.275 183.294 337.304 183.4 337.275 183.407C337.247 183.414 337.169 183.308 337.226 183.095C337.266 182.965 337.348 182.852 337.46 182.775C337.617 182.677 337.805 182.644 337.986 182.683C338.2 182.745 338.396 182.86 338.553 183.018C338.711 183.175 338.827 183.371 338.889 183.585C339.078 184.062 339.149 184.579 339.095 185.09C338.974 186.162 338.348 187.121 337.56 187.284C337.413 187.314 337.262 187.311 337.117 187.276C336.972 187.24 336.837 187.173 336.721 187.078C336.55 186.929 336.536 186.808 336.558 186.801Z" fill="#744A45"/>
<path d="M336.145 172.53C335.466 173.031 334.672 173.353 333.836 173.467C333.418 173.51 332.999 173.401 332.655 173.16C332.312 172.918 332.067 172.561 331.967 172.154C331.917 171.777 332.031 171.351 331.803 171.053C331.576 170.755 330.986 170.783 330.531 170.812C329.749 170.835 328.982 170.589 328.359 170.115C327.737 169.64 327.297 168.966 327.113 168.206C326.862 168.461 326.525 168.611 326.168 168.628C325.811 168.646 325.461 168.528 325.187 168.298C324.655 167.825 324.191 167.28 323.808 166.68C323.615 166.379 323.35 166.13 323.038 165.956C322.726 165.781 322.375 165.686 322.017 165.679C321.635 165.786 321.242 165.853 320.845 165.877C320.134 165.785 319.843 164.947 319.772 164.244C319.701 163.541 319.658 162.732 319.061 162.327C318.464 161.923 317.803 162.121 317.149 162.185C316.495 162.249 315.678 162.058 315.543 161.426C315.522 161.255 315.537 161.082 315.586 160.917C315.635 160.752 315.717 160.599 315.827 160.467C316.291 159.844 316.952 159.396 317.702 159.194C318.452 158.991 319.249 159.047 319.963 159.352C320.269 158.478 320.826 157.713 321.566 157.155C322.305 156.597 323.194 156.27 324.119 156.216C325.045 156.163 325.965 156.384 326.765 156.852C327.565 157.321 328.208 158.015 328.612 158.848C329.204 158.357 329.906 158.017 330.659 157.857C331.411 157.697 332.192 157.721 332.932 157.929C333.673 158.136 334.353 158.52 334.912 159.048C335.472 159.575 335.895 160.23 336.145 160.957C336.804 160.826 337.486 160.889 338.11 161.139C338.733 161.388 339.269 161.815 339.654 162.364C340.039 162.914 340.254 163.564 340.275 164.235C340.295 164.906 340.12 165.568 339.77 166.14C340.254 166.409 340.662 166.796 340.955 167.266C341.249 167.735 341.418 168.271 341.447 168.824C341.447 169.931 340.289 170.954 339.237 170.641C339.428 171.086 339.444 171.586 339.281 172.041C339.117 172.496 338.787 172.873 338.357 173.094C337.927 173.316 337.429 173.366 336.963 173.235C336.497 173.104 336.098 172.801 335.847 172.388" fill="#263238"/>
<path d="M319.487 160.929C319.483 160.962 319.483 160.995 319.487 161.028C319.479 161.123 319.479 161.218 319.487 161.312C319.538 161.676 319.651 162.029 319.821 162.356C320.093 162.876 320.479 163.328 320.951 163.676C321.566 164.137 322.314 164.386 323.083 164.386L322.998 164.259C322.814 164.736 322.827 165.267 323.034 165.735C323.248 166.227 323.536 166.685 323.886 167.092C324.054 167.323 324.244 167.537 324.455 167.731C324.837 168.01 325.306 168.146 325.779 168.112C326.251 168.078 326.696 167.877 327.035 167.546L326.836 167.482C326.885 168.039 327.05 168.579 327.32 169.068C327.591 169.557 327.961 169.984 328.406 170.322C328.894 170.72 329.497 170.949 330.126 170.975C330.721 170.976 331.313 170.875 331.874 170.677L331.732 170.606C331.976 171.266 332.384 171.852 332.919 172.31C333.162 172.538 333.452 172.71 333.769 172.813C334.086 172.916 334.422 172.948 334.752 172.906C335.319 172.811 335.845 172.553 336.267 172.163C336.689 171.774 336.987 171.269 337.126 170.713L336.998 170.762C337.545 171.087 338.188 171.212 338.817 171.117C339.289 171.056 339.737 170.88 340.125 170.606C340.37 170.44 340.581 170.231 340.75 169.988C340.808 169.903 340.858 169.813 340.9 169.719C340.672 170.034 340.393 170.31 340.075 170.535C339.692 170.782 339.257 170.937 338.803 170.989C338.206 171.065 337.6 170.937 337.083 170.627L336.991 170.563V170.677C336.853 171.195 336.569 171.662 336.172 172.022C335.774 172.382 335.282 172.62 334.752 172.708C334.451 172.745 334.145 172.714 333.857 172.616C333.569 172.519 333.307 172.359 333.09 172.147C332.589 171.71 332.206 171.157 331.974 170.535V170.429L331.867 170.464C331.333 170.651 330.77 170.747 330.204 170.748C329.619 170.723 329.058 170.508 328.605 170.137C328.186 169.817 327.837 169.413 327.583 168.951C327.328 168.489 327.173 167.979 327.127 167.454V167.198L326.949 167.39C326.749 167.586 326.504 167.731 326.236 167.813C325.967 167.895 325.683 167.91 325.407 167.858C325.148 167.818 324.904 167.713 324.697 167.553C324.497 167.373 324.316 167.173 324.156 166.957C323.819 166.565 323.539 166.128 323.325 165.657C323.13 165.237 323.11 164.758 323.268 164.323L323.318 164.195H323.183C322.44 164.2 321.714 163.966 321.115 163.527C320.655 163.201 320.274 162.777 319.999 162.285C319.753 161.865 319.58 161.406 319.487 160.929Z" fill="#455A64"/>
<path d="M317.803 189.016C317.803 189.066 318.08 189.251 318.62 189.371C319.332 189.507 320.067 189.47 320.762 189.264C321.457 189.058 322.092 188.688 322.614 188.186C323.005 187.795 323.147 187.476 323.105 187.476C323.062 187.476 322.152 188.434 320.632 188.896C319.111 189.357 317.839 188.86 317.803 189.016Z" fill="#263238"/>
<path d="M300.221 276.261L347.473 276.907C347.473 276.907 360.692 271.383 364.323 271.227C367.955 271.071 375.161 271.539 378.494 276.907C381.941 282.452 382.424 292.222 371.8 299.329C361.459 306.244 314.172 312.641 307.69 312.052L295.737 296.027C295.737 296.027 295.616 282.892 295.737 282.268C295.858 281.643 297.869 276.012 297.869 276.012L300.221 276.261Z" fill="#263238"/>
<path d="M326.452 297.49L354.672 307.962L341.831 343.1C338.547 341.68 338.455 321.026 338.455 321.026L320.099 315.062L326.452 297.49Z" fill="#ADD9C8"/>
<g opacity="0.6">
<path d="M340.885 309.61C341.111 309.308 341.441 309.1 341.811 309.027C342.181 308.954 342.565 309.02 342.89 309.212C343.197 309.429 343.409 309.754 343.485 310.122C343.56 310.49 343.492 310.873 343.295 311.193C343.052 311.512 342.7 311.73 342.306 311.805C341.913 311.879 341.505 311.806 341.163 311.598C340.856 311.34 340.664 310.971 340.628 310.572C340.592 310.173 340.715 309.776 340.971 309.468" fill="white"/>
</g>
<path d="M354.672 307.97L351.83 306.912L340.537 341.063C340.537 341.063 340.651 342.88 341.816 343.1L354.672 307.97Z" fill="#263238"/>
<path d="M338.043 321.531C338.221 321.588 338.611 320.764 339.464 320.111C340.317 319.458 341.212 319.28 341.205 319.103C341.198 318.925 340.104 318.811 339.073 319.607C338.043 320.402 337.872 321.509 338.043 321.531Z" fill="#263238"/>
<path d="M338.221 325.776C338.377 325.876 338.931 325.237 339.876 324.924C340.822 324.612 341.646 324.719 341.703 324.541C341.76 324.364 340.829 323.902 339.663 324.321C338.498 324.74 338.057 325.713 338.221 325.776Z" fill="#263238"/>
<path d="M341.873 329.483C341.966 329.341 341.163 328.773 340.09 328.886C339.016 329 338.32 329.646 338.441 329.774C338.562 329.902 339.244 329.582 340.146 329.518C341.049 329.454 341.831 329.646 341.873 329.483Z" fill="#263238"/>
<path d="M334.013 319.706C334.198 319.706 334.248 318.818 334.667 317.874C335.086 316.93 335.669 316.284 335.555 316.142C335.442 316 334.568 316.504 334.084 317.626C333.601 318.747 333.85 319.741 334.013 319.706Z" fill="#263238"/>
<path d="M330.147 317.37C330.516 316.852 330.735 316.243 330.78 315.609C330.901 314.932 330.94 314.243 330.893 313.557C330.862 313.152 330.805 312.749 330.723 312.35C330.69 312.103 330.616 311.863 330.503 311.64C330.423 311.483 330.293 311.357 330.133 311.282C329.973 311.208 329.793 311.189 329.621 311.228C329.469 311.269 329.329 311.346 329.213 311.452C329.096 311.558 329.007 311.691 328.953 311.839C328.868 312.067 328.815 312.306 328.797 312.549C328.762 312.96 328.762 313.373 328.797 313.784C328.848 314.475 329.006 315.153 329.266 315.794C329.728 316.887 330.268 317.398 330.318 317.349C330.368 317.299 330.012 316.703 329.692 315.645C329.51 315.028 329.405 314.391 329.38 313.749C329.37 313.374 329.391 312.999 329.444 312.627C329.444 312.222 329.593 311.917 329.792 311.867C329.87 311.867 329.899 311.867 329.977 311.981C330.054 312.138 330.107 312.305 330.133 312.478C330.223 312.847 330.287 313.222 330.325 313.6C330.399 314.246 330.411 314.897 330.36 315.545C330.245 316.148 330.174 316.757 330.147 317.37Z" fill="#263238"/>
<path d="M330.46 317.214C330.51 317.164 330.019 316.596 328.932 316.128C327.904 315.7 326.779 315.56 325.677 315.723C325.41 315.732 325.15 315.81 324.922 315.95C324.694 316.089 324.506 316.285 324.377 316.518C324.324 316.677 324.317 316.847 324.357 317.009C324.397 317.171 324.483 317.319 324.604 317.434C324.776 317.599 324.97 317.74 325.18 317.853C325.551 318.056 325.951 318.202 326.367 318.286C327.062 318.43 327.782 318.401 328.463 318.201C329.629 317.846 330.09 317.207 330.041 317.171C329.49 317.397 328.928 317.593 328.356 317.761C327.74 317.881 327.104 317.864 326.495 317.711C326.143 317.625 325.805 317.489 325.492 317.306C325.137 317.122 324.888 316.866 324.974 316.745C325.07 316.623 325.191 316.523 325.33 316.454C325.469 316.384 325.621 316.345 325.777 316.341C326.145 316.276 326.519 316.245 326.892 316.248C327.531 316.261 328.165 316.364 328.776 316.554C329.842 316.88 330.417 317.299 330.46 317.214Z" fill="#263238"/>
<path d="M310.881 296.78L285.603 308.495L300.029 339.998C302.957 338.436 301.543 319.372 301.543 319.372L318.045 312.535L310.881 296.78Z" fill="#ADD9C8"/>
<g opacity="0.6">
<path d="M298.48 308.992C298.248 308.733 297.928 308.569 297.582 308.529C297.237 308.49 296.888 308.579 296.604 308.779C296.334 308.999 296.16 309.314 296.116 309.659C296.073 310.004 296.163 310.352 296.369 310.632C296.616 310.907 296.955 311.082 297.322 311.123C297.689 311.163 298.059 311.067 298.359 310.852C298.611 310.588 298.752 310.237 298.752 309.872C298.752 309.508 298.611 309.157 298.359 308.893" fill="white"/>
</g>
<path d="M285.603 308.481L288.154 307.302L301.06 338.01C301.06 338.01 301.06 339.692 300.029 339.984L285.603 308.481Z" fill="#263238"/>
<path d="M301.934 319.798C301.778 319.862 301.358 319.124 300.513 318.598C299.667 318.073 298.842 317.959 298.835 317.789C298.828 317.619 299.83 317.441 300.832 318.101C301.834 318.762 302.09 319.763 301.934 319.798Z" fill="#263238"/>
<path d="M302.083 323.76C301.948 323.867 301.372 323.32 300.491 323.093C299.61 322.865 298.842 323.036 298.779 322.88C298.715 322.723 299.539 322.226 300.64 322.525C301.742 322.823 302.225 323.654 302.083 323.76Z" fill="#263238"/>
<path d="M298.985 327.417C298.885 327.289 299.553 326.707 300.577 326.707C301.6 326.707 302.268 327.282 302.168 327.417C302.069 327.551 301.415 327.31 300.612 327.31C299.809 327.31 299.07 327.559 298.985 327.417Z" fill="#263238"/>
<path d="M305.523 317.824C305.352 317.824 305.246 317.015 304.812 316.177C304.379 315.339 303.774 314.757 303.867 314.644C303.959 314.53 304.812 314.899 305.331 315.9C305.85 316.901 305.679 317.839 305.523 317.824Z" fill="#263238"/>
<path d="M308.92 315.361C308.544 314.907 308.298 314.36 308.209 313.778C308.047 313.163 307.963 312.531 307.96 311.896C307.954 311.519 307.975 311.141 308.024 310.767C308.043 310.546 308.094 310.328 308.174 310.121C308.233 309.968 308.345 309.84 308.489 309.76C308.633 309.679 308.8 309.651 308.962 309.681C309.105 309.707 309.24 309.767 309.355 309.856C309.47 309.945 309.562 310.06 309.623 310.192C309.718 310.392 309.783 310.605 309.815 310.824C309.883 311.197 309.921 311.574 309.929 311.953C309.932 312.596 309.834 313.236 309.637 313.849C309.296 314.885 308.834 315.403 308.778 315.361C308.721 315.318 309.012 314.743 309.232 313.742C309.357 313.159 309.407 312.563 309.382 311.967C309.366 311.621 309.321 311.276 309.247 310.938C309.183 310.561 309.055 310.277 308.87 310.263C308.799 310.263 308.77 310.263 308.707 310.377C308.647 310.529 308.609 310.689 308.593 310.852C308.543 311.214 308.515 311.562 308.5 311.903C308.483 312.502 308.521 313.101 308.614 313.692C308.757 314.24 308.859 314.798 308.92 315.361Z" fill="#263238"/>
<path d="M308.607 315.24C308.557 315.197 308.969 314.636 309.943 314.125C310.515 313.833 311.133 313.639 311.77 313.55C312.15 313.511 312.533 313.511 312.914 313.55C313.161 313.538 313.407 313.591 313.628 313.703C313.848 313.815 314.036 313.982 314.172 314.189C314.234 314.332 314.253 314.49 314.228 314.643C314.203 314.797 314.134 314.94 314.029 315.055C313.883 315.221 313.713 315.365 313.525 315.481C312.638 316.055 311.559 316.254 310.526 316.035C309.424 315.794 308.948 315.24 308.991 315.205C309.033 315.169 309.588 315.517 310.59 315.63C311.167 315.69 311.751 315.627 312.303 315.446C312.624 315.342 312.928 315.191 313.205 314.999C313.518 314.8 313.731 314.551 313.639 314.438C313.539 314.334 313.418 314.252 313.285 314.198C313.151 314.144 313.008 314.12 312.864 314.125C312.521 314.093 312.176 314.093 311.833 314.125C311.244 314.184 310.665 314.322 310.114 314.537C309.14 314.906 308.671 315.332 308.607 315.24Z" fill="#263238"/>
<path d="M297.869 276.013C297.869 276.013 277.459 268.401 269.947 269.388C265.747 269.935 259.18 273.137 258.683 278.519C258.185 283.901 259.493 291.086 266.756 294.593C274.019 298.101 303 311.087 309.886 313.089C316.773 315.091 333.942 319.777 333.942 319.777L340.459 301.203C340.459 301.203 304.876 288.899 303 287.55C301.124 286.201 296.362 284.298 296.362 284.298L297.869 276.013Z" fill="#263238"/>
<path d="M368.836 278.54L368.694 278.505L368.289 278.377C367.926 278.27 367.393 278.114 366.697 277.951C365.855 277.744 365.001 277.595 364.139 277.504C362.997 277.397 361.848 277.397 360.706 277.504C359.321 277.619 357.951 277.878 356.62 278.278C355.887 278.501 355.174 278.784 354.488 279.122L352.27 280.202C349.215 281.622 345.803 283.155 342.172 284.589C334.902 287.5 327.923 288.849 322.948 290.007C320.447 290.561 318.428 291.015 317.036 291.342L315.437 291.725L315.017 291.817H314.875L315.01 291.768L315.422 291.654C315.792 291.555 316.325 291.405 317.021 291.235C318.443 290.88 320.418 290.397 322.913 289.815C327.887 288.644 334.845 287.245 342.101 284.341C345.725 282.921 349.136 281.423 352.185 279.974L354.41 278.902C355.114 278.562 355.846 278.281 356.598 278.065C357.941 277.666 359.323 277.411 360.72 277.305C361.871 277.197 363.03 277.197 364.181 277.305C365.047 277.402 365.905 277.563 366.747 277.788C367.457 277.965 367.969 278.136 368.324 278.256L368.729 278.405L368.836 278.54Z" fill="#455A64"/>
<path d="M367.734 275.849C367.734 275.885 367.116 275.778 366.114 275.672C364.814 275.529 363.505 275.491 362.198 275.558C360.891 275.626 359.591 275.796 358.311 276.069C357.33 276.275 356.726 276.453 356.719 276.417C356.847 276.346 356.983 276.291 357.124 276.254C357.394 276.162 357.785 276.041 358.275 275.92C359.556 275.598 360.865 275.403 362.184 275.338C363.504 275.27 364.827 275.329 366.135 275.515C366.633 275.586 367.038 275.665 367.315 275.728C367.46 275.75 367.6 275.791 367.734 275.849Z" fill="#455A64"/>
<path d="M289.284 281.408C289.284 281.408 288.694 280.997 287.713 280.393C286.44 279.608 285.087 278.961 283.677 278.462C282.262 277.967 280.8 277.622 279.313 277.432C278.176 277.29 277.458 277.276 277.458 277.241C277.626 277.22 277.796 277.22 277.963 277.241C278.421 277.239 278.879 277.26 279.335 277.305C280.839 277.454 282.32 277.78 283.748 278.277C285.175 278.782 286.536 279.459 287.799 280.294C288.184 280.542 288.554 280.812 288.907 281.103C289.044 281.19 289.17 281.293 289.284 281.408Z" fill="#455A64"/>
<path d="M299.525 309.106L299.681 309.162L300.15 309.361C300.555 309.524 301.152 309.808 301.948 310.114C303.54 310.739 305.885 311.605 308.898 312.592C314.932 314.565 323.595 317.072 333.964 319.692L333.843 319.756L340.154 302.261L340.217 302.396L332.4 299.194L289.17 281.444C287.415 279.584 285.795 277.944 284.281 276.623C282.995 275.485 281.622 274.45 280.173 273.527C279.253 272.956 278.304 272.433 277.331 271.958L276.57 271.61L276.314 271.483C276.404 271.513 276.492 271.549 276.577 271.589L277.345 271.923C278.323 272.379 279.272 272.893 280.187 273.464C281.644 274.376 283.027 275.402 284.324 276.531C285.851 277.851 287.486 279.484 289.256 281.345L332.514 299.052L340.331 302.261L340.431 302.304L340.395 302.396C338.142 308.616 336.003 314.53 334.07 319.89V319.976H333.985C323.616 317.349 314.953 314.814 308.934 312.812C305.928 311.811 303.583 310.923 301.998 310.277C301.202 309.958 300.576 309.666 300.207 309.496L299.745 309.283L299.525 309.106Z" fill="#455A64"/>
<path d="M349.961 211.041C349.961 211.041 355.838 214.42 357.032 218.396C357.743 220.803 363.236 251.667 364.139 257.751C365.041 263.836 363.172 268.345 360.585 270.368C357.998 272.392 350.11 275.075 350.11 275.075L338.988 278.661L335.811 270.588L346.358 255.451L345.334 245.255L349.961 211.041Z" fill="#ADD9C8"/>
<path d="M338.412 205.708L334.013 203.188C334.013 203.188 329.991 207.888 324.505 207.313C321.103 206.861 317.992 205.16 315.778 202.542L299.432 205.865C298.338 206.085 296.334 206.78 294.422 209.514C292.29 212.56 282.17 226.071 282.17 226.071H275.028C274.069 226.07 273.128 226.331 272.306 226.825C271.485 227.319 270.814 228.028 270.366 228.876C269.158 231.176 267.708 234.257 267.85 235.535C268.085 237.665 267.673 243.608 270.565 245.475C271.482 246.065 274.765 247.818 277.316 247.698C281.076 247.52 285.439 245.568 287.976 243.807C290.108 242.323 295.083 237.176 296.973 235.166V235.202L298.196 278.064L341.077 276.843L349.961 211.062C349.961 211.062 338.846 205.708 338.412 205.708Z" fill="#ADD9C8"/>
<path d="M296.824 217.189C296.888 217.189 296.995 222.5 297.073 229.053C297.152 235.606 297.166 240.924 297.109 240.924C297.052 240.924 296.931 235.613 296.853 229.06C296.774 222.507 296.767 217.189 296.824 217.189Z" fill="#263238"/>
<path d="M355.156 251.837C355.156 251.837 354.793 251.894 354.147 252.021C353.232 252.204 352.341 252.487 351.489 252.866C350.222 253.429 349.029 254.145 347.935 254.996C346.601 256.039 345.355 257.191 344.211 258.44C342.982 259.761 341.859 261.074 340.807 262.231C339.885 263.272 338.91 264.265 337.886 265.206C337.196 265.841 336.463 266.427 335.691 266.96C335.428 267.152 335.2 267.279 335.051 267.379C334.977 267.429 334.898 267.471 334.816 267.507L335.03 267.336C335.165 267.23 335.385 267.095 335.641 266.889C336.385 266.331 337.097 265.732 337.773 265.093C338.64 264.29 339.613 263.268 340.651 262.096C341.689 260.925 342.783 259.619 344.041 258.291C345.191 257.033 346.449 255.879 347.8 254.84C348.904 253.982 350.113 253.266 351.396 252.71C352.262 252.335 353.172 252.071 354.104 251.922C354.356 251.88 354.61 251.852 354.864 251.837H355.156Z" fill="#263238"/>
<path d="M356.129 248.933C356.129 248.976 355.475 249.068 354.452 249.352C351.782 250.095 349.358 251.536 347.431 253.527C346.72 254.294 346.308 254.826 346.272 254.798C346.338 254.658 346.422 254.526 346.521 254.407C346.766 254.063 347.032 253.733 347.317 253.42C349.212 251.337 351.687 249.866 354.424 249.196C354.833 249.094 355.248 249.019 355.667 248.969C355.82 248.94 355.974 248.928 356.129 248.933Z" fill="#263238"/>
<g opacity="0.3">
<path d="M276.321 241.4C278.588 242.018 281.296 238.752 283.378 236.714C284.451 235.649 285.567 234.513 285.958 233.058C286.239 231.835 286.114 230.554 285.603 229.408C285.221 228.373 284.715 227.389 284.096 226.476C284.288 228.237 284.721 230.935 284.096 233.143C283.515 234.92 282.519 236.534 281.189 237.85C279.875 239.327 278.347 240.875 276.293 241.4" fill="black"/>
</g>
<path d="M286.022 239.547C285.979 239.547 286.242 238.801 286.456 237.566C286.579 236.848 286.651 236.122 286.669 235.393C286.702 233.605 286.421 231.824 285.837 230.132C285.603 229.441 285.316 228.77 284.977 228.123C284.395 227.023 283.918 226.405 283.954 226.376C284.088 226.502 284.207 226.643 284.309 226.795C284.44 226.964 284.561 227.139 284.672 227.321C284.807 227.534 284.97 227.768 285.12 228.031C285.478 228.675 285.784 229.347 286.036 230.04C286.353 230.892 286.591 231.772 286.747 232.667C286.879 233.565 286.934 234.472 286.91 235.379C286.883 236.116 286.798 236.85 286.655 237.573C286.603 237.853 286.537 238.131 286.456 238.404C286.405 238.611 286.343 238.814 286.271 239.014C286.207 239.2 286.124 239.379 286.022 239.547Z" fill="#263238"/>
<path d="M317.547 204.196C317.547 204.253 317.071 204.544 316.545 205.02C316.019 205.495 315.671 205.95 315.614 205.914C315.799 205.51 316.067 205.148 316.4 204.852C316.733 204.556 317.123 204.333 317.547 204.196Z" fill="#263238"/>
<path d="M322.01 206.788C322.053 206.83 321.626 207.299 321.3 207.98C320.973 208.662 320.816 209.28 320.752 209.265C320.761 208.782 320.88 208.307 321.102 207.877C321.324 207.447 321.642 207.075 322.032 206.788H322.01Z" fill="#263238"/>
<path d="M329.65 209.45C329.442 209.042 329.278 208.614 329.16 208.172C328.969 207.758 328.821 207.325 328.719 206.88C329.019 207.236 329.24 207.653 329.366 208.101C329.557 208.525 329.654 208.985 329.65 209.45Z" fill="#263238"/>
<path d="M334.568 207.15C334.497 207.15 334.333 206.44 333.857 205.63C333.381 204.821 332.791 204.338 332.841 204.288C333.354 204.57 333.772 204.998 334.042 205.517C334.372 205.998 334.555 206.566 334.568 207.15Z" fill="#263238"/>
<path d="M348.682 221.03C348.745 221.03 348.013 226.895 347.061 234.108C346.109 241.322 345.285 247.165 345.221 247.151C345.157 247.137 345.889 241.293 346.841 234.08C347.793 226.866 348.625 221.023 348.682 221.03Z" fill="#263238"/>
<path d="M284.423 230.509C284.448 230.711 284.448 230.916 284.423 231.119C284.408 231.358 284.377 231.595 284.331 231.829C284.331 231.964 284.281 232.113 284.26 232.269L284.139 232.752C283.925 233.542 283.642 234.312 283.293 235.053C282.847 235.951 282.319 236.807 281.715 237.609C281.098 238.394 280.395 239.109 279.619 239.739C278.971 240.259 278.253 240.687 277.487 241.009C277.331 241.073 277.174 241.144 277.025 241.194L276.599 241.315L276.222 241.421L275.902 241.464C275.702 241.496 275.5 241.513 275.298 241.514C276.028 241.367 276.742 241.151 277.43 240.867C278.16 240.528 278.843 240.096 279.463 239.582C280.218 238.946 280.904 238.232 281.509 237.452C282.107 236.663 282.633 235.822 283.08 234.939C283.437 234.216 283.73 233.463 283.954 232.688C284.152 231.971 284.309 231.244 284.423 230.509Z" fill="#263238"/>
<g opacity="0.3">
<path d="M347.303 279.506C349.122 278.625 349.534 276.275 349.719 274.266C350.264 268.373 350.809 262.485 351.354 256.601C351.61 253.832 351.73 250.673 349.776 248.692C347.992 246.888 345.157 246.775 342.612 246.782C326.921 246.831 313.07 247.286 297.379 247.328L298.174 274.77L347.303 279.506Z" fill="black"/>
</g>
<path d="M290.613 251.581L292.283 283.382C292.318 283.977 292.58 284.535 293.015 284.942C293.45 285.349 294.025 285.574 294.621 285.569L345.327 285.661C345.924 285.664 346.5 285.437 346.934 285.027C347.368 284.617 347.627 284.056 347.658 283.46L349.598 252.22C349.662 250.921 348.738 249.196 347.416 249.167H292.994C292.675 249.158 292.359 249.215 292.064 249.333C291.768 249.452 291.501 249.63 291.277 249.857C291.054 250.083 290.88 250.353 290.765 250.65C290.651 250.947 290.599 251.264 290.613 251.581Z" fill="#E0E0E0"/>
<path d="M290.613 251.581C290.613 251.581 290.613 251.539 290.613 251.461C290.613 251.383 290.613 251.262 290.613 251.106C290.68 250.641 290.892 250.209 291.217 249.87C291.451 249.615 291.74 249.416 292.063 249.288C292.455 249.149 292.87 249.091 293.285 249.118H296.369L316.019 249.082H345.157H347.225C347.594 249.065 347.961 249.159 348.277 249.352C348.583 249.548 348.846 249.804 349.051 250.105C349.461 250.711 349.681 251.425 349.684 252.156C349.641 252.866 349.605 253.576 349.563 254.286C349.388 257.126 349.207 260.045 349.023 263.041C348.653 268.991 348.269 275.153 347.879 281.465L347.807 282.644C347.795 283.043 347.762 283.441 347.708 283.837C347.628 284.241 347.445 284.619 347.178 284.933C346.91 285.247 346.567 285.488 346.18 285.633C345.799 285.765 345.395 285.818 344.993 285.789H341.504H332.4H315.188L299.617 285.746H295.147C294.856 285.746 294.564 285.746 294.266 285.746C293.68 285.664 293.144 285.37 292.759 284.92C292.374 284.47 292.167 283.896 292.176 283.304C292.148 282.75 292.12 282.204 292.091 281.664C292.034 280.578 291.985 279.534 291.928 278.483C291.508 270.212 291.167 263.516 290.933 258.88C290.819 256.573 290.734 254.776 290.677 253.555C290.677 252.945 290.627 252.483 290.613 252.135C290.599 251.787 290.613 251.666 290.613 251.666C290.613 251.666 290.613 251.823 290.649 252.135C290.684 252.448 290.698 252.916 290.734 253.52C290.805 254.748 290.904 256.537 291.032 258.852C291.288 263.481 291.651 270.212 292.098 278.448C292.155 279.484 292.212 280.542 292.269 281.629C292.297 282.168 292.326 282.715 292.354 283.269C292.349 283.815 292.537 284.346 292.887 284.767C293.248 285.194 293.754 285.472 294.308 285.548C294.595 285.562 294.882 285.562 295.168 285.548H299.638H315.209H332.422H341.525H345.015C345.38 285.578 345.747 285.534 346.095 285.42C346.452 285.292 346.77 285.075 347.019 284.789C347.268 284.503 347.439 284.158 347.516 283.787C347.58 283.425 347.58 283.013 347.608 282.63L347.687 281.444C348.078 275.139 348.454 268.976 348.824 263.026C349.008 260.049 349.191 257.129 349.371 254.265L349.499 252.135C349.496 251.446 349.289 250.774 348.902 250.204C348.734 249.915 348.492 249.676 348.201 249.511C347.91 249.346 347.58 249.262 347.246 249.267H345.171H316.034H296.384H293.299C292.892 249.232 292.483 249.285 292.098 249.423C291.78 249.542 291.494 249.731 291.26 249.977C290.937 250.31 290.724 250.733 290.649 251.191C290.606 251.418 290.663 251.581 290.613 251.581Z" fill="#263238"/>
<path d="M323.467 267.095C323.47 267.688 323.296 268.269 322.967 268.763C322.639 269.257 322.17 269.643 321.622 269.87C321.073 270.097 320.469 270.156 319.887 270.04C319.305 269.923 318.77 269.636 318.352 269.215C317.934 268.794 317.65 268.258 317.538 267.676C317.425 267.093 317.488 266.49 317.72 265.944C317.951 265.397 318.34 264.932 318.837 264.607C319.334 264.283 319.917 264.113 320.511 264.12C321.296 264.128 322.047 264.444 322.6 265.001C323.154 265.558 323.465 266.31 323.467 267.095Z" fill="white"/>
<path d="M323.467 267.095C323.467 267.095 323.467 266.825 323.332 266.385C323.227 265.993 323.041 265.626 322.786 265.31C322.531 264.993 322.213 264.733 321.852 264.546C321.491 264.359 321.095 264.249 320.689 264.223C320.283 264.198 319.876 264.257 319.494 264.397C318.961 264.593 318.498 264.944 318.166 265.405C317.798 265.896 317.6 266.493 317.6 267.106C317.6 267.719 317.798 268.315 318.166 268.806C318.498 269.267 318.961 269.619 319.494 269.814C319.876 269.952 320.283 270.01 320.688 269.983C321.093 269.956 321.488 269.846 321.849 269.659C322.209 269.473 322.527 269.213 322.782 268.898C323.038 268.582 323.225 268.218 323.332 267.826C323.453 267.372 323.446 267.116 323.467 267.116C323.478 267.18 323.478 267.244 323.467 267.308C323.464 267.492 323.443 267.675 323.403 267.855C323.25 268.526 322.868 269.123 322.323 269.544C321.949 269.843 321.507 270.045 321.037 270.134C320.495 270.238 319.936 270.196 319.416 270.013C318.846 269.805 318.351 269.432 317.995 268.941C317.603 268.412 317.392 267.771 317.392 267.113C317.392 266.454 317.603 265.814 317.995 265.284C318.351 264.793 318.846 264.42 319.416 264.212C319.936 264.03 320.495 263.988 321.037 264.092C321.61 264.204 322.138 264.48 322.558 264.885C322.978 265.291 323.271 265.809 323.403 266.378C323.443 266.557 323.465 266.741 323.467 266.925C323.475 266.981 323.475 267.038 323.467 267.095Z" fill="#263238"/>
<path d="M292.326 255.103C292.383 255.103 292.631 260.442 292.88 267.038C293.129 273.634 293.278 278.98 293.221 278.98C293.164 278.98 292.908 273.641 292.66 267.045C292.411 260.449 292.262 255.103 292.326 255.103Z" fill="#263238"/>
<path d="M277.082 213.604C276.783 213.355 278.084 208.357 278.084 208.357C278.084 208.357 274.644 202.748 274.531 200.944C274.417 199.141 275.888 195.428 275.888 195.428L285.759 192.893C285.759 192.893 288.929 198.772 289.561 200.852C290.194 202.932 288.531 209.99 288.531 209.99L286.861 213.604C286.861 213.604 281.779 217.587 277.082 213.604Z" fill="#99655C"/>
<path d="M274.573 202.023C274.182 201.316 273.834 200.585 273.529 199.837C272.91 198.353 272.143 196.904 273.529 196.074C273.747 195.932 273.992 195.837 274.25 195.797C274.507 195.757 274.77 195.771 275.021 195.839C275.021 195.839 274.808 194.597 275.547 194.128C275.763 193.992 276.009 193.909 276.263 193.887C276.518 193.865 276.774 193.904 277.011 194C277.011 194 276.776 192.24 277.849 191.494C278.254 191.231 278.724 191.084 279.206 191.07C279.689 191.056 280.166 191.176 280.585 191.416C280.585 191.416 279.733 183.727 279.662 183.315C279.392 181.824 279.946 180.475 281.431 180.865C281.978 181 282.284 181.575 282.924 184.082C283.563 186.588 284.594 190.862 284.594 190.862C284.594 190.862 286.328 193.873 287.145 195.506C287.962 197.139 289.583 200.852 289.718 201.839C290.066 204.381 288.573 207.753 288.573 207.753L278.084 208.357C278.084 208.357 274.971 202.755 274.573 202.023Z" fill="#99655C"/>
<path d="M275.227 196.173C275.524 196.529 275.795 196.907 276.037 197.302L276.869 198.566C277.039 198.816 277.189 199.079 277.316 199.354C277.463 199.666 277.508 200.016 277.444 200.355C277.411 200.531 277.332 200.696 277.215 200.832C277.097 200.968 276.946 201.07 276.776 201.129C276.46 201.209 276.126 201.169 275.838 201.015C275.588 200.893 275.351 200.748 275.128 200.582L274.559 200.156C274.218 199.894 273.955 199.666 273.777 199.503C273.6 199.34 273.507 199.24 273.514 199.226C273.521 199.212 273.955 199.538 274.651 200.035C275.05 200.332 275.47 200.598 275.909 200.831C276.153 200.955 276.433 200.988 276.698 200.923C276.831 200.876 276.949 200.794 277.039 200.685C277.129 200.576 277.188 200.445 277.21 200.305C277.266 200.013 277.229 199.709 277.103 199.439C276.985 199.172 276.845 198.916 276.684 198.672L275.909 197.38C275.649 196.997 275.421 196.593 275.227 196.173Z" fill="#744A45"/>
<path d="M283.826 197.089C283.734 196.539 283.773 195.974 283.94 195.442C284.035 194.891 284.259 194.37 284.594 193.922C284.65 193.922 284.359 194.632 284.153 195.491C283.947 196.351 283.89 197.089 283.826 197.089Z" fill="#744A45"/>
<path d="M287.984 199.332C287.017 198.398 285.8 197.764 284.48 197.508C283.162 197.253 281.813 197.201 280.479 197.352C279.413 197.451 278.198 197.721 277.707 198.679C277.506 199.199 277.501 199.775 277.695 200.298C277.889 200.821 278.267 201.256 278.759 201.519C279.753 202.012 280.876 202.183 281.971 202.009C283.061 201.83 284.168 201.784 285.269 201.874" fill="#99655C"/>
<path d="M285.269 201.846C285.269 201.846 284.97 201.846 284.444 201.846C283.69 201.876 282.938 201.947 282.192 202.059C281.67 202.121 281.145 202.142 280.621 202.123C280.006 202.101 279.403 201.948 278.851 201.676C278.235 201.356 277.764 200.812 277.537 200.156C277.418 199.804 277.393 199.427 277.466 199.063C277.55 198.688 277.752 198.35 278.041 198.097C278.622 197.643 279.324 197.369 280.06 197.309C280.72 197.235 281.384 197.195 282.049 197.188C283.184 197.17 284.313 197.343 285.39 197.7C286.112 197.94 286.787 198.303 287.386 198.772C287.549 198.902 287.703 199.042 287.848 199.191C287.898 199.241 287.943 199.296 287.983 199.354C287.983 199.354 287.77 199.155 287.337 198.843C286.729 198.405 286.054 198.067 285.34 197.842C284.276 197.519 283.168 197.368 282.056 197.394C281.399 197.403 280.741 197.445 280.088 197.522C279.4 197.57 278.741 197.816 278.19 198.232C277.934 198.455 277.755 198.753 277.679 199.084C277.615 199.408 277.637 199.744 277.743 200.057C277.946 200.666 278.376 201.175 278.944 201.477C279.467 201.742 280.042 201.892 280.628 201.917C281.145 201.949 281.663 201.937 282.177 201.881C282.929 201.784 283.686 201.734 284.444 201.732C284.649 201.743 284.853 201.764 285.055 201.796C285.129 201.801 285.201 201.818 285.269 201.846Z" fill="#744A45"/>
<path d="M275.305 196.294C276.407 197.969 277.38 199.808 278.311 201.583C278.532 202.126 278.896 202.599 279.363 202.953C279.761 203.195 280.749 202.755 281.189 202.598L278.162 195.711" fill="#99655C"/>
<path d="M278.162 195.711C278.268 195.873 278.358 196.044 278.432 196.223L279.1 197.643C279.662 198.871 280.429 200.582 281.289 202.527L281.339 202.634L281.225 202.677C280.898 202.79 280.514 202.939 280.166 203.039C280.015 203.078 279.86 203.1 279.704 203.103C279.622 203.113 279.538 203.113 279.455 203.103C279.374 203.076 279.298 203.038 279.228 202.989C278.985 202.811 278.778 202.589 278.617 202.336C278.304 201.846 278.084 201.356 277.842 200.916C277.366 200 276.925 199.176 276.549 198.495C276.172 197.813 275.838 197.266 275.632 196.89C275.508 196.702 275.399 196.505 275.305 196.301C275.452 196.472 275.585 196.655 275.703 196.847C275.952 197.21 276.293 197.742 276.684 198.417C277.075 199.091 277.537 199.908 278.02 200.823C278.269 201.271 278.503 201.775 278.795 202.243C278.942 202.474 279.133 202.674 279.356 202.833C279.541 202.989 279.839 202.932 280.116 202.868C280.468 202.77 280.814 202.654 281.154 202.52L281.09 202.669C280.237 200.717 279.491 198.992 278.958 197.749C278.709 197.153 278.51 196.656 278.347 196.279C278.267 196.097 278.205 195.906 278.162 195.711Z" fill="#744A45"/>
<path d="M277.345 193.667L280.266 200.987C280.442 201.518 280.709 202.015 281.055 202.457C281.228 202.676 281.453 202.85 281.709 202.961C281.966 203.073 282.247 203.119 282.526 203.096C282.899 202.998 283.228 202.778 283.462 202.472C283.697 202.166 283.822 201.791 283.819 201.406C283.799 200.634 283.612 199.876 283.272 199.184C282.387 196.957 281.674 194.667 281.14 192.332" fill="#99655C"/>
<path d="M281.175 192.332C281.21 192.404 281.237 192.481 281.254 192.559C281.296 192.73 281.353 192.943 281.424 193.205C281.573 193.766 281.794 194.576 282.135 195.57C282.476 196.564 282.845 197.735 283.343 199.013C283.653 199.676 283.86 200.382 283.954 201.108C283.987 201.506 283.911 201.906 283.734 202.265C283.556 202.654 283.239 202.963 282.845 203.131C282.647 203.204 282.434 203.233 282.223 203.215C282.012 203.198 281.807 203.136 281.623 203.032C281.268 202.839 280.97 202.558 280.756 202.215C280.409 201.578 280.114 200.913 279.875 200.227L278.539 196.826L277.636 194.54C277.544 194.285 277.473 194.079 277.409 193.915C277.378 193.842 277.357 193.766 277.345 193.688C277.389 193.752 277.425 193.821 277.451 193.894L277.722 194.512L278.667 196.784C279.058 197.756 279.527 198.914 280.045 200.17C280.282 200.844 280.574 201.497 280.92 202.123C281.113 202.424 281.383 202.669 281.701 202.833C281.858 202.922 282.033 202.977 282.213 202.993C282.394 203.009 282.575 202.986 282.746 202.925C283.084 202.777 283.355 202.509 283.506 202.173C283.665 201.843 283.736 201.479 283.712 201.115C283.619 200.412 283.42 199.727 283.123 199.084C282.632 197.799 282.248 196.613 281.957 195.612C281.666 194.611 281.467 193.795 281.339 193.227C281.282 192.943 281.232 192.715 281.211 192.566C281.19 192.49 281.178 192.411 281.175 192.332Z" fill="#744A45"/>
<path d="M277.579 210.87C277.579 210.87 270.885 230.573 270.622 231.538C270.359 232.504 271.944 239.547 274.85 241.215C277.757 242.884 283.378 235.94 284.089 233.405C284.8 230.871 284.089 226.547 284.089 226.547L288.602 209.571" fill="#99655C"/>
<path d="M284.096 207.767C283.882 207.797 283.664 207.77 283.464 207.689C282.97 207.533 282.516 207.271 282.135 206.922C281.753 206.572 281.452 206.144 281.253 205.666C281.158 205.472 281.112 205.257 281.118 205.041C281.367 205.696 281.766 206.285 282.283 206.758C282.8 207.232 283.421 207.577 284.096 207.767Z" fill="#744A45"/>
</svg>
